<svg viewBox="0 0 45 45" fill="none" xmlns="http://www.w3.org/2000/svg">
<path d="M2.52182 17.6641C2.99504 18.2672 3.3334 18.9393 3.5369 19.6803C3.62272 19.9954 3.6595 20.2982 3.64479 20.5863C3.62517 20.9728 3.62027 21.2288 3.62272 21.3617C3.66195 22.5877 3.88752 23.7571 4.29944 24.8723C4.41958 25.1973 4.5716 25.5148 4.75304 25.8299C4.8315 25.9629 4.95409 26.1155 5.01539 26.2312C5.035 26.2682 5.03501 26.2952 5.01784 26.3149C4.99578 26.3395 4.95654 26.342 4.93203 26.3198C4.70645 26.1377 4.45146 25.9875 4.17194 25.8669C3.9807 25.7832 3.7919 25.7167 3.60556 25.6675C3.41921 25.6182 3.22306 25.5838 3.0122 25.569C3.00975 25.569 3.00975 25.5715 3.00975 25.5715C3.00975 25.5715 3.00975 25.5739 3.0122 25.5739C3.64724 25.7684 4.23569 26.0687 4.7751 26.47C5.05952 26.6817 5.25567 26.9279 5.46899 27.216C5.8147 27.6837 6.21926 28.0997 6.68267 28.4666C6.9205 28.6561 7.1755 28.8161 7.44766 28.9515C7.5016 28.9786 7.49915 29.0426 7.45011 29.0771C7.44276 29.082 7.4354 29.0845 7.42559 29.0845C6.87147 29.0525 6.32715 29.0722 5.79264 29.146C5.43221 29.1953 5.0963 29.2765 4.77756 29.3922C4.68929 29.4242 4.60592 29.4611 4.52501 29.5055C4.52256 29.5079 4.52011 29.5128 4.52256 29.5153C4.52501 29.5178 4.52746 29.5202 4.53237 29.5178C4.94674 29.407 5.38072 29.3356 5.83677 29.306C6.97199 29.2297 8.08515 29.3553 9.18114 29.6827C9.58325 29.8033 10.0295 29.9683 10.4341 30.0963C11.7336 30.505 12.5157 30.7536 12.7854 30.8398C12.8344 30.8545 12.8541 30.8841 12.8467 30.9284C12.8418 30.9555 12.8173 30.9776 12.7879 30.9825C12.1455 31.0736 11.5202 31.3223 11.0029 31.6916C10.922 31.7506 10.846 31.8122 10.7798 31.8787C11.8218 31.2583 12.9203 31.0244 14.0751 31.1721C15.7326 31.3863 17.2135 32.3562 18.3144 33.5872C19.6482 35.0815 20.5383 36.9648 20.9649 38.9367C20.9747 38.9786 20.9477 39.0204 20.9061 39.0303C20.9011 39.0303 20.8938 39.0327 20.8889 39.0327H20.884C20.8276 39.0327 20.7761 38.9958 20.754 38.9416C20.3397 37.824 19.7267 36.8269 18.9151 35.9554C17.0296 33.9244 14.1805 32.7255 11.4075 33.309C11.2849 33.3336 11.1402 33.3779 10.971 33.4419C10.4659 33.629 9.94858 33.7743 9.41652 33.8777C9.15662 33.9294 8.90163 33.9564 8.65153 33.9589C8.51913 33.9614 8.09496 33.922 8.33279 33.6856C8.63927 33.3804 8.91634 32.888 8.66134 32.4596C8.39899 32.019 7.78112 31.7974 7.30055 31.6817C6.7881 31.5586 6.23888 31.5241 5.73134 31.4946C5.4886 31.4823 5.26548 31.4552 5.05952 31.4134C4.12781 31.2312 3.16176 30.8078 2.50956 30.1037C2.31341 29.892 2.15159 29.6482 2.02409 29.3725C1.99222 29.3036 1.98241 29.2248 2.06823 29.2076C2.07803 29.2051 2.08539 29.2051 2.0952 29.2076C2.31096 29.2494 2.4973 29.2519 2.65913 29.2199C3.29662 29.0845 3.15686 28.4592 2.93619 28.0333C2.69345 27.5631 2.32813 27.1544 1.93337 26.7974C1.86962 26.7384 1.72496 26.6202 1.49939 26.4429C1.10954 26.1327 0.776082 25.7758 0.496567 25.372C0.275898 25.0545 0.128783 24.7418 0.0503226 24.439C-0.0158783 24.1781 -0.0305901 23.8679 0.0920042 23.6266C0.109167 23.5921 0.145948 23.5724 0.182726 23.5774C0.23912 23.5848 0.280801 23.6931 0.320031 23.7743C0.457337 24.0476 0.682911 24.375 0.986944 24.4538C1.28362 24.5301 1.50919 24.2248 1.61463 23.9983C1.73232 23.7472 1.81078 23.4641 1.85001 23.1466C1.93337 22.4892 1.9064 21.8319 1.77155 21.1697C1.72741 20.958 1.66857 20.7487 1.59256 20.5395C1.50184 20.2834 1.42828 20.0767 1.37679 19.9191C1.08257 19.0304 0.886416 18.0924 0.886416 17.1594C0.886416 16.3987 1.06295 15.5223 1.61953 14.9684C1.62934 14.9585 1.6416 14.9511 1.65631 14.9511C1.72006 14.9437 1.75438 14.9684 1.76419 15.0275C1.76664 15.0373 1.76664 15.0471 1.76174 15.057C1.72496 15.1875 1.70535 15.3352 1.70289 15.5001C1.69799 16.1968 2.2889 16.0959 2.69591 15.8522C2.9509 15.6995 3.19119 15.51 3.41676 15.2859C3.9807 14.7222 4.45881 13.991 4.68439 13.2229C4.79472 12.8512 4.87808 12.573 4.93938 12.3834C5.07423 11.9625 5.27038 11.571 5.52538 11.2067C5.56951 11.1451 5.72399 10.931 5.79999 10.9187C5.83677 10.9137 5.87355 10.9359 5.88581 10.9728C5.99859 11.3446 6.19475 11.7434 6.53556 11.928C6.89108 12.1225 7.303 11.9354 7.58742 11.6769C7.84486 11.443 8.06553 11.1624 8.25433 10.835C8.67115 10.1038 8.93595 9.30863 9.10513 8.47161C9.1321 8.34359 9.16643 8.11464 9.21056 7.78968C9.25715 7.44995 9.48027 6.0664 9.81863 5.95562C9.87993 5.93593 9.95594 6.02209 10.0074 6.05163C10.667 6.41598 11.4222 5.99501 11.915 5.5445C12.859 4.68039 13.4719 3.43963 13.8373 2.22349C14.0432 1.53664 14.156 0.822712 14.1781 0.0841644C14.1805 -0.00938505 14.2835 -0.0290796 14.3326 0.0472371C14.5434 0.372198 14.6047 0.825174 14.5974 1.2166C14.5826 1.997 14.384 2.77986 14.1217 3.51595C13.6828 4.75179 13.0968 5.90392 12.4152 7.05606C12.273 7.29485 12.1013 7.55335 11.8978 7.83646C11.5595 8.30666 11.1819 8.83842 10.7675 9.42926C10.743 9.46372 10.7136 9.49326 10.6792 9.51296C10.6547 9.52773 10.6204 9.52034 10.6081 9.49573C10.6081 9.49326 10.6057 9.4908 10.6057 9.4908C10.5861 9.44649 10.5861 9.39971 10.5959 9.35048C10.6694 8.95905 10.6523 8.57008 10.5468 8.17865C10.5468 8.17619 10.5444 8.17373 10.5419 8.17373C10.5395 8.17373 10.537 8.17619 10.537 8.17865C10.5689 8.83842 10.4512 9.45634 10.1864 10.0349C10.0001 10.4411 9.72546 10.9236 9.41162 11.3396C9.02422 11.8566 7.92332 13.3189 6.11629 15.7315C6.08932 15.766 6.05499 15.798 6.01086 15.8275C6.00105 15.8349 5.98879 15.8349 5.97653 15.8275C5.92013 15.7906 5.91523 15.7488 5.9373 15.6798C6.15061 15.0225 6.2021 14.2766 6.0084 13.6045C6.0084 13.6021 6.0035 13.5996 6.00105 13.5996C5.9986 13.5996 5.99614 13.6021 5.99614 13.6045C5.98633 14.3898 5.86865 15.1604 5.64062 15.9137C5.46163 16.5045 5.2238 17.0092 4.88054 17.4696C4.704 17.7059 4.62064 17.8142 4.53482 17.9619C4.49069 18.0358 4.41468 18.1934 4.30189 18.4297C4.07877 18.8999 3.9243 19.3873 3.83603 19.8871C3.82868 19.924 3.80906 19.9511 3.77719 19.9683C3.76738 19.9733 3.75757 19.9733 3.75022 19.9683C3.71344 19.9536 3.69382 19.9289 3.69382 19.8994C3.69627 19.5621 3.58594 19.215 3.43883 18.8802C3.23042 18.41 2.93619 18.0038 2.5586 17.6641C2.55615 17.6616 2.5537 17.6591 2.55125 17.6591L2.52673 17.6419C2.52428 17.6394 2.51937 17.6419 2.51692 17.6444C2.52183 17.6591 2.52182 17.6616 2.52182 17.6641Z"/>
<path d="M42.4582 17.6688C42.4459 17.6787 42.4239 17.6959 42.3944 17.7205C41.8697 18.1809 41.4431 18.9317 41.3205 19.6506C41.3058 19.7318 41.3009 19.8155 41.3034 19.9017C41.3058 19.9977 41.1783 20.0125 41.1611 19.9066C41.0533 19.2764 40.8203 18.6609 40.5163 18.0824C40.3667 17.7993 40.1927 17.595 39.999 17.3217C39.8764 17.1494 39.7513 16.9254 39.6263 16.6546C39.462 16.2976 39.3222 15.8717 39.207 15.3744C39.0721 14.7959 39.0035 14.2075 38.9986 13.6068C38.9986 13.6044 38.9961 13.6019 38.9937 13.6019C38.9912 13.6019 38.9912 13.6044 38.9888 13.6044C38.7926 14.2789 38.8417 15.0224 39.055 15.6846C39.0746 15.7486 39.0771 15.7806 39.0354 15.8249C39.0207 15.8397 38.9986 15.8422 38.9839 15.8323C38.9422 15.8052 38.9079 15.7732 38.8809 15.7363C38.8147 15.6477 37.7064 14.173 35.5561 11.3075C35.4041 11.1056 35.257 10.8767 35.1148 10.6255C34.953 10.3375 34.8304 10.0963 34.7495 9.89931C34.5264 9.36017 34.4307 8.78902 34.4602 8.18341C34.4602 8.18095 34.4577 8.17849 34.4552 8.17603C34.4528 8.17603 34.4503 8.17849 34.4479 8.18095C34.34 8.57484 34.3253 8.97858 34.4038 9.39217C34.4111 9.43402 34.3989 9.47587 34.3621 9.51772C34.3547 9.52757 34.3425 9.53003 34.3327 9.52511C34.2934 9.50541 34.264 9.48326 34.2444 9.45618C33.7074 8.69301 33.3151 8.14156 33.0675 7.79937C32.8787 7.53842 32.7095 7.27746 32.5575 7.02143C31.9004 5.90869 31.3315 4.79102 30.9025 3.60196C30.6107 2.79694 30.3802 1.91314 30.3974 1.06627C30.4047 0.721618 30.4758 0.344958 30.6597 0.0421538C30.6793 0.0101501 30.7186 -0.00708268 30.7529 0.00276462C30.7921 0.0126119 30.8118 0.03723 30.8142 0.0766192C30.8338 0.709309 30.9147 1.30015 31.0545 1.85406C31.3242 2.91264 31.7655 3.92938 32.4055 4.7984C32.7929 5.32523 33.2857 5.82006 33.8913 6.07609C34.2787 6.24103 34.7495 6.24349 35.0927 5.97516C35.2227 5.87176 35.3698 6.16718 35.4066 6.2558C35.4581 6.3789 35.5071 6.52168 35.5537 6.6817C35.6469 7.01158 35.7204 7.3587 35.7719 7.72305C35.8234 8.08248 35.8602 8.32128 35.8822 8.44437C35.9852 8.98597 36.1421 9.51526 36.3481 10.0347C36.5712 10.596 36.8704 11.1376 37.2847 11.5684C37.6942 11.9943 38.2875 12.243 38.7411 11.6989C38.9177 11.4872 39.0231 11.2435 39.1114 10.9727C39.1212 10.9431 39.1482 10.921 39.1825 10.9185C39.207 10.9185 39.2315 10.9283 39.256 10.953C39.3468 11.0465 39.4277 11.145 39.4988 11.2508C39.7342 11.593 39.918 11.9672 40.0504 12.371C40.097 12.5138 40.1657 12.7353 40.254 13.0406C40.3349 13.3212 40.4133 13.5403 40.4844 13.7004C40.7541 14.3035 41.1489 14.8648 41.6246 15.3301C41.9335 15.6329 42.3724 15.9776 42.8015 16.0317C43.385 16.1056 43.3335 15.404 43.2354 15.0544C43.2158 14.9879 43.2918 14.9313 43.3556 14.9534C43.3801 14.9633 43.4095 14.9879 43.4463 15.0273C43.9269 15.5886 44.101 16.337 44.1132 17.0731C44.1304 18.0923 43.9024 19.1238 43.5664 20.0839C43.4242 20.4901 43.3066 20.788 43.233 21.1499C43.103 21.7727 43.0712 22.4029 43.1374 23.0331C43.1668 23.3187 43.2281 23.5871 43.3213 23.8406C43.4904 24.301 43.8778 24.7417 44.3486 24.2493C44.5055 24.0868 44.6355 23.8923 44.736 23.6658C44.7654 23.6018 44.8022 23.5551 44.8758 23.5871C44.8831 23.5895 44.8905 23.5969 44.8954 23.6043C45.0155 23.7988 45.018 24.104 44.9738 24.3256C44.9248 24.5718 44.8341 24.8131 44.7017 25.0494C44.3927 25.6033 43.9514 26.0858 43.4561 26.4772C43.2747 26.62 43.157 26.716 43.103 26.7628C42.75 27.0705 42.4484 27.4127 42.2032 27.7869C42.0659 27.9987 41.9678 28.2104 41.9139 28.4221C41.7275 29.1557 42.3332 29.3207 42.902 29.2025C42.9093 29.2 42.9142 29.2 42.9216 29.2025C42.978 29.2099 43.005 29.2419 43.0025 29.296C43.0025 29.3059 43.0001 29.3133 42.9976 29.3231C42.4852 30.5319 41.1342 31.1719 39.923 31.4157C39.7587 31.4477 39.6042 31.4698 39.4546 31.4797C39.2977 31.4895 39.0623 31.5043 38.751 31.5265C38.317 31.556 37.9198 31.62 37.5544 31.716C37.0469 31.8514 36.2794 32.1739 36.2402 32.7844C36.2181 33.139 36.4805 33.5058 36.7232 33.7396C36.7306 33.747 36.7355 33.7569 36.738 33.7667C36.7993 33.9834 36.2623 33.9563 36.1667 33.9514C35.9656 33.9366 35.7768 33.912 35.6027 33.88C34.9996 33.7643 34.416 33.5944 33.8472 33.3728C33.7932 33.3507 33.6486 33.3187 33.4132 33.2744C31.8219 32.974 30.1473 33.2817 28.6933 34.0055C26.646 35.0247 25.0474 36.7948 24.2481 38.9464C24.2333 38.9883 24.199 39.0203 24.15 39.0449C24.1402 39.0498 24.1304 39.0498 24.123 39.0473C24.0593 39.0301 24.0347 38.9907 24.047 38.9316C24.3241 37.649 24.7875 36.4427 25.4397 35.3177C26.5798 33.3507 28.4457 31.5806 30.7505 31.2015C31.9543 31.0045 33.1582 31.236 34.2003 31.8686C34.2027 31.8711 34.2052 31.8711 34.2076 31.8686C34.2101 31.8662 34.2101 31.8637 34.2076 31.8613C34.1586 31.812 34.0997 31.7653 34.036 31.7185C33.5015 31.332 32.8934 31.0858 32.2142 30.9824C32.1333 30.9701 32.148 30.8667 32.2142 30.8445C33.3593 30.4802 34.1414 30.234 34.5607 30.1035C35.0167 29.9607 35.6444 29.7244 36.1569 29.5915C37.5495 29.232 39.0869 29.1557 40.4697 29.5176C40.4746 29.5176 40.4795 29.5151 40.4795 29.5127C40.4795 29.5078 40.4795 29.5053 40.4746 29.5028C40.3447 29.4339 40.2049 29.3773 40.0578 29.333C39.2683 29.0942 38.4469 29.0425 37.5888 29.0843C37.5078 29.0892 37.4956 28.9858 37.5593 28.9538C37.8315 28.8184 38.084 28.6584 38.3219 28.4713C38.8147 28.0824 39.2462 27.6294 39.6165 27.1124C39.7489 26.9278 39.9254 26.7185 40.1191 26.5609C40.5997 26.1671 41.22 25.8347 41.7937 25.6402C41.8599 25.6181 41.931 25.6033 41.9948 25.5738C41.9948 25.5738 41.9972 25.5738 41.9997 25.5738C41.8771 25.5762 41.7619 25.5885 41.654 25.6107C41.2274 25.6968 40.8252 25.8446 40.4526 26.0612C40.3079 26.1449 40.1657 26.2655 40.0627 26.3295C40.0357 26.3443 40.0014 26.3369 39.9867 26.3098C39.9793 26.3 39.9769 26.2852 39.9793 26.2729C39.9842 26.2458 39.9941 26.2188 40.0137 26.1917C40.1804 25.9627 40.3226 25.7313 40.4378 25.4925C40.8473 24.6481 41.0949 23.7446 41.2519 22.7919C41.3794 22.0213 41.4137 21.2606 41.3598 20.5122C41.3524 20.4088 41.3622 20.271 41.3867 20.1011C41.5191 19.2346 41.9335 18.3705 42.4778 17.6787C42.4803 17.6738 42.4803 17.6688 42.4754 17.6664C42.4656 17.6664 42.4631 17.6664 42.4582 17.6688Z"/>
<path d="M33.7613 11.0318C34.2051 11.2139 34.6243 11.4872 35.024 11.7851C36.0538 12.5556 36.9781 13.4985 37.7873 14.5152C38.1526 14.9731 38.4836 15.4532 38.7803 15.953C38.7974 15.98 38.7974 16.0071 38.7852 16.0367C38.741 16.1351 38.6675 16.0884 38.5964 16.0391C38.0815 15.6772 37.5274 15.4015 36.9316 15.2119C36.63 15.1159 36.321 15.0618 36.0072 15.0495C36.0023 15.0495 35.9998 15.0519 35.9998 15.0569C35.9998 15.0593 36.0023 15.0642 36.0047 15.0642C36.1813 15.1258 36.3137 15.1726 36.397 15.2046C37.4636 15.596 38.388 16.1524 39.1652 16.8786C40.5309 18.1489 41.2984 19.9263 41.2346 21.7998C41.1292 24.8549 39.0623 27.4743 36.576 29.0351C36.5147 29.0745 36.4657 29.1188 36.397 29.0622C36.3431 29.0203 36.3407 28.9736 36.3872 28.9219C36.7697 28.4935 37.0027 27.947 37.1596 27.3906C37.4023 26.5339 37.4808 25.6722 37.3925 24.8057C37.3557 24.4364 37.2773 24.0918 37.1596 23.7717C37.1105 23.6388 37.0517 23.5157 36.9831 23.4074C36.9806 23.4049 36.9757 23.4024 36.9732 23.4049C36.9708 23.4074 36.9683 23.4098 36.9708 23.4123C37.2258 24.2075 37.3165 25.0814 37.189 25.9012C37.0468 26.8244 36.657 27.6516 36.0244 28.3778C34.7298 29.8623 32.7045 30.5861 30.8068 30.8347C30.7209 30.847 30.64 30.8593 30.564 30.8273C30.5346 30.815 30.5199 30.783 30.5321 30.7535C30.5321 30.751 30.5346 30.7485 30.537 30.7436C30.8092 30.298 31.0004 29.8229 31.1157 29.3133C31.1157 29.3133 31.1157 29.3133 31.1157 29.3108L31.1034 29.3034C31.101 29.301 31.0961 29.3034 31.0936 29.3059C31.0936 29.3059 31.0936 29.3059 31.0936 29.3084C31.0127 29.5644 30.8803 29.845 30.694 30.1528C30.5199 30.4359 30.3188 30.6771 30.0859 30.8765C29.9707 30.9726 29.8334 31.0439 29.6813 31.108C29.0071 31.3911 28.3696 31.7899 27.7664 32.3019C26.6287 33.2719 25.7019 34.4905 25.0129 35.815C24.449 36.9006 24.0616 37.9961 23.8532 39.099C23.8508 39.1089 23.8483 39.1163 23.8434 39.1261C23.8189 39.1631 23.7846 39.1754 23.738 39.1581C23.7134 39.1483 23.6963 39.1237 23.6963 39.0966C23.7257 37.5235 23.9562 35.9971 24.3877 34.5201C24.5814 33.8603 24.834 33.1956 25.1404 32.5604C25.496 31.8219 25.952 31.1104 26.5356 30.5417C26.8028 30.2832 27.1118 30.0518 27.4452 29.8967C27.5163 29.8647 27.5776 29.8352 27.6291 29.8081C27.6536 29.7958 27.6806 29.8057 27.6929 29.8278C27.6953 29.8327 27.6978 29.8377 27.6978 29.8426C27.7198 29.9731 27.7198 30.1035 27.8081 30.2266C28.0361 30.5516 28.5461 30.2759 28.7839 30.0888C29.3626 29.6309 29.7451 29.0326 29.9903 28.3286C30.0589 28.1316 30.0957 27.8682 30.1447 27.7008C30.233 27.3857 30.5174 26.6028 30.8705 26.5167C30.9097 26.5068 30.949 26.5265 30.9637 26.5634C31.1696 27.0509 31.5276 27.4374 32.1013 27.3217C32.3073 27.2798 32.5133 27.1838 32.7168 27.0312C33.3322 26.5733 33.7809 25.8618 34.1045 25.1479C34.4576 24.3675 34.6709 23.5477 34.7494 22.6861C34.7592 22.5654 34.7641 22.3882 34.7567 22.1494C34.7445 21.6349 34.7813 21.1228 34.8646 20.6083C34.9014 20.3867 34.9995 19.8845 35.2079 19.7909C35.2324 19.7786 35.2643 19.7885 35.279 19.8106C35.5021 20.1479 35.7252 20.4556 36.0317 20.6994C36.2034 20.8372 36.4608 20.9702 36.6741 20.8766C37.086 20.6994 37.0345 19.7909 36.9855 19.4561C36.8359 18.4714 36.4755 17.5753 35.9042 16.7727C35.7816 16.6004 35.6296 16.4379 35.4482 16.2828C35.3869 16.2311 35.2447 16.1376 35.0215 16.0071C34.4944 15.6945 34.0089 15.3055 33.5676 14.8451C33.4523 14.7245 33.3052 14.5448 33.2292 14.4045C33.1287 14.2174 33.0895 14.1115 33.1238 13.922C33.136 13.8579 33.1753 13.853 33.2317 13.8629C33.6534 13.9343 34.2958 13.8826 34.2173 13.2671C34.2002 13.1317 34.1634 13.0086 34.107 12.8954C33.803 12.2848 33.2635 11.7875 32.6947 11.4084C32.6211 11.3592 32.474 11.2656 32.2534 11.1302C32.17 11.0785 32.0621 10.9899 31.9297 10.8644C31.6674 10.6157 31.4442 10.372 31.2947 10.0593C31.2604 9.98549 31.1868 9.81316 31.2285 9.75408C31.2505 9.72207 31.2922 9.71469 31.3216 9.73685C31.4908 9.85255 31.6723 9.9264 31.866 9.96087C32.1185 10.0052 32.3318 9.89686 32.3637 9.6236C32.4029 9.28141 32.2092 8.89244 32.0106 8.60933C31.9224 8.48131 31.7973 8.3336 31.6355 8.1662C31.6012 8.13173 31.4835 8.03572 31.28 7.87817C31.0103 7.67137 30.7675 7.42027 30.5542 7.12485C30.4512 6.98452 30.3728 6.83681 30.3164 6.67926C30.2821 6.58571 30.2428 6.41584 30.2968 6.32722C30.3139 6.29767 30.3532 6.28783 30.3826 6.30506C30.3948 6.31245 30.4316 6.33706 30.4954 6.38138C30.7111 6.52909 31.0765 6.66202 31.1598 6.27798C31.1819 6.17704 31.1819 6.0638 31.1647 5.93825C31.1451 5.79546 31.101 5.62806 31.0372 5.43604C30.9612 5.20955 30.868 4.96829 30.7553 4.71472C30.5959 4.35283 30.5272 4.17066 30.3924 3.84816C30.1374 3.2327 30.0001 2.53354 29.9584 1.87131C29.9314 1.45034 29.9486 1.00721 30.0761 0.603471C30.108 0.504998 30.2649 0.138185 30.3948 0.162804C30.4316 0.170189 30.4561 0.192346 30.4684 0.231735C30.4708 0.241582 30.4708 0.251429 30.4684 0.261277C30.3703 0.529616 30.3213 0.812726 30.3188 1.11307C30.3164 1.49958 30.3532 1.88608 30.4292 2.27259C30.5419 2.84866 30.6964 3.40995 30.8901 3.95402C31.3462 5.2317 31.9665 6.41338 32.7486 7.50397C32.7756 7.5409 32.7732 7.57782 32.7413 7.61229C32.7168 7.63937 32.6775 7.64676 32.6481 7.62952C32.452 7.51874 32.2239 7.43011 31.9591 7.35872C31.9322 7.35134 31.9076 7.34887 31.8856 7.34887C31.8831 7.34887 31.8807 7.35134 31.8807 7.3538C31.8807 7.35626 31.8807 7.35626 31.8831 7.35872C32.2534 7.54336 32.5795 7.80185 32.908 8.07757C33.1753 8.3016 33.3837 8.5404 33.5676 8.79889C33.6706 8.94414 33.7269 9.02538 33.7368 9.03769C35.0313 10.8053 35.7669 11.8048 35.9385 12.0387C35.9557 12.0608 35.9704 12.0904 35.9827 12.1248C35.9851 12.1347 35.9827 12.147 35.9753 12.1568C35.9165 12.2134 35.8576 12.1987 35.7988 12.147C35.3476 11.7629 34.8278 11.4183 34.3031 11.1942C34.156 11.1302 33.9819 11.0736 33.7809 11.0219C33.7784 11.0219 33.776 11.0219 33.7735 11.0244L33.7711 11.0318C33.7588 11.0293 33.7588 11.0318 33.7613 11.0318Z"/>
<path d="M11.2407 11.022C11.2407 11.0195 11.2382 11.017 11.2358 11.017C11.0347 11.0687 10.8606 11.1254 10.7135 11.1894C10.1888 11.4134 9.66901 11.7556 9.21786 12.1421C9.15902 12.1938 9.10017 12.2086 9.04133 12.1519C9.03397 12.1446 9.02907 12.1323 9.03397 12.1199C9.04623 12.0855 9.06094 12.0559 9.07811 12.0338C9.24974 11.7999 9.98285 10.8004 11.2799 9.03281C11.2897 9.0205 11.3461 8.94173 11.4491 8.79402C11.633 8.53553 11.8414 8.29427 12.1086 8.0727C12.4372 7.79944 12.7608 7.53849 13.1335 7.35385C13.136 7.35139 13.136 7.34892 13.136 7.34646C13.136 7.344 13.1335 7.344 13.1311 7.344C13.109 7.344 13.0845 7.34646 13.0575 7.35385C12.7927 7.42524 12.5647 7.51633 12.3685 7.62465C12.3391 7.64188 12.2999 7.6345 12.2754 7.60742C12.2435 7.57295 12.2435 7.53602 12.268 7.4991C13.0502 6.41097 13.668 5.22683 14.1265 3.9516C14.3202 3.40754 14.4747 2.84871 14.5875 2.27018C14.6635 1.88367 14.7003 1.49716 14.6978 1.11066C14.6954 0.810315 14.6463 0.527204 14.5483 0.258865C14.5458 0.249018 14.5434 0.239171 14.5483 0.229324C14.5581 0.189934 14.5826 0.165316 14.6218 0.160392C14.7518 0.138236 14.9111 0.502586 14.9406 0.601059C15.0681 1.0048 15.0852 1.44793 15.0583 1.8689C15.0141 2.53113 14.8793 3.23029 14.6243 3.84575C14.4894 4.16824 14.4208 4.35042 14.2638 4.71231C14.1511 4.96588 14.0579 5.20714 13.9819 5.43362C13.9157 5.62811 13.874 5.79551 13.8544 5.93584C13.8372 6.06139 13.8372 6.17463 13.8593 6.27557C13.9402 6.65961 14.3055 6.52667 14.5237 6.37897C14.5875 6.33465 14.6243 6.31003 14.6365 6.30265C14.666 6.28542 14.7027 6.2928 14.7223 6.32234C14.7763 6.41097 14.7346 6.58084 14.7027 6.67438C14.6463 6.83194 14.5679 6.97965 14.4649 7.11997C14.2491 7.41293 14.0088 7.66404 13.7391 7.87329C13.5356 8.03085 13.4179 8.12686 13.3836 8.16133C13.2218 8.33119 13.0967 8.4789 13.0085 8.60446C12.8099 8.88757 12.6162 9.27653 12.6554 9.61873C12.6848 9.89199 12.9006 10.0003 13.1531 9.956C13.3468 9.92153 13.5283 9.84768 13.6975 9.73197C13.7293 9.70982 13.771 9.71966 13.7906 9.7492C13.8299 9.80829 13.7588 9.98062 13.7244 10.0545C13.5749 10.3671 13.3542 10.6133 13.0894 10.8595C12.957 10.985 12.8491 11.0737 12.7657 11.1254C12.5451 11.2632 12.398 11.3543 12.3244 11.4036C11.7556 11.7802 11.2161 12.28 10.9121 12.8905C10.8557 13.0037 10.8189 13.1268 10.8018 13.2622C10.7233 13.8777 11.3657 13.9294 11.7874 13.858C11.8438 13.8481 11.8855 13.8531 11.8953 13.9171C11.9297 14.1066 11.8904 14.2125 11.7899 14.3996C11.7139 14.5399 11.5668 14.7196 11.4515 14.8403C11.0102 15.3031 10.5247 15.6896 9.99756 16.0022C9.77444 16.1352 9.63223 16.2263 9.57093 16.278C9.38949 16.4331 9.23748 16.5955 9.11488 16.7679C8.54359 17.5704 8.18317 18.4665 8.03361 19.4513C7.98212 19.7861 7.93062 20.6945 8.34499 20.8717C8.55831 20.9628 8.81576 20.8323 8.98739 20.6945C9.29387 20.4508 9.51699 20.143 9.74012 19.8058C9.75483 19.7811 9.7867 19.7738 9.81122 19.7861C10.0221 19.8821 10.1202 20.3818 10.1545 20.6034C10.2378 21.1179 10.2746 21.63 10.2624 22.1445C10.2575 22.3808 10.2599 22.5605 10.2697 22.6812C10.3482 23.5404 10.5615 24.3626 10.9146 25.143C11.2358 25.8569 11.6845 26.5659 12.3023 27.0263C12.5058 27.1789 12.7118 27.2749 12.9178 27.3168C13.494 27.4325 13.8519 27.046 14.0554 26.5586C14.0701 26.5216 14.1094 26.5019 14.1486 26.5118C14.5017 26.6004 14.7861 27.3808 14.8744 27.6959C14.9209 27.8658 14.9602 28.1292 15.0288 28.3237C15.274 29.0278 15.6565 29.626 16.2352 30.0839C16.4705 30.271 16.9805 30.5467 17.211 30.2217C17.2968 30.0987 17.2993 29.9682 17.3213 29.8377C17.3262 29.8106 17.3508 29.7934 17.3753 29.7983C17.3802 29.7983 17.3851 29.8008 17.39 29.8032C17.4415 29.8303 17.5028 29.8599 17.5739 29.8919C17.9098 30.0445 18.2187 30.2759 18.4835 30.5369C19.0671 31.1055 19.5207 31.817 19.8787 32.5556C20.1851 33.1907 20.4377 33.8554 20.6314 34.5152C21.0629 35.9923 21.2934 37.5186 21.3228 39.0917C21.3228 39.1188 21.3057 39.1434 21.2811 39.1533C21.237 39.1705 21.2002 39.1582 21.1757 39.1213C21.1708 39.1139 21.1659 39.104 21.1659 39.0942C20.9575 37.9913 20.5701 36.8958 20.0062 35.8101C19.3172 34.4856 18.3904 33.267 17.2527 32.2971C16.6495 31.7825 16.012 31.3862 15.3378 31.1031C15.1858 31.0391 15.0484 30.9677 14.9332 30.8717C14.7003 30.6747 14.4992 30.4335 14.3251 30.1479C14.1388 29.8402 14.0039 29.5595 13.9255 29.3035C13.9255 29.2986 13.9206 29.2961 13.9157 29.2986C13.9157 29.2986 13.9157 29.2986 13.9132 29.2986L13.901 29.306C13.901 29.306 13.901 29.306 13.901 29.3084C14.0138 29.818 14.2074 30.2931 14.4796 30.7387C14.4968 30.7658 14.487 30.8003 14.46 30.8175C14.4575 30.82 14.4551 30.82 14.4502 30.8224C14.3717 30.8544 14.2933 30.8421 14.2074 30.8298C12.3097 30.5787 10.2844 29.8574 8.98984 28.3729C8.35725 27.6467 7.9674 26.822 7.82519 25.8963C7.6977 25.0765 7.78596 24.2026 8.04341 23.4074C8.04341 23.4025 8.04341 23.4 8.03851 23.3976C8.03605 23.3976 8.03115 23.3976 8.03115 23.4C7.9625 23.5084 7.90365 23.6314 7.85461 23.7644C7.73692 24.0844 7.65846 24.4291 7.62169 24.7983C7.53587 25.6649 7.61188 26.5265 7.85461 27.3833C8.01154 27.9396 8.24692 28.4862 8.62941 28.9145C8.676 28.9662 8.6711 29.013 8.61961 29.0548C8.5485 29.109 8.50191 29.0647 8.44062 29.0278C5.95686 27.4694 3.88992 24.8476 3.78203 21.7949C3.71583 19.9215 4.48327 18.1465 5.84897 16.8762C6.62622 16.1524 7.55058 15.5936 8.61715 15.2021C8.70297 15.1701 8.83292 15.1234 9.00945 15.0618C9.01436 15.0618 9.01681 15.0569 9.01436 15.052C9.01436 15.0495 9.00945 15.0471 9.007 15.0471C8.69316 15.0594 8.38422 15.1111 8.08264 15.2095C7.48929 15.3991 6.93516 15.6748 6.41781 16.0367C6.34671 16.0859 6.27315 16.1327 6.22902 16.0342C6.21676 16.0047 6.21676 15.9776 6.23392 15.9505C6.5306 15.4508 6.8616 14.9732 7.22693 14.5128C8.03606 13.4961 8.96042 12.5532 9.99021 11.7827C10.3874 11.4848 10.8091 11.2115 11.2529 11.0294C11.2554 11.0294 11.2554 11.0269 11.2554 11.0244L11.2407 11.022ZM8.03851 23.3926V23.3902H8.03606C8.0336 23.3926 8.03115 23.3951 8.03115 23.3976C8.03115 23.3976 8.03115 23.4 8.03361 23.4C8.03606 23.3976 8.03851 23.3976 8.03851 23.3926Z"/>
<path d="M22.5021 7.44238C22.5046 7.44238 22.507 7.44238 22.507 7.44485C22.5512 7.47193 22.5928 7.51378 22.6321 7.56301C22.6517 7.58763 22.7497 7.71072 22.9238 7.92736C22.9336 7.93721 22.9361 7.95198 22.9361 7.96429L22.7277 13.5428C22.7277 13.5674 22.7056 13.5871 22.6811 13.5871C22.6688 13.5871 22.61 13.5871 22.5021 13.5871C22.3942 13.5871 22.3354 13.5871 22.3231 13.5871C22.2986 13.5871 22.2765 13.5674 22.2765 13.5428L22.0657 7.96429C22.0657 7.94952 22.0706 7.93721 22.0779 7.92736C22.252 7.71072 22.3501 7.59009 22.3697 7.56301C22.4114 7.51131 22.4531 7.47193 22.4948 7.44485C22.4972 7.44238 22.4997 7.44238 22.5021 7.44238Z"/>
<path d="M21.8476 13.5969C21.828 13.5969 21.8133 13.5821 21.8108 13.5649L21.0336 8.37292C21.0311 8.35322 21.0336 8.33353 21.0434 8.3163L21.3499 7.78454C21.3671 7.755 21.4038 7.74515 21.4333 7.76239L21.9236 8.0455C21.9482 8.06027 21.9653 8.08735 21.9678 8.11689C22.0193 9.13609 22.1124 10.9381 22.2448 13.528C22.2473 13.5723 22.2277 13.5969 22.1835 13.5969C22.0658 13.5969 21.9555 13.5969 21.8476 13.5969Z"/>
<path d="M23.1545 13.5994C23.049 13.5994 22.9363 13.5994 22.821 13.5994C22.7769 13.5994 22.7573 13.5772 22.7597 13.5304C22.8921 10.9406 22.9853 9.13609 23.0368 8.11689C23.0392 8.08735 23.054 8.06027 23.0809 8.0455L23.5713 7.76239C23.6007 7.74515 23.6375 7.755 23.6547 7.78454L23.9611 8.3163C23.971 8.33353 23.9759 8.35322 23.971 8.37292L23.1937 13.5674C23.1888 13.5846 23.1716 13.5969 23.1545 13.5994Z"/>
<path d="M21.3473 13.6215L20.3175 8.78898C20.3151 8.7816 20.3151 8.77175 20.3175 8.7619L20.4818 8.20799C20.4891 8.18091 20.5186 8.16614 20.5455 8.17353C20.5504 8.17353 20.5529 8.17599 20.5578 8.17845L20.9771 8.42217C20.9918 8.42956 20.9991 8.44433 21.0016 8.4591L21.7396 13.56C21.7445 13.5871 21.7249 13.6142 21.6955 13.6191L21.4037 13.6609C21.3767 13.6659 21.3522 13.6486 21.3473 13.6215Z"/>
<path d="M23.2598 13.5675L24.0003 8.46167C24.0052 8.43705 24.0199 8.41243 24.0419 8.40258L24.4514 8.1884C24.4759 8.1761 24.5053 8.18594 24.5176 8.21056C24.5201 8.21302 24.5201 8.21549 24.5201 8.21795L24.677 8.73739C24.6843 8.76201 24.6843 8.78663 24.6794 8.81125L23.6545 13.6143C23.6496 13.6414 23.6227 13.661 23.5932 13.6561L23.2941 13.6118C23.272 13.6143 23.2573 13.5921 23.2598 13.5675Z"/>
<path d="M21.0041 13.7399C20.9821 13.7448 20.9624 13.7325 20.9575 13.7128L19.6482 9.42673C19.6384 9.39719 19.636 9.36765 19.6409 9.33811L19.7046 8.82358C19.7071 8.79404 19.7341 8.77189 19.7635 8.77681L20.2318 8.83343C20.2342 8.83343 20.2367 8.83589 20.2416 8.83589C20.2588 8.8482 20.271 8.88021 20.2833 8.9319C20.347 9.23225 20.6878 10.798 21.2984 13.6266C21.3033 13.6537 21.2885 13.6783 21.2616 13.6832L21.0041 13.7399Z"/>
<path d="M23.9978 13.7423L23.7428 13.6881C23.7158 13.6832 23.7011 13.6561 23.706 13.6315C24.319 10.8029 24.6573 9.23714 24.7211 8.9368C24.7334 8.8851 24.7456 8.85309 24.7628 8.84079C24.7652 8.83832 24.7677 8.83832 24.7726 8.83832L25.2409 8.7817C25.2703 8.77924 25.2973 8.79893 25.2997 8.82848L25.3635 9.343C25.3684 9.37254 25.3635 9.40208 25.3561 9.43162L24.0468 13.7177C24.0395 13.7349 24.0174 13.7447 23.9978 13.7423Z"/>
<path d="M19.305 10.0889C19.3295 10.084 19.3712 10.0914 19.4301 10.1086C19.511 10.1332 19.6311 10.1677 19.7905 10.2169C19.8126 10.2243 19.8297 10.2391 19.8346 10.2612L20.8963 13.7373C20.9036 13.757 20.8914 13.7792 20.8693 13.7866L20.6536 13.853C20.629 13.8604 20.6021 13.8481 20.5923 13.826L19.1824 10.6797C19.18 10.6724 19.1775 10.6625 19.18 10.6527L19.2805 10.1135C19.2854 10.1012 19.2928 10.0914 19.305 10.0889Z"/>
<path d="M25.7192 10.1109L25.8197 10.65C25.8221 10.6599 25.8197 10.6673 25.8172 10.6771L24.4074 13.8258C24.3976 13.8504 24.3706 13.8603 24.3461 13.8529L24.1304 13.7864C24.1107 13.779 24.0985 13.7593 24.1034 13.7372L25.165 10.2586C25.1724 10.2365 25.1896 10.2192 25.2092 10.2143C25.3686 10.1651 25.4887 10.1306 25.5696 10.106C25.6285 10.0887 25.6701 10.0838 25.6947 10.0863C25.7094 10.0912 25.7192 10.1011 25.7192 10.1109Z"/>
<path d="M20.5457 13.8949L20.4132 13.9884C20.3838 14.0081 20.3446 14.0007 20.325 13.9737L19.1677 12.3119C19.1554 12.2971 19.153 12.275 19.1579 12.2578L19.2535 11.9377C19.2633 11.9057 19.2952 11.8885 19.3271 11.8934L19.6066 11.9451C19.6262 11.95 19.6434 11.9623 19.6507 11.9796L20.5653 13.8136C20.58 13.8432 20.5726 13.8776 20.5457 13.8949Z"/>
<path d="M25.7068 11.8934C25.724 11.891 25.7387 11.9008 25.7436 11.9181L25.8392 12.2603C25.8441 12.2799 25.8416 12.2996 25.8294 12.3169L24.6868 13.9589C24.6623 13.9958 24.6108 14.0057 24.574 13.9811L24.4661 13.9097C24.4343 13.8875 24.422 13.8457 24.4392 13.8087L25.3562 11.9673C25.3635 11.955 25.3758 11.9451 25.3905 11.9427L25.7068 11.8934Z"/>
<path d="M22.5022 13.656C22.5071 13.656 22.5095 13.656 22.5095 13.656C22.7645 13.7914 22.9558 14.1041 23.0416 14.3724C23.0441 14.3798 23.0514 14.3847 23.0588 14.3822C23.0612 14.3822 23.0661 14.3773 23.0661 14.3749C23.1887 14.1041 23.3898 13.912 23.6693 13.7963C23.6987 13.784 23.7306 13.7914 23.7527 13.8136C23.9218 13.981 23.9929 14.2271 24.0469 14.4512C24.0493 14.461 24.0591 14.4659 24.0689 14.4635C24.0714 14.4635 24.0739 14.461 24.0763 14.4586C24.2357 14.3059 24.4196 14.2001 24.628 14.1361C24.7726 14.0917 24.7972 14.1681 24.8094 14.2912C24.8315 14.498 24.8217 14.7072 24.78 14.9189C24.7775 14.9288 24.7702 14.9362 24.7628 14.9411C24.5201 15.0322 24.297 15.1676 24.0861 15.3473C24.0763 15.3547 24.0616 15.3547 24.0542 15.3448C24.0518 15.3424 24.0493 15.3374 24.0493 15.3325C24.0126 15.0716 23.9292 14.7884 23.76 14.5817C23.7502 14.5693 23.7355 14.562 23.7208 14.5644C23.6766 14.5669 23.6301 14.5817 23.581 14.6038C23.3751 14.6974 23.1887 14.8278 23.0195 14.9952C23.0048 15.0075 22.9852 15.0075 22.9705 14.9952C22.9656 14.9903 22.9631 14.9854 22.9631 14.9805C22.8822 14.7244 22.7449 14.5127 22.5488 14.3404C22.5316 14.3256 22.5145 14.3182 22.4997 14.3182C22.485 14.3182 22.4679 14.3256 22.4507 14.3404C22.2546 14.5103 22.1172 14.7244 22.0363 14.9805C22.0314 14.9977 22.0118 15.01 21.9922 15.0026C21.9873 15.0002 21.9824 14.9977 21.9775 14.9952C21.8083 14.8278 21.6195 14.6974 21.416 14.6038C21.367 14.5817 21.3179 14.5669 21.2762 14.5644C21.2615 14.5644 21.2468 14.5693 21.237 14.5817C21.0703 14.7884 20.9845 15.0716 20.9477 15.3325C20.9452 15.3448 20.9354 15.3547 20.9232 15.3522C20.9183 15.3522 20.9158 15.3497 20.9109 15.3473C20.7025 15.1676 20.4769 15.0322 20.2342 14.9411C20.2244 14.9386 20.217 14.9288 20.217 14.9189C20.1754 14.7072 20.168 14.498 20.1876 14.2912C20.1999 14.1656 20.2244 14.0917 20.3691 14.1361C20.5775 14.2001 20.7614 14.3059 20.9207 14.4586C20.9281 14.4659 20.9379 14.4659 20.9452 14.4586C20.9477 14.4561 20.9477 14.4536 20.9502 14.4512C21.0041 14.2271 21.0776 13.981 21.2444 13.8136C21.2664 13.7914 21.2983 13.784 21.3277 13.7963C21.6073 13.9096 21.8083 14.1041 21.9309 14.3749C21.9334 14.3822 21.9432 14.3847 21.9505 14.3822C21.953 14.3798 21.9554 14.3773 21.9579 14.3749C22.0437 14.1065 22.2349 13.7939 22.4899 13.6585C22.4948 13.656 22.4973 13.656 22.5022 13.656Z"/>
<path d="M22.5023 14.5078C22.5145 14.5078 22.5293 14.5177 22.5464 14.5349C22.7181 14.7368 22.8406 14.9657 22.9142 15.2267C22.9191 15.2414 22.9338 15.2488 22.9461 15.2439C22.951 15.2414 22.9559 15.239 22.9583 15.2365C23.1496 15.0248 23.3801 14.8549 23.6473 14.7318C23.6645 14.7245 23.6841 14.7294 23.6964 14.7441C23.8582 14.9608 23.944 15.2661 23.9661 15.527C23.9661 15.5344 23.9734 15.5418 23.9808 15.5393C23.9832 15.5393 23.9857 15.5393 23.9881 15.5369C24.3167 15.303 24.6477 15.0346 25.0645 15.0174C25.0792 15.0174 25.0915 15.0273 25.0915 15.042C25.1209 15.2981 25.0302 15.5762 24.937 15.8274C24.8684 16.0145 24.7703 16.1843 24.6428 16.332C24.6354 16.3419 24.6207 16.3419 24.6109 16.3345C24.606 16.3296 24.6035 16.3222 24.6035 16.3148C24.6305 16.1031 24.6452 15.9086 24.5864 15.6993C24.579 15.6747 24.557 15.6575 24.53 15.655C24.1769 15.6526 23.814 15.8298 23.5394 16.0465C23.5272 16.0563 23.51 16.0538 23.5002 16.0415C23.4953 16.0366 23.4928 16.0292 23.4953 16.0218C23.5174 15.82 23.4781 15.6156 23.3801 15.4088C23.3703 15.3891 23.3506 15.3793 23.331 15.3842C22.9878 15.4581 22.7328 15.6649 22.5194 15.9381C22.517 15.9406 22.5121 15.9431 22.5047 15.9431C22.4974 15.9431 22.4925 15.9406 22.49 15.9381C22.2767 15.6649 22.0217 15.4581 21.6785 15.3842C21.6588 15.3793 21.6368 15.3891 21.6294 15.4088C21.5313 15.6156 21.4921 15.82 21.5142 16.0218C21.5166 16.0366 21.5044 16.0514 21.4897 16.0538C21.4823 16.0538 21.4749 16.0514 21.47 16.0489C21.1979 15.8323 20.8326 15.6575 20.4795 15.6575C20.4525 15.6575 20.4304 15.6747 20.4231 15.7018C20.3642 15.9111 20.379 16.1055 20.4059 16.3173C20.4084 16.3296 20.3986 16.3394 20.3863 16.3419C20.379 16.3419 20.3716 16.3394 20.3667 16.3345C20.2392 16.1843 20.1411 16.0169 20.0725 15.8298C19.9793 15.5762 19.8886 15.3005 19.918 15.0445C19.9204 15.0297 19.9327 15.0199 19.945 15.0199C20.3593 15.0346 20.6928 15.3054 21.0213 15.5393C21.0287 15.5442 21.0361 15.5418 21.041 15.5369C21.0434 15.5344 21.0434 15.5319 21.0434 15.5295C21.0679 15.271 21.1513 14.9657 21.3131 14.7466C21.3254 14.7318 21.345 14.7269 21.3622 14.7343C21.6294 14.8574 21.8574 15.0248 22.0511 15.239C22.0609 15.2488 22.0781 15.2513 22.0879 15.2414C22.0904 15.239 22.0953 15.2341 22.0953 15.2291C22.1688 14.9706 22.2914 14.7392 22.4631 14.5374C22.4729 14.5152 22.4876 14.5078 22.5023 14.5078Z"/>
<path d="M22.5023 16.204C22.5096 16.204 22.5121 16.2015 22.5145 16.199C22.696 15.9307 22.9559 15.6993 23.2697 15.6156C23.2893 15.6107 23.3114 15.623 23.3163 15.6427C23.3776 15.879 23.3482 16.1547 23.2967 16.3935C23.2967 16.3984 23.2992 16.4034 23.3041 16.4058C23.3065 16.4058 23.3114 16.4058 23.3139 16.4034C23.5885 16.1055 24.0028 15.879 24.4148 15.8593C24.4319 15.8593 24.4491 15.8692 24.454 15.8864C24.5226 16.1227 24.4662 16.3984 24.3927 16.6323C24.3902 16.6397 24.3927 16.6471 24.4 16.6471C24.405 16.6496 24.4099 16.6471 24.4123 16.6446C24.6085 16.46 24.8291 16.3172 25.0694 16.2187C25.1945 16.167 25.3195 16.1498 25.447 16.167C25.4593 16.1695 25.4715 16.1793 25.474 16.1917C25.4813 16.2458 25.4813 16.3098 25.4715 16.3837C25.42 16.7825 25.2631 17.1321 24.9983 17.43C24.9762 17.4546 24.9542 17.4718 24.9297 17.4841C24.9174 17.489 24.9027 17.4841 24.8953 17.4718C24.8929 17.4669 24.8929 17.4644 24.8929 17.4595C24.9002 17.3906 24.9027 17.3315 24.9051 17.2847C24.9076 17.1862 24.8659 16.8071 24.7261 16.8096C24.4834 16.8145 24.2799 16.9007 24.1132 17.0705C24.0985 17.0853 24.0764 17.0853 24.0641 17.0705C24.0568 17.0631 24.0543 17.0558 24.0543 17.0459C24.0494 16.9204 23.9808 16.5511 23.8091 16.5535C23.5394 16.5585 23.2526 16.7554 23.0907 16.9671C23.0809 16.9819 23.0589 16.9844 23.0466 16.9721C23.0417 16.9696 23.0393 16.9647 23.0368 16.9622C22.924 16.7456 22.772 16.5634 22.5783 16.4206C22.5489 16.3984 22.5219 16.3861 22.5047 16.3861C22.4851 16.3861 22.4606 16.3984 22.4312 16.4206C22.2375 16.5659 22.083 16.7456 21.9727 16.9622C21.9653 16.977 21.9457 16.9844 21.931 16.977C21.9261 16.9745 21.9236 16.9721 21.9212 16.9671C21.7569 16.7554 21.47 16.5585 21.2028 16.5535C21.0336 16.5511 20.9625 16.9204 20.9576 17.0459C20.9576 17.0656 20.9404 17.0804 20.9208 17.0804C20.911 17.0804 20.9037 17.0754 20.8963 17.0705C20.7296 16.9007 20.5236 16.8145 20.2833 16.8096C20.1436 16.8071 20.0994 17.1838 20.1043 17.2847C20.1068 17.3339 20.1092 17.3906 20.1166 17.4595C20.1166 17.4743 20.1068 17.4866 20.0945 17.4866C20.0896 17.4866 20.0847 17.4866 20.0823 17.4841C20.0578 17.4743 20.0357 17.4546 20.0136 17.43C19.7488 17.1321 19.5919 16.785 19.5404 16.3837C19.5306 16.3098 19.5306 16.2458 19.538 16.1917C19.5404 16.1793 19.5502 16.167 19.5649 16.167C19.6924 16.1498 19.8199 16.1695 19.9425 16.2187C20.1853 16.3172 20.4035 16.46 20.5996 16.6446C20.6045 16.6496 20.6119 16.6496 20.6168 16.6446C20.6192 16.6422 20.6217 16.6372 20.6192 16.6323C20.5457 16.3984 20.4893 16.1227 20.5579 15.8864C20.5628 15.8692 20.5776 15.8593 20.5972 15.8593C21.0115 15.879 21.4235 16.108 21.6981 16.4034C21.703 16.4083 21.7079 16.4083 21.7128 16.4034C21.7152 16.4009 21.7152 16.3984 21.7152 16.3935C21.6637 16.1523 21.6343 15.879 21.6956 15.6427C21.7005 15.623 21.7226 15.6107 21.7422 15.6156C22.056 15.7018 22.3159 15.9307 22.4974 16.199C22.49 16.204 22.4949 16.204 22.5023 16.204Z"/>
<path d="M22.5023 16.6104C22.696 16.6104 22.9069 17.1815 22.9485 17.3341C22.951 17.3415 22.9583 17.344 22.9657 17.344C22.9682 17.344 22.9706 17.3415 22.9731 17.3391C23.1496 17.0806 23.4487 16.8147 23.765 16.763C23.792 16.7581 23.8165 16.7704 23.8312 16.795C23.9244 16.9599 23.8753 17.2898 23.8239 17.472C23.8214 17.4794 23.8263 17.4868 23.8337 17.4892C23.8386 17.4917 23.8435 17.4892 23.8459 17.4843C24.047 17.2529 24.2995 17.0929 24.5987 17.0018C24.6305 16.9919 24.6624 17.0067 24.6771 17.0362C24.7875 17.2775 24.7311 17.5926 24.6452 17.824C24.6428 17.829 24.6452 17.8363 24.6526 17.8388C24.6575 17.8413 24.6624 17.8388 24.6649 17.8363C24.888 17.6049 25.3563 17.2972 25.6971 17.376C25.7143 17.3809 25.7265 17.3932 25.729 17.4104C25.7388 17.4818 25.7388 17.5409 25.729 17.5926C25.6554 17.9791 25.4715 18.4223 25.1699 18.7054C25.1626 18.7128 25.1503 18.7128 25.143 18.7029C25.1381 18.698 25.1356 18.6906 25.1381 18.6857C25.192 18.4887 25.2484 18.2475 25.2067 18.053C25.2043 18.0407 25.192 18.0308 25.1798 18.0284C25.1381 18.0259 25.0915 18.0284 25.0375 18.0382C24.8316 18.0776 24.633 18.1613 24.4466 18.2869C24.427 18.3016 24.3976 18.2942 24.3853 18.2745C24.3829 18.2721 24.3829 18.2696 24.3804 18.2672C24.378 18.2622 24.378 18.2475 24.3804 18.2253C24.3951 18.0604 24.3706 17.9053 24.302 17.7649C24.2922 17.7428 24.2677 17.7329 24.2456 17.7379C23.9979 17.7945 23.7846 17.92 23.6032 18.1145C23.5885 18.1293 23.5738 18.1416 23.5591 18.149C23.5468 18.1564 23.5296 18.149 23.5223 18.1367C23.5198 18.1342 23.5198 18.1318 23.5198 18.1293C23.4929 17.9028 23.4585 17.6985 23.3286 17.5212C23.309 17.4966 23.2771 17.4818 23.2452 17.4892C23.1937 17.4991 23.1349 17.5212 23.0736 17.5582C22.8235 17.7034 22.6494 17.952 22.5366 18.2253C22.5268 18.2475 22.517 18.2598 22.5072 18.2598C22.4949 18.2598 22.4851 18.2475 22.4778 18.2253C22.365 17.952 22.1909 17.7034 21.9408 17.5582C21.8795 17.5237 21.8231 17.4991 21.7692 17.4892C21.7373 17.4843 21.7054 17.4966 21.6858 17.5212C21.5534 17.6985 21.5215 17.9028 21.4946 18.1293C21.4921 18.1441 21.4799 18.1539 21.4651 18.1515C21.4627 18.1515 21.4602 18.1515 21.4578 18.149C21.4431 18.1416 21.4284 18.1293 21.4137 18.1145C21.2322 17.9176 21.0189 17.792 20.7713 17.7379C20.7492 17.7329 20.7247 17.7453 20.7149 17.7649C20.6462 17.9053 20.6192 18.0604 20.6364 18.2253C20.6389 18.2475 20.6389 18.2622 20.6364 18.2672C20.6266 18.2893 20.5996 18.2992 20.5776 18.2893C20.5751 18.2893 20.5727 18.2869 20.5702 18.2844C20.3839 18.1564 20.1877 18.0751 19.9793 18.0357C19.9254 18.0259 19.8788 18.0234 19.8371 18.0259C19.8224 18.0259 19.8126 18.0357 19.8101 18.0505C19.7684 18.245 19.8273 18.4887 19.8788 18.6832C19.8812 18.6931 19.8739 18.7054 19.8641 18.7078C19.8567 18.7103 19.8518 18.7078 19.8469 18.7029C19.5429 18.4198 19.359 17.9767 19.2879 17.5902C19.2781 17.5385 19.2781 17.4769 19.2879 17.408C19.2903 17.3907 19.3026 17.3784 19.3197 17.3735C19.6581 17.2947 20.1264 17.6025 20.352 17.8339C20.3569 17.8388 20.3643 17.8388 20.3692 17.8339C20.3716 17.8314 20.3741 17.8265 20.3716 17.8216C20.2858 17.5877 20.2294 17.2726 20.3397 17.0338C20.3544 17.0042 20.3863 16.9895 20.4182 16.9993C20.7173 17.0904 20.9674 17.2504 21.1709 17.4818C21.1758 17.4868 21.1832 17.4868 21.1905 17.4818C21.193 17.4794 21.1954 17.4745 21.1954 17.4695C21.1464 17.2874 21.0949 16.9575 21.1881 16.7925C21.2003 16.7679 21.2273 16.7556 21.2543 16.7605C21.5706 16.8098 21.8722 17.0781 22.0462 17.3366C22.0511 17.3415 22.0585 17.344 22.0634 17.3391C22.0659 17.3366 22.0683 17.3341 22.0683 17.3317C22.0977 17.1815 22.3061 16.6104 22.5023 16.6104Z"/>
<path d="M18.9127 26.3198C19.3026 26.4158 19.6458 26.6053 19.9376 26.886C20.5113 27.435 20.8423 28.2277 20.9306 29.013C20.9331 29.0426 20.9134 29.0721 20.884 29.0746C20.8791 29.0746 20.8742 29.0746 20.8718 29.0746C20.857 29.0721 20.8423 29.0623 20.8276 29.0401C20.6903 28.8628 20.5236 28.7398 20.3225 28.6708C20.2956 28.661 20.271 28.6585 20.249 28.6585C20.2465 28.6585 20.2441 28.661 20.2441 28.6659C20.2441 28.6684 20.2441 28.6684 20.2465 28.6708C20.9944 29.0672 21.2346 29.9362 21.0802 30.7289C21.0777 30.7486 21.063 30.7634 21.0434 30.7658C20.9625 30.7855 20.9404 30.7437 20.9355 30.6624C20.8914 29.8771 20.1534 29.4389 19.4693 29.2863C19.2878 29.2444 19.1628 29.2149 19.0966 29.1927C18.6356 29.0376 18.0594 28.5797 17.932 28.0701C17.9148 27.9987 17.9123 27.9298 17.9295 27.8609C17.9369 27.8338 17.9638 27.8166 17.9932 27.824C18.0031 27.8264 18.0104 27.8313 18.0178 27.8363C18.1796 27.9914 18.3169 28.1071 18.5425 28.1637C18.7166 28.208 18.9372 28.1858 19.0598 28.0431C19.2241 27.851 19.1579 27.5802 19.023 27.3931C18.8686 27.1765 18.6626 27.046 18.4027 26.9968C18.2409 26.9672 17.9663 26.9992 17.7848 26.9746C17.2994 26.9131 16.7305 26.6866 16.581 26.1745C16.5712 26.145 16.5834 26.113 16.6104 26.0982C16.6177 26.0933 16.6275 26.0933 16.6423 26.0933C16.657 26.0933 16.6668 26.0957 16.6741 26.0982C16.7845 26.1351 16.8874 26.1573 16.9831 26.1696C17.3018 26.2065 17.6696 26.1081 17.7799 25.7782C17.8854 25.4581 17.699 25.1061 17.4759 24.8722C17.2332 24.6187 16.9414 24.466 16.5981 24.4168C16.5834 24.4143 16.5393 24.4069 16.4682 24.3922C15.919 24.2888 15.4163 24.0894 14.9529 23.7939C14.7813 23.6832 14.6317 23.5502 14.5091 23.3951C14.4723 23.3508 14.3792 23.1711 14.5287 23.1686C14.5361 23.1686 14.5434 23.1686 14.5508 23.1711C14.7102 23.2326 14.8646 23.2474 15.0167 23.2228C15.2226 23.1859 15.3869 23.0357 15.4065 22.824C15.4359 22.5236 15.2569 22.2381 15.024 22.0584C14.541 21.6842 14.08 21.2755 13.6338 20.8545C13.1361 20.3843 12.6678 19.8772 12.2289 19.3306C11.8684 18.8801 10.949 17.6197 11.4246 17.0387C11.4835 16.9673 11.562 16.9279 11.6453 16.8787C11.6527 16.8737 11.66 16.8713 11.6698 16.8688C11.7238 16.8614 11.7532 16.8836 11.7581 16.9328C11.7581 16.9427 11.7581 16.9525 11.7557 16.9624C11.5203 17.6517 11.9886 18.4493 12.4054 18.9761C13.2636 20.0569 14.4552 20.8865 15.6738 21.5044C15.9018 21.6201 16.147 21.7531 16.3014 21.8639C17.0002 22.3685 17.6255 22.9618 18.1771 23.6462C18.1992 23.6733 18.2066 23.6979 18.2017 23.7201C18.1968 23.7472 18.1698 23.7644 18.1404 23.757C18.1355 23.757 18.1306 23.7546 18.1256 23.7521C17.8633 23.6068 17.5911 23.5108 17.3116 23.4641C17.1473 23.437 16.9806 23.4222 16.8409 23.4542C17.2135 23.4837 17.5642 23.5921 17.8927 23.7792C18.9421 24.3725 19.6556 25.4951 20.0528 26.6152C20.0651 26.6521 20.0675 26.6841 20.0553 26.7087C20.043 26.7383 20.0087 26.7506 19.9793 26.7383C19.9768 26.7358 19.9719 26.7358 19.9695 26.7334C19.6507 26.5118 19.2976 26.3739 18.9127 26.3148C18.9103 26.3148 18.9103 26.3148 18.9078 26.3173C18.9103 26.3173 18.9103 26.3198 18.9127 26.3198Z"/>
<path d="M26.0892 26.3198C26.0916 26.3198 26.0917 26.3173 26.0917 26.3149C26.0917 26.3124 26.0892 26.3124 26.0867 26.3124C25.7018 26.3715 25.3512 26.5118 25.03 26.7309C25.003 26.7482 24.9662 26.7432 24.9491 26.7161C24.9466 26.7137 24.9442 26.7088 24.9442 26.7063C24.9344 26.6817 24.9344 26.6497 24.9466 26.6128C25.3438 25.4926 26.0573 24.37 27.1067 23.7767C27.4353 23.5896 27.7859 23.4813 28.1586 23.4518C28.0188 23.4198 27.8521 23.4321 27.6878 23.4616C27.4083 23.5084 27.1362 23.6044 26.8738 23.7496C26.8493 23.7644 26.8174 23.7546 26.8052 23.7324C26.8027 23.7275 26.8002 23.7226 26.8002 23.7176C26.7953 23.6955 26.8027 23.6709 26.8248 23.6438C27.3764 22.9594 28.0017 22.3661 28.7005 21.8614C28.8549 21.7506 29.0977 21.6177 29.3281 21.502C30.5443 20.8816 31.7383 20.0544 32.5965 18.9737C33.0133 18.4493 33.4816 17.6492 33.2462 16.9599C33.2438 16.9501 33.2413 16.9402 33.2438 16.9304C33.2487 16.8811 33.2781 16.859 33.3321 16.8664C33.3419 16.8664 33.3492 16.8713 33.3566 16.8762C33.4399 16.9255 33.5184 16.9673 33.5773 17.0362C34.0529 17.6172 33.1335 18.8777 32.773 19.3282C32.3366 19.8747 31.8683 20.3819 31.3681 20.8521C30.9219 21.273 30.4609 21.6817 29.9779 22.0559C29.745 22.2356 29.566 22.5212 29.5954 22.8215C29.6175 23.0333 29.7793 23.1834 29.9852 23.2204C30.1373 23.2474 30.2917 23.2302 30.4511 23.1687C30.4585 23.1662 30.4658 23.1637 30.4732 23.1662C30.6227 23.1687 30.5296 23.3484 30.4928 23.3927C30.3702 23.5478 30.2231 23.6783 30.049 23.7915C29.588 24.0894 29.0829 24.2888 28.5337 24.3897C28.4626 24.402 28.4209 24.4119 28.4038 24.4143C28.0605 24.466 27.7687 24.6162 27.526 24.8698C27.3029 25.1037 27.1165 25.4557 27.222 25.7757C27.3298 26.1056 27.6976 26.2041 28.0188 26.1672C28.1145 26.1548 28.2174 26.1327 28.3278 26.0958C28.3351 26.0933 28.3474 26.0933 28.3596 26.0908C28.3719 26.0908 28.3842 26.0933 28.3915 26.0958C28.4185 26.1105 28.4307 26.1425 28.4209 26.1721C28.2689 26.6817 27.7025 26.9106 27.2171 26.9722C27.0356 26.9943 26.761 26.9623 26.5992 26.9943C26.3393 27.0436 26.1333 27.1765 25.9789 27.3907C25.844 27.5778 25.7803 27.8486 25.9421 28.0406C26.0647 28.1834 26.2853 28.2056 26.4594 28.1612C26.6826 28.1046 26.8223 27.9889 26.9841 27.8338C27.0062 27.8141 27.0381 27.8141 27.0577 27.8338C27.065 27.8412 27.0675 27.8486 27.07 27.8584C27.0871 27.9249 27.0871 27.9938 27.0675 28.0677C26.94 28.5773 26.3638 29.0352 25.9029 29.1903C25.8367 29.2124 25.7116 29.2444 25.5302 29.2838C24.8461 29.4365 24.1056 29.8747 24.0639 30.66C24.059 30.7412 24.037 30.7831 23.9561 30.7634C23.9389 30.7585 23.9242 30.7437 23.9193 30.7265C23.7648 29.9338 24.0051 29.0647 24.7529 28.6684C24.7554 28.6659 24.7554 28.6635 24.7554 28.661C24.7554 28.6585 24.7529 28.6585 24.7505 28.6585C24.7284 28.6561 24.7039 28.661 24.6769 28.6708C24.4759 28.7398 24.3067 28.8629 24.1718 29.0401C24.1571 29.0598 24.1424 29.0721 24.1277 29.0746C24.0983 29.0795 24.0713 29.0573 24.0688 29.0278C24.0688 29.0229 24.0688 29.018 24.0688 29.013C24.1571 28.2277 24.4857 27.4375 25.0619 26.886C25.3561 26.6054 25.6993 26.4158 26.0892 26.3198Z"/>
<path d="M20.5579 26.4476C20.5015 26.6077 20.4843 26.8046 20.4696 26.972C20.4671 26.9991 20.4426 27.0188 20.4157 27.0163C20.4132 27.0163 20.4083 27.0163 20.4058 27.0139C20.3666 27.0016 20.3396 26.9745 20.3249 26.9326C20.1484 26.3738 19.8959 25.8519 19.582 25.3546C19.2804 24.877 19.1946 24.3625 19.1897 23.8307C19.1897 23.8283 19.1873 23.8258 19.1848 23.8258C19.1824 23.8258 19.1799 23.8283 19.1799 23.8307C19.1407 24.0646 19.1431 24.3009 19.1873 24.5447C19.1922 24.5767 19.175 24.6062 19.1456 24.6111C19.1456 24.6111 19.1456 24.6111 19.1431 24.6111C19.1014 24.6185 19.0451 24.552 19.0181 24.52C18.8832 24.3502 18.5253 23.8947 17.9417 23.1513C17.8657 23.0528 17.7627 22.9322 17.6328 22.7869C17.493 22.6294 17.3925 22.5063 17.3312 22.4176C17.0811 22.0557 16.9291 21.6594 16.8727 21.2286C16.8727 21.2261 16.8702 21.2237 16.8702 21.2237L16.8653 21.2261C16.8653 21.2286 16.8629 21.2335 16.8629 21.236C16.8506 21.4624 16.8825 21.6914 16.956 21.9228C16.9953 22.0484 17.0443 22.1764 17.0345 22.1985C17.0247 22.2207 16.9977 22.2305 16.9757 22.2207C16.9708 22.2182 16.9683 22.2158 16.9634 22.2133C16.755 22.0213 16.5294 21.8391 16.2867 21.6668C16.1739 21.5855 16.0096 21.492 15.7963 21.3812C14.8499 20.8962 13.9133 20.2685 13.1066 19.5348C12.805 19.2616 12.5353 18.9686 12.295 18.651C12.0057 18.2719 11.7458 17.8017 11.7384 17.3217C11.736 17.206 11.763 17.0779 11.8169 16.9327C11.8218 16.9204 11.8292 16.9105 11.839 16.9056C11.9468 16.8342 11.9714 16.9721 11.9763 17.0533C11.9763 17.0656 11.9787 17.0779 11.9812 17.0902C12.1087 17.686 12.4863 18.2448 12.8884 18.688C13.4621 19.3207 14.1462 19.8549 14.9259 20.1823C15.4187 20.3891 16.4583 20.6279 16.4975 19.7663C16.5 19.7047 16.5343 19.6727 16.5981 19.6702C16.8236 19.6678 17.0247 19.8549 17.1596 20.0272C17.4342 20.3743 17.6377 20.7879 17.7799 21.2187C17.8829 21.5363 18.0398 21.817 18.2604 22.0582C18.3953 22.2059 18.5351 22.3093 18.6773 22.3684C18.9813 22.4964 19.126 22.2552 19.0916 21.9893C19.0867 21.9548 19.1113 21.9253 19.1431 21.9203C19.1505 21.9203 19.1554 21.9203 19.1627 21.9203C19.2633 21.94 19.381 22.0951 19.4423 22.1838C19.6997 22.5678 19.8959 23.0774 20.0086 23.5452C20.0601 23.7618 20.0871 23.9267 20.0822 24.0351C20.0773 24.2418 20.0724 24.3723 20.0699 24.4216C20.0601 24.5939 20.0994 24.7391 20.1852 24.8573C20.3495 25.0813 20.5922 25.0715 20.7172 24.813C20.7883 24.6653 20.7859 24.5028 20.7516 24.3403C20.7467 24.3108 20.7638 24.2812 20.7932 24.2763C20.8153 24.2714 20.8374 24.2788 20.8619 24.2985C21.519 24.8278 21.5975 25.9824 21.4626 26.7431C21.443 26.8514 21.4356 26.9499 21.4381 27.0409C21.4479 27.3585 21.492 27.6589 21.5754 27.942C21.622 28.102 21.6637 28.2522 21.7004 28.39C21.7519 28.5944 21.7715 28.8725 21.7544 29.2295C21.7397 29.5619 21.6784 29.8819 21.5729 30.1921C21.5067 30.3841 21.4356 30.5367 21.3572 30.6451C21.34 30.6672 21.3204 30.6771 21.291 30.6721C21.2542 30.6648 21.2297 30.6327 21.2346 30.5983C21.2567 30.4826 21.264 30.3521 21.2542 30.2069C21.2101 29.5717 21.0875 28.9316 20.8864 28.2866C20.8447 28.1562 20.7834 27.9986 20.705 27.8164C20.6094 27.5998 20.553 27.3634 20.5333 27.1074C20.5284 26.9031 20.5333 26.684 20.5579 26.4476C20.5628 26.4476 20.5603 26.4476 20.5579 26.4476C20.5603 26.4476 20.5603 26.4476 20.5579 26.4476Z"/>
<path d="M24.444 26.4477C24.4416 26.4453 24.444 26.4453 24.444 26.4477C24.4416 26.4453 24.4416 26.4477 24.444 26.4477C24.4686 26.6841 24.4759 26.9032 24.4612 27.1075C24.4416 27.3635 24.3852 27.5999 24.2896 27.8165C24.2087 27.9987 24.1474 28.1562 24.1081 28.2867C23.9046 28.9293 23.782 29.5693 23.7403 30.2045C23.7305 30.3497 23.7379 30.4802 23.76 30.5959C23.7673 30.6304 23.7428 30.6624 23.706 30.6698C23.679 30.6747 23.657 30.6648 23.6398 30.6427C23.5614 30.5319 23.4902 30.3817 23.424 30.1897C23.3186 29.8795 23.2573 29.5595 23.2426 29.2271C23.2279 28.8702 23.2451 28.5895 23.2966 28.3877C23.3333 28.2498 23.3726 28.0996 23.4216 27.9396C23.505 27.6565 23.5491 27.3561 23.5589 27.0386C23.5614 26.9475 23.554 26.849 23.5344 26.7407C23.3995 25.98 23.478 24.8254 24.1351 24.2961C24.1596 24.2764 24.1817 24.269 24.2037 24.2739C24.2332 24.2813 24.2528 24.3084 24.2454 24.3379C24.2136 24.5004 24.2086 24.6629 24.2798 24.8106C24.4023 25.0716 24.6475 25.079 24.8118 24.8549C24.8976 24.7368 24.9369 24.5915 24.9271 24.4192C24.9246 24.37 24.9197 24.2395 24.9148 24.0327C24.9123 23.9244 24.9369 23.7594 24.9884 23.5428C25.1011 23.0775 25.2973 22.5679 25.5547 22.1814C25.6136 22.0928 25.7337 21.9377 25.8343 21.918C25.8661 21.9106 25.898 21.9327 25.9054 21.9647C25.9078 21.9721 25.9078 21.9771 25.9054 21.9844C25.871 22.2503 26.0157 22.4916 26.3197 22.3636C26.4619 22.3045 26.6017 22.2011 26.7365 22.0534C26.9572 21.8121 27.1117 21.5315 27.2171 21.2139C27.3593 20.7831 27.5628 20.3695 27.8374 20.0224C27.9747 19.85 28.1734 19.6629 28.3989 19.6654C28.4627 19.6654 28.4945 19.6974 28.4995 19.7614C28.5387 20.6255 29.5783 20.3867 30.0711 20.1775C30.8484 19.85 31.5349 19.3158 32.1062 18.6831C32.5083 18.24 32.8883 17.6787 33.0134 17.0854C33.0158 17.0731 33.0183 17.0608 33.0183 17.0485C33.0232 16.9672 33.0477 16.8318 33.1556 16.9008C33.1654 16.9082 33.1727 16.918 33.1776 16.9279C33.2316 17.0731 33.2586 17.2036 33.2561 17.3168C33.2488 17.7969 32.9889 18.2671 32.6995 18.6462C32.4592 18.9613 32.1871 19.2567 31.888 19.5275C31.0813 20.2587 30.1447 20.8865 29.1982 21.3714C28.9849 21.4798 28.8207 21.5758 28.7079 21.657C28.4651 21.8293 28.2396 22.0115 28.0311 22.2035C28.014 22.2208 27.9846 22.2183 27.9674 22.2011C27.9649 22.1986 27.9625 22.1937 27.96 22.1888C27.9502 22.1666 27.9993 22.0411 28.0385 21.9131C28.1121 21.6816 28.1415 21.4527 28.1317 21.2262C28.1317 21.2213 28.1317 21.2188 28.1292 21.2164C28.1292 21.2139 28.1268 21.2114 28.1243 21.2139C28.1219 21.2164 28.1194 21.2164 28.1219 21.2188C28.0655 21.6496 27.911 22.046 27.6634 22.4079C27.6021 22.4965 27.5015 22.6196 27.3618 22.7772C27.2343 22.9224 27.1313 23.0455 27.0528 23.1415C26.4693 23.885 26.1089 24.3404 25.9765 24.5103C25.9519 24.5423 25.8931 24.6088 25.8514 24.6014C25.822 24.5964 25.8048 24.5669 25.8097 24.5374V24.5349C25.8563 24.2912 25.8588 24.0548 25.8171 23.821C25.8171 23.8185 25.8146 23.816 25.8122 23.816C25.8097 23.816 25.8073 23.8185 25.8073 23.821C25.8024 24.3527 25.7166 24.8672 25.415 25.3424C25.1011 25.8372 24.8486 26.3616 24.6721 26.9204C24.6598 26.9623 24.6328 26.9893 24.5911 27.0016C24.5642 27.009 24.5372 26.9943 24.5299 26.9672C24.5299 26.9647 24.5274 26.9598 24.5274 26.9573C24.5176 26.8047 24.5004 26.6078 24.444 26.4477Z"/>
<path d="M22.5024 18.5821C22.5097 18.5821 22.5171 18.5747 22.522 18.56C22.6372 18.2473 22.8751 17.7968 23.1791 17.6762C23.2012 17.6688 23.2232 17.6737 23.2404 17.6909C23.2625 17.718 23.2796 17.755 23.2919 17.8017C23.3458 18.0331 23.3654 18.2695 23.3556 18.5083C23.3556 18.5157 23.3605 18.523 23.3703 18.5255C23.3752 18.5255 23.3802 18.523 23.3826 18.5206C23.5812 18.2916 23.8509 18.0356 24.1329 17.9297C24.15 17.9224 24.1721 17.9322 24.177 17.9519C24.177 17.9544 24.177 17.9544 24.177 17.9568C24.1966 18.0381 24.2015 18.1267 24.1942 18.2227C24.1819 18.3606 24.1525 18.5378 24.1059 18.6954C24.1035 18.7003 24.1084 18.7077 24.1133 18.7077C24.1157 18.7077 24.1206 18.7077 24.1231 18.7052C24.3143 18.5255 24.79 18.1168 25.0548 18.1612C25.0744 18.1636 25.0867 18.1808 25.0867 18.2005C25.067 18.491 24.9567 18.7545 24.8145 19.0179C24.8121 19.0228 24.8145 19.0302 24.8194 19.0326C24.8219 19.0351 24.8268 19.0351 24.8317 19.0326C24.9346 18.9489 25.0376 18.8775 25.1406 18.8135C25.322 18.7052 25.653 18.555 25.8517 18.656C25.8737 18.6683 25.8811 18.6929 25.8713 18.7151C25.8713 18.7151 25.8713 18.7175 25.8688 18.7175C25.6114 19.1311 25.1676 19.4068 24.7115 19.5521C24.6895 19.5595 24.6649 19.5595 24.6453 19.5496C24.4933 19.4905 24.3315 19.4708 24.1574 19.4905C24.1451 19.4905 24.1353 19.4832 24.1353 19.4708C24.1353 19.4659 24.1353 19.461 24.1402 19.4561C24.2212 19.3551 24.2702 19.2394 24.2898 19.1016C24.2923 19.0794 24.28 19.0573 24.2604 19.0474C24.2408 19.0376 24.2113 19.0326 24.1746 19.0326C23.8975 19.0228 23.6229 19.1459 23.3826 19.2936C23.3654 19.3034 23.3458 19.2985 23.336 19.2813C23.3336 19.2764 23.3311 19.2714 23.3311 19.2665C23.3066 19.0179 23.2061 18.7495 23.0222 18.5698C23.0099 18.5575 22.9903 18.555 22.9756 18.56C22.7525 18.6535 22.5882 18.9268 22.5343 19.1508C22.5293 19.173 22.5195 19.1853 22.5024 19.1853C22.4877 19.1853 22.4779 19.173 22.473 19.1508C22.419 18.9268 22.2572 18.6535 22.0316 18.56C22.0169 18.5526 21.9973 18.5575 21.985 18.5698C21.8036 18.7471 21.7031 19.0154 21.6785 19.2665C21.6761 19.2862 21.6589 19.2985 21.6418 19.2985C21.6369 19.2985 21.632 19.2961 21.6271 19.2936C21.3868 19.1459 21.1146 19.0253 20.8351 19.0326C20.7983 19.0326 20.7689 19.04 20.7493 19.0474C20.7297 19.0573 20.7174 19.0794 20.7199 19.1016C20.7395 19.237 20.7885 19.3551 20.8694 19.4561C20.8768 19.4659 20.8743 19.4782 20.867 19.4856C20.8621 19.4881 20.8572 19.4905 20.8523 19.4905C20.6782 19.4708 20.5139 19.4905 20.3643 19.5496C20.3423 19.557 20.3202 19.5595 20.2981 19.5521C19.8421 19.4044 19.3983 19.1287 19.1408 18.7175C19.1286 18.6954 19.1335 18.6683 19.1556 18.656L19.158 18.6535C19.3542 18.5526 19.6876 18.7028 19.8691 18.8111C19.972 18.8726 20.075 18.9465 20.178 19.0302C20.1829 19.0326 20.1903 19.0326 20.1927 19.0277C20.1952 19.0253 20.1952 19.0203 20.1927 19.0154C20.0505 18.752 19.9402 18.4886 19.9205 18.1981C19.9181 18.1784 19.9328 18.1612 19.9524 18.1587C20.2172 18.1119 20.6929 18.5206 20.8841 18.7028C20.889 18.7077 20.8964 18.7077 20.8988 18.7028C20.9013 18.7003 20.9013 18.6954 20.9013 18.6929C20.8547 18.5378 20.8253 18.3581 20.813 18.2202C20.8057 18.1242 20.8106 18.0356 20.8302 17.9544C20.8351 17.9347 20.8547 17.9224 20.8719 17.9273C20.8743 17.9273 20.8743 17.9273 20.8768 17.9273C21.1587 18.0331 21.4309 18.2892 21.6271 18.5181C21.632 18.5255 21.6418 18.5255 21.6491 18.5206C21.6516 18.5181 21.654 18.5132 21.654 18.5083C21.6442 18.2695 21.6638 18.0331 21.7178 17.8017C21.7276 17.7525 21.7447 17.7156 21.7693 17.6909C21.784 17.6737 21.8085 17.6688 21.8306 17.6762C22.137 17.7993 22.3749 18.2473 22.4877 18.56C22.4877 18.5747 22.4926 18.5821 22.5024 18.5821Z"/>
<path d="M22.5021 19.4168C22.507 19.4168 22.5119 19.4118 22.5144 19.402C22.5855 19.1509 22.713 18.8136 22.9606 18.7028C22.9876 18.6905 23.017 18.7004 23.0342 18.725C23.1813 18.9589 23.245 19.2075 23.2279 19.4734C23.2279 19.4808 23.2328 19.4857 23.2401 19.4882C23.2426 19.4882 23.245 19.4882 23.2475 19.4857C23.4829 19.3306 23.8654 19.141 24.1522 19.1607C24.1694 19.1607 24.1841 19.178 24.1817 19.1952C24.1817 19.2001 24.1817 19.2026 24.1792 19.205C24.113 19.3577 24.0174 19.4857 23.8874 19.5866C23.8825 19.5915 23.8825 19.5989 23.885 19.6039C23.8874 19.6063 23.8923 19.6088 23.8972 19.6088C24.2895 19.5423 24.6598 19.5989 25.0104 19.7811C25.0276 19.791 25.0349 19.8107 25.0251 19.8279C25.0227 19.8328 25.0178 19.8402 25.0104 19.8427C24.8363 19.9461 24.6475 20.0051 24.4416 20.0199C23.7918 20.0667 23.1151 19.8919 22.5217 19.6383C22.5193 19.6383 22.5119 19.6359 22.4997 19.6359C22.4874 19.6359 22.4801 19.6359 22.4776 19.6383C21.8818 19.8919 21.2075 20.0667 20.5578 20.0199C20.3518 20.0051 20.1606 19.9461 19.9889 19.8427C19.9718 19.8328 19.9669 19.8107 19.9767 19.7934C19.9791 19.7885 19.984 19.7836 19.9914 19.7786C20.342 19.5965 20.7122 19.5374 21.1045 19.6063C21.1119 19.6063 21.1168 19.6039 21.1193 19.5965C21.1193 19.5915 21.1193 19.5891 21.1144 19.5842C20.9869 19.4808 20.8888 19.3528 20.8226 19.2026C20.8152 19.1853 20.8226 19.1657 20.8397 19.1607C20.8422 19.1583 20.8471 19.1583 20.8495 19.1583C21.1389 19.141 21.5189 19.3281 21.7543 19.4832C21.7617 19.4882 21.769 19.4857 21.7739 19.4783C21.7764 19.4758 21.7764 19.4734 21.7764 19.4709C21.7592 19.2075 21.8229 18.9564 21.9701 18.7225C21.9848 18.6979 22.0166 18.6881 22.0436 18.7004C22.2888 18.8111 22.4163 19.1509 22.4899 19.3995C22.4923 19.4118 22.4948 19.4168 22.5021 19.4168Z"/>
<path d="M18.3732 19.1951C18.3952 19.1705 18.4296 19.168 18.4541 19.1877C18.4565 19.1877 18.4565 19.1902 18.459 19.1926C18.7851 19.5373 19.0769 19.7835 19.3809 20.005C19.8149 20.3177 20.2709 20.5639 20.7466 20.7411C20.9673 20.8223 21.2002 20.874 21.4454 20.8913C21.4846 20.8937 21.5018 20.9159 21.5018 20.9528C21.5018 20.9627 21.4969 20.9725 21.492 20.9799C21.4576 21.0168 21.3963 21.0636 21.3522 21.1227C21.2517 21.2581 21.1732 21.4353 21.1193 21.652C21.1168 21.6643 21.1095 21.6766 21.0997 21.6864C21.0776 21.7086 21.0384 21.7086 21.0163 21.6864C21.0138 21.684 21.0114 21.6815 21.0089 21.6766C20.9624 21.6077 20.9231 21.5535 20.8888 21.5117C20.6559 21.231 20.396 20.9725 20.1042 20.7362C19.9742 20.6303 19.577 20.3201 18.9052 19.8007C18.7777 19.7022 18.6036 19.5323 18.3781 19.2886C18.3511 19.2615 18.3511 19.2222 18.3732 19.1951Z"/>
<path d="M26.6313 19.1927C26.6558 19.2198 26.6533 19.2592 26.6313 19.2863C26.4057 19.53 26.2316 19.6999 26.1041 19.7983C25.4323 20.3178 25.0326 20.628 24.9051 20.7338C24.6134 20.9726 24.351 21.2311 24.1181 21.5118C24.0837 21.5536 24.0421 21.6078 23.9979 21.6767C23.9808 21.7038 23.944 21.7112 23.917 21.6939C23.9146 21.6915 23.9097 21.689 23.9072 21.6866C23.8974 21.6767 23.89 21.6644 23.8876 21.6521C23.8312 21.4354 23.7552 21.2582 23.6522 21.1203C23.6081 21.0613 23.5468 21.0145 23.5125 20.9775C23.5051 20.9702 23.5026 20.9603 23.5026 20.9505C23.5002 20.9111 23.5198 20.8914 23.559 20.8889C23.8018 20.8717 24.0347 20.82 24.2578 20.7388C24.7359 20.5615 25.192 20.3153 25.626 20.0027C25.93 19.7811 26.2242 19.5349 26.5503 19.1903C26.5724 19.1681 26.6067 19.1656 26.6313 19.1878C26.6288 19.1878 26.6288 19.1903 26.6313 19.1927Z"/>
<path d="M22.5022 19.791C22.5292 19.791 22.5464 19.8033 22.5562 19.8279C22.6935 20.2317 22.9681 20.4853 23.38 20.5862C23.4021 20.5911 23.4168 20.6157 23.4119 20.6379C23.4119 20.6428 23.4094 20.6453 23.407 20.6502C23.3236 20.7905 23.277 20.9432 23.2672 21.1106C23.2452 21.4626 23.3065 21.8023 23.4511 22.1224C23.4536 22.1273 23.4536 22.1347 23.4511 22.1396C23.3776 22.2824 23.3285 22.4326 23.2991 22.5926C23.2427 22.9077 23.228 23.2277 23.2501 23.5551C23.2697 23.8309 23.3089 24.1041 23.4266 24.3306C23.4315 24.3405 23.4291 24.3503 23.4241 24.3577C23.3236 24.4906 23.2525 24.6408 23.2108 24.8058C23.1177 25.1726 23.076 25.5763 23.0858 26.017C23.0907 26.241 23.1177 26.5413 23.2206 26.7629C23.228 26.7777 23.228 26.7949 23.2206 26.8121C23.1495 26.9623 23.0931 27.1174 23.0564 27.2774C22.946 27.755 22.9264 28.2228 23 28.6831C23.022 28.821 23.0564 28.9441 23.1005 29.0499C23.1079 29.0672 23.1079 29.0869 23.1005 29.1041C23.0441 29.2272 23.0147 29.3651 23.0073 29.5177C22.9853 29.9781 23.0343 30.4384 23.152 30.8963C23.1961 31.0736 23.2525 31.2237 23.3138 31.3493C23.3383 31.3985 23.3555 31.433 23.3629 31.4527C23.3678 31.465 23.3678 31.4773 23.3629 31.4896C23.1397 32.1666 23.0367 32.8609 23.0539 33.5699C23.0637 33.9391 23.1103 34.2838 23.1986 34.6038C23.2403 34.754 23.2917 34.8869 23.3579 35.0076C23.3629 35.0174 23.3629 35.0297 23.3579 35.0396C23.2697 35.207 23.2084 35.3965 23.1691 35.6082C23.0515 36.2606 23.0637 36.9303 23.201 37.6196C23.2501 37.8682 23.3261 38.0873 23.4241 38.2769C23.4315 38.2892 23.4315 38.3039 23.4241 38.3187C23.4168 38.336 23.4021 38.3581 23.38 38.3852C23.3776 38.3901 23.3727 38.3926 23.3702 38.3975C23.277 38.5674 23.2108 38.752 23.1716 38.9563C23.0196 39.7441 23.0956 40.623 23.3481 41.3985C23.353 41.4132 23.353 41.4305 23.3457 41.4452C23.304 41.5314 23.2721 41.6176 23.2452 41.7013C23.0343 42.398 22.9951 43.1513 23.0882 43.8898C23.1177 44.1237 23.1765 44.3576 23.2623 44.5865C23.2697 44.6087 23.2599 44.6333 23.2403 44.6432C22.9926 44.7662 22.7548 44.8844 22.5219 44.9977C22.5194 45.0001 22.512 45.0001 22.4998 45.0001C22.4875 45.0001 22.4802 45.0001 22.4777 44.9977C22.2472 44.8844 22.007 44.7662 21.7593 44.6432C21.7372 44.6333 21.7299 44.6087 21.7372 44.5865C21.8231 44.3576 21.8795 44.1262 21.9113 43.8898C22.007 43.1537 21.9677 42.398 21.7544 41.7013C21.7299 41.6176 21.6956 41.5314 21.6539 41.4452C21.6465 41.4305 21.6465 41.4132 21.6514 41.3985C21.904 40.623 21.9824 39.7417 21.828 38.9563C21.7887 38.7545 21.7225 38.5674 21.6294 38.3975C21.6269 38.3926 21.6245 38.3901 21.6196 38.3852C21.5999 38.3606 21.5852 38.3384 21.5754 38.3187C21.5705 38.3064 21.5705 38.2916 21.5754 38.2769C21.6735 38.0898 21.7471 37.8707 21.7985 37.6196C21.9359 36.9327 21.9481 36.2606 21.8304 35.6082C21.7936 35.3965 21.7299 35.207 21.6416 35.0396C21.6367 35.0297 21.6367 35.0174 21.6416 35.0076C21.7078 34.8869 21.7593 34.754 21.801 34.6038C21.8893 34.2838 21.9359 33.9391 21.9457 33.5699C21.9628 32.8609 21.8598 32.1666 21.6367 31.4896C21.6318 31.4773 21.6343 31.465 21.6367 31.4527C21.6441 31.433 21.6612 31.3985 21.6858 31.3493C21.7495 31.2237 21.8035 31.0736 21.85 30.8963C21.9677 30.4384 22.0143 29.9781 21.9947 29.5177C21.9873 29.3651 21.9555 29.2272 21.9015 29.1041C21.8942 29.0869 21.8942 29.0672 21.9015 29.0499C21.9457 28.9441 21.98 28.821 22.0021 28.6831C22.0756 28.2228 22.056 27.755 21.9457 27.2774C21.9089 27.1174 21.8549 26.9623 21.7814 26.8121C21.774 26.7974 21.774 26.7801 21.7814 26.7629C21.8868 26.5389 21.9113 26.241 21.9162 26.017C21.926 25.5763 21.8844 25.1726 21.7912 24.8058C21.7495 24.6408 21.6784 24.4906 21.5779 24.3577C21.573 24.3503 21.5705 24.3405 21.5754 24.3306C21.6931 24.1041 21.7323 23.8309 21.752 23.5551C21.7765 23.2277 21.7593 22.9077 21.7029 22.5926C21.6735 22.4326 21.6245 22.2824 21.5509 22.1396C21.5485 22.1347 21.5485 22.1273 21.5509 22.1224C21.6931 21.7999 21.7544 21.4626 21.7348 21.1106C21.725 20.9432 21.6784 20.7881 21.595 20.6502C21.5828 20.6305 21.5901 20.6034 21.6098 20.5911C21.6122 20.5886 21.6171 20.5862 21.622 20.5862C22.0339 20.4853 22.3085 20.2341 22.4458 19.8279C22.4557 19.8033 22.4753 19.791 22.5022 19.791Z"/>
<path d="M9.56111 39.5348C9.92644 39.2394 10.331 39.0695 10.7895 38.9587C11.2308 38.8529 11.6869 38.7839 12.1601 38.7544C13.3517 38.6781 14.5311 38.7642 15.6957 39.0178C15.9213 39.0671 16.1003 39.1138 16.2302 39.1581C16.3136 39.1877 16.2866 39.2763 16.218 39.2886C16.0562 39.3182 15.9041 39.3649 15.7595 39.4314C15.2617 39.6628 14.8032 40.0173 14.5262 40.4949C14.5213 40.5023 14.5188 40.5121 14.5188 40.5245C14.5188 40.5269 14.5213 40.5294 14.5237 40.5294C14.5262 40.5294 14.5262 40.5294 14.5286 40.5269C15.0117 39.9065 15.6418 39.552 16.419 39.4659C17.5543 39.3403 18.7189 39.8524 19.6212 40.5023C19.6457 40.5195 19.6555 40.5392 19.6555 40.5663C19.6555 40.5909 19.6335 40.6131 19.6089 40.6131C19.604 40.6131 19.6016 40.6131 19.5967 40.6106C19.3221 40.5392 19.0622 40.5614 18.8194 40.6746C18.8145 40.6771 18.8121 40.682 18.8145 40.6869C18.817 40.6919 18.8194 40.6919 18.8243 40.6919C19.0965 40.6574 19.3637 40.682 19.6261 40.7657C20.5725 41.0661 21.237 41.9745 21.5729 42.8706C21.5827 42.8977 21.5704 42.9297 21.541 42.9395H21.5386C21.5091 42.9494 21.4773 42.937 21.4626 42.91C21.1634 42.3561 20.7098 41.8391 20.1459 41.5535C19.7536 41.3565 19.2387 41.295 18.8072 41.4649C18.486 41.5904 18.1599 41.6741 17.8264 41.6815C17.7749 41.6815 17.667 41.6667 17.6156 41.6421C17.5861 41.6273 17.5714 41.5929 17.5837 41.5609C17.6254 41.4526 17.6352 41.3418 17.618 41.2236C17.5371 40.7214 16.8947 40.6525 16.4975 40.7066C15.9581 40.7829 15.4751 40.9873 15.046 41.3221C14.9283 41.4132 14.8474 41.5092 14.7518 41.6027C14.46 41.8883 14.1412 42.132 13.7931 42.3314C13.2904 42.6195 12.4592 42.9321 11.9223 42.5333C11.8929 42.5111 11.8438 42.4619 11.861 42.4225C11.8953 42.3413 11.9345 42.3905 11.9934 42.3757C12.4053 42.2773 12.8564 42.0508 13.0796 41.6864C13.391 41.1818 13.0796 40.7116 12.6162 40.4777C12.3979 40.3669 12.1748 40.298 11.9443 40.2684C11.8389 40.2537 11.7163 40.2389 11.5741 40.2241C11.4907 40.2143 11.4049 40.2093 11.3142 40.2118C10.8484 40.2167 10.3923 40.2807 9.94606 40.4038C9.86269 40.426 9.70822 40.4826 9.4802 40.5712C9.33309 40.6278 9.15655 40.6845 8.94814 40.7411C8.47983 40.8691 8.01887 40.8962 7.57018 40.8273C7.25389 40.778 6.87139 40.6106 6.73654 40.2955C6.71202 40.2389 6.73409 40.1675 6.80765 40.1798C7.07 40.2192 7.31273 40.2167 7.53585 40.1749C7.86195 40.1109 8.16599 39.8721 8.00907 39.4954C7.87667 39.1729 7.58489 38.9415 7.28086 38.7642C7.18523 38.7076 7.03077 38.6412 6.815 38.5624C5.69939 38.1537 4.64753 37.558 3.73789 36.8096C2.94102 36.1522 1.93084 35.01 2.16868 33.8824C2.18339 33.8135 2.1981 33.7298 2.26185 33.7126C2.29127 33.7052 2.31825 33.715 2.34031 33.7421C2.34767 33.7495 2.35012 33.7594 2.35257 33.7692C2.36238 33.8627 2.37218 33.9366 2.38444 33.9883C2.85766 36.0119 4.85349 37.1714 6.67279 37.75C8.03359 38.1833 9.4851 38.3974 10.9023 38.4467C11.1156 38.4541 11.2799 38.4639 11.3927 38.4762C11.454 38.4836 11.4711 38.5181 11.4466 38.5796C11.4344 38.6092 11.4049 38.6288 11.3559 38.6387C10.7895 38.7495 10.2746 38.9661 9.80875 39.2886C9.70332 39.3625 9.61505 39.4437 9.5464 39.5323C9.5464 39.5348 9.5464 39.5348 9.5464 39.5373C9.55866 39.5348 9.56111 39.5348 9.56111 39.5348Z"/>
<path d="M30.488 40.5342C30.4708 40.4825 30.4463 40.4357 30.4169 40.3914C30.0736 39.899 29.5587 39.5224 29.0021 39.3377C28.9408 39.318 28.8746 39.3033 28.806 39.2934C28.7619 39.2885 28.7324 39.2663 28.7202 39.2294C28.7128 39.2072 28.7251 39.1802 28.7471 39.1703C28.7741 39.158 28.8256 39.1358 28.8599 39.126C30.005 38.8232 31.2113 38.6952 32.4029 38.7296C32.7952 38.742 33.1826 38.774 33.57 38.8306C34.2467 38.9291 34.894 39.0965 35.4212 39.515C35.4236 39.5174 35.4261 39.5174 35.4285 39.515C35.431 39.5125 35.431 39.51 35.4285 39.5076C35.355 39.4337 35.3157 39.3919 35.3084 39.387C34.845 39.0128 34.2345 38.7567 33.6558 38.641C33.6043 38.6312 33.5406 38.6115 33.5308 38.5573C33.5136 38.4588 33.6926 38.4588 33.7367 38.4588C35.6051 38.4071 37.4808 38.1437 39.2044 37.42C40.754 36.77 42.2815 35.6327 42.6248 33.8749C42.6297 33.8454 42.6346 33.8134 42.6346 33.774C42.6346 33.7346 42.6689 33.7075 42.7106 33.7075C42.7155 33.7075 42.7204 33.7075 42.7253 33.71C42.8479 33.7395 42.8602 34.1802 42.8528 34.3057C42.8259 34.8867 42.4973 35.4702 42.1295 35.9182C41.877 36.2284 41.595 36.514 41.2836 36.775C40.3789 37.5357 39.3025 38.1363 38.1992 38.5475C37.9613 38.6361 37.7921 38.7099 37.6941 38.769C37.5151 38.8749 37.3582 38.9955 37.2233 39.1309C36.9953 39.3599 36.8016 39.7267 37.0762 39.9926C37.341 40.2486 37.8534 40.2264 38.1894 40.1797C38.2212 40.1747 38.2433 40.1846 38.258 40.2067C38.3021 40.2806 38.1771 40.4406 38.1207 40.4972C37.8878 40.7286 37.5543 40.8222 37.2307 40.8517C36.9242 40.8813 36.6079 40.8616 36.2842 40.7951C36.0292 40.7434 35.7792 40.6696 35.5315 40.576C35.2888 40.4825 35.1171 40.4234 35.0142 40.3938C34.5557 40.2707 34.0923 40.2092 33.6264 40.2092C33.5602 40.2092 33.4646 40.2166 33.3469 40.2314C33.2341 40.2461 33.1409 40.256 33.0674 40.2658C32.8859 40.288 32.702 40.3372 32.5157 40.4111C32.0278 40.6056 31.5889 41.0758 31.8782 41.6297C32.0842 42.0236 32.5598 42.2698 32.9865 42.3731C33.0036 42.3781 33.0355 42.3781 33.0796 42.3756C33.0894 42.3756 33.0992 42.3781 33.1066 42.3855C33.1998 42.4692 33.0306 42.5701 32.9619 42.6046C32.6653 42.7621 32.2877 42.7424 31.9714 42.6538C31.3118 42.4692 30.689 42.0605 30.2183 41.5755C30.1006 41.4549 30.0148 41.3736 29.9633 41.3343C29.4778 40.9551 28.8746 40.709 28.2617 40.6942C27.7443 40.6819 27.2196 40.9453 27.4109 41.5657C27.4207 41.5952 27.406 41.6297 27.3765 41.642C27.3373 41.6617 27.2907 41.6715 27.2417 41.6764C26.8862 41.7011 26.5208 41.5952 26.1874 41.4647C25.7534 41.2949 25.2459 41.3564 24.8388 41.5607C24.2749 41.8439 23.836 42.3535 23.5344 42.9074C23.5197 42.9344 23.4879 42.9492 23.456 42.9418H23.4535C23.4266 42.9344 23.4094 42.9074 23.4167 42.8803C23.4167 42.8778 23.4167 42.8778 23.4192 42.8754C23.8189 41.8069 24.6844 40.7262 25.9177 40.6794C25.9986 40.677 26.0991 40.6991 26.1751 40.6942C26.18 40.6942 26.1825 40.6893 26.1825 40.6868C26.1825 40.6843 26.18 40.6819 26.1776 40.6819C25.9177 40.5637 25.6578 40.544 25.4003 40.6179C25.3734 40.6253 25.3439 40.608 25.339 40.5809C25.3366 40.5686 25.3366 40.5539 25.3439 40.5415C25.3488 40.5292 25.3611 40.5194 25.3807 40.5046C26.1923 39.9286 27.1215 39.4953 28.1268 39.4534C29.0536 39.4165 29.9142 39.7932 30.4733 40.5415C30.4757 40.544 30.4782 40.544 30.4806 40.544C30.488 40.5416 30.4904 40.5366 30.488 40.5342Z"/>
<path d="M13.3371 37.8706C13.4867 38.1266 13.6902 38.3384 13.9501 38.5008C13.9746 38.5156 13.982 38.5452 13.9722 38.5698C13.955 38.6042 13.928 38.6215 13.8888 38.6166C12.8517 38.4812 12.1798 38.395 11.8807 38.363C11.5938 38.331 11.3756 38.2891 11.2261 38.2399C10.7504 38.0848 10.26 37.7771 9.96579 37.3709C9.96334 37.3684 9.96089 37.3684 9.95844 37.3709C9.95599 37.3709 9.95599 37.3733 9.95599 37.3758C10.0467 37.6614 10.211 37.878 10.4513 38.0233C10.4758 38.038 10.4856 38.07 10.4733 38.0996C10.4684 38.1119 10.4537 38.1217 10.4317 38.1291C10.4047 38.1365 10.3875 38.1414 10.3802 38.1414C9.93637 38.1513 9.49994 38.0848 9.07576 37.9346C8.19554 37.6269 7.46242 37.1124 6.87642 36.3886C6.87397 36.3861 6.87397 36.3861 6.87152 36.3886C6.87152 36.3886 6.86906 36.3911 6.87152 36.3911C6.87642 36.4034 6.87887 36.4108 6.88132 36.4132C7.19516 36.9228 7.67083 37.3979 8.20779 37.75C8.23722 37.7697 8.24947 37.8066 8.23476 37.8386C8.2176 37.8829 8.18328 37.9026 8.12933 37.8952C7.12651 37.7451 6.16292 37.4472 5.23611 37.0065C4.00526 36.4181 2.65182 35.3399 2.47528 33.8775C2.47283 33.8529 2.47528 33.8258 2.48264 33.7988C2.50471 33.7323 2.59788 33.7495 2.61749 33.8012C2.67389 33.9465 2.70576 34.0302 2.71802 34.0499C2.85042 34.2985 3.01715 34.5324 3.22311 34.7515C3.66445 35.2192 4.1769 35.591 4.75799 35.8716C5.02034 35.9972 5.46168 36.1252 5.75591 36.0267C6.09672 35.9135 5.80004 35.4531 5.67499 35.2931C5.56221 35.1503 5.43716 35.0174 5.29495 34.8943C5.05222 34.685 5.58673 34.6604 5.67009 34.6653C5.94715 34.685 6.21196 34.7589 6.4645 34.8893C6.69253 35.0075 6.89113 35.1355 7.06031 35.2734C7.15348 35.3472 7.3104 35.4925 7.53597 35.7042C7.67083 35.8322 7.81794 36.007 7.93073 36.1104C8.11217 36.2754 8.31813 36.4009 8.5486 36.4821C8.68346 36.5314 9.10763 36.6225 9.06105 36.332C9.02917 36.14 8.85999 35.9553 8.71043 35.8273C8.70307 35.8224 8.69817 35.815 8.69572 35.8076C8.6761 35.7658 8.68346 35.7313 8.71533 35.7067C8.7987 35.6427 9.05124 35.6894 9.16648 35.7165C9.52936 35.8002 9.86772 35.9578 10.2012 36.1449C10.5616 36.3468 10.873 36.5905 11.1353 36.8711C11.2653 37.0114 11.3609 37.1001 11.4222 37.1419C11.611 37.2675 11.8611 37.3832 12.0769 37.3512C12.4103 37.3044 12.3147 36.9844 12.1798 36.7997C12.0989 36.6914 12.0082 36.5979 11.9052 36.5191C11.8807 36.4994 11.8758 36.4649 11.8954 36.4403C11.8979 36.4354 11.9028 36.4329 11.9077 36.428C12.0793 36.2975 12.3392 36.3246 12.528 36.3837C13.0356 36.5462 13.5014 36.8859 13.8815 37.2675C14.3301 37.7229 14.9725 37.9839 15.5953 38.0503C15.9141 38.0848 16.5099 38.0159 16.3922 37.553C16.3603 37.4226 16.2818 37.2995 16.1617 37.1813C16.1225 37.1444 16.1029 37.1148 16.1029 37.0927C16.1029 37.0533 16.1225 37.0238 16.1617 37.0065C16.9144 36.684 17.7922 37.041 18.4297 37.4767C18.7877 37.7204 19.1187 38.0036 19.4252 38.3261C20.0578 38.9932 20.5923 39.7613 21.0312 40.6303C21.2396 41.0439 21.4382 41.5338 21.6294 42.1C21.6564 42.1813 21.6368 42.2354 21.5681 42.2576C21.5362 42.2674 21.5019 42.2527 21.4872 42.2231C21.4063 42.0631 21.3033 41.908 21.1734 41.7603C20.6487 41.1645 20.0455 40.6574 19.3663 40.2364C19.2315 40.1527 19.0942 40.0493 18.9544 39.9262C18.6013 39.6161 18.2924 39.2837 18.0276 38.9292C17.905 38.7643 17.7947 38.5944 17.7039 38.4171C17.7039 38.4147 17.7015 38.4147 17.699 38.4171V38.4196C17.7015 38.4541 17.7088 38.4836 17.7187 38.5107C17.8511 38.8627 18.0546 39.2 18.3267 39.525C18.366 39.5717 18.366 39.6111 18.3267 39.6456C18.3047 39.6653 18.2703 39.6678 18.2409 39.6505C18.1673 39.6111 18.0668 39.5348 17.9687 39.4831C17.7456 39.3649 17.4857 39.2566 17.1915 39.1606C16.429 38.9095 15.6664 38.7618 14.9039 38.7175C14.7224 38.7076 14.6048 38.6953 14.5508 38.6806C14.1953 38.5845 13.8471 38.3433 13.575 38.0971C13.5161 38.0429 13.4377 37.9666 13.3396 37.8657C13.3396 37.8657 13.3371 37.8657 13.3347 37.8657C13.3371 37.8682 13.3371 37.8682 13.3371 37.8706Z"/>
<path d="M31.6601 37.8681C31.562 37.969 31.4836 38.0454 31.4247 38.0995C31.1526 38.3482 30.8044 38.587 30.4489 38.683C30.3949 38.6977 30.2773 38.71 30.0958 38.7199C29.3333 38.7617 28.5707 38.9095 27.8082 39.163C27.514 39.2615 27.2541 39.3698 27.031 39.4855C26.9329 39.5372 26.8324 39.6135 26.7588 39.6529C26.7294 39.6702 26.6951 39.6677 26.673 39.648C26.6338 39.6135 26.6338 39.5717 26.673 39.5274C26.9451 39.2024 27.1487 38.8651 27.2811 38.5131C27.2909 38.486 27.2982 38.4565 27.3007 38.422C27.3007 38.4196 27.2982 38.4196 27.2982 38.4196H27.2958C27.2026 38.5968 27.0947 38.7667 26.9721 38.9316C26.7049 39.2861 26.3959 39.6185 26.0453 39.9287C25.9055 40.0517 25.7682 40.1551 25.6334 40.2388C24.9542 40.6598 24.3511 41.1669 23.8263 41.7627C23.6964 41.9104 23.591 42.0655 23.5125 42.2255C23.4978 42.2551 23.4635 42.2698 23.4316 42.26C23.3629 42.2378 23.3433 42.1861 23.3703 42.1024C23.5615 41.5362 23.7601 41.0463 23.9686 40.6327C24.4074 39.7612 24.942 38.9932 25.5745 38.3285C25.881 38.006 26.212 37.7229 26.57 37.4791C27.2075 37.0434 28.0877 36.684 28.838 37.0089C28.8772 37.0262 28.8968 37.0557 28.8968 37.0951C28.8968 37.1148 28.8772 37.1443 28.838 37.1837C28.7179 37.3019 28.6419 37.425 28.6075 37.5555C28.4898 38.0183 29.0881 38.0872 29.4044 38.0527C30.0272 37.9863 30.6671 37.7253 31.1183 37.2699C31.4983 36.8858 31.9666 36.5486 32.4717 36.3861C32.6605 36.3245 32.9204 36.2999 33.092 36.4304C33.1165 36.4501 33.1214 36.4846 33.1043 36.5092C33.1018 36.5141 33.0969 36.5166 33.092 36.5215C32.989 36.6003 32.8983 36.6914 32.8174 36.8021C32.6826 36.9868 32.5869 37.3068 32.9204 37.3536C33.1362 37.3831 33.3887 37.2674 33.575 37.1443C33.6363 37.1049 33.732 37.0138 33.8619 36.8735C34.1243 36.5929 34.4357 36.3492 34.7961 36.1473C35.1295 35.9602 35.4679 35.8026 35.8308 35.7189C35.946 35.6918 36.201 35.6451 36.2819 35.7091C36.3138 35.7337 36.3211 35.7682 36.3015 35.81C36.2991 35.8174 36.2917 35.8248 36.2868 35.8297C36.1373 35.9577 35.9656 36.1399 35.9362 36.3344C35.8896 36.6249 36.3113 36.5338 36.4486 36.4846C36.6791 36.4033 36.8851 36.2802 37.0665 36.1128C37.1818 36.0094 37.3289 35.8346 37.4613 35.7066C37.6868 35.4924 37.8438 35.3497 37.9369 35.2758C38.1061 35.1379 38.3047 35.0099 38.5327 34.8918C38.7853 34.7613 39.0501 34.685 39.3272 34.6677C39.4105 34.6628 39.9426 34.6874 39.7023 34.8967C39.5601 35.0198 39.435 35.1527 39.3223 35.2955C39.1972 35.4555 38.9005 35.9159 39.2413 36.0291C39.5356 36.1276 39.9794 35.9996 40.2393 35.874C40.8204 35.5958 41.3303 35.2216 41.7741 34.7539C41.9801 34.5373 42.1468 34.3034 42.2792 34.0547C42.2915 34.0326 42.3234 33.9513 42.3798 33.8061C42.3994 33.7544 42.4925 33.7396 42.5146 33.8036C42.5244 33.8307 42.5269 33.8553 42.522 33.8824C42.3454 35.3447 40.992 36.423 39.7611 37.0114C38.8343 37.4545 37.8707 37.7499 36.8679 37.9001C36.8164 37.9075 36.7797 37.8903 36.7649 37.8435C36.7527 37.809 36.7649 37.7721 36.7919 37.7549C37.3289 37.4028 37.8045 36.9301 38.1184 36.4181C38.1208 36.4156 38.1233 36.4082 38.1282 36.3959C38.1282 36.3935 38.1282 36.3935 38.1257 36.391C38.1233 36.391 38.1233 36.391 38.1233 36.391C37.5373 37.1123 36.8066 37.6293 35.9239 37.937C35.4998 38.0847 35.0658 38.1537 34.6195 38.1438C34.6122 38.1438 34.595 38.1389 34.5681 38.1315C34.546 38.1241 34.5313 38.1143 34.5264 38.102C34.5141 38.0749 34.5239 38.0429 34.5484 38.0257C34.7887 37.878 34.9555 37.6638 35.0437 37.3782C35.0437 37.3757 35.0437 37.3733 35.0413 37.3733C35.0388 37.3733 35.0364 37.3733 35.0364 37.3757C34.7421 37.7819 34.2518 38.0897 33.7761 38.2448C33.6265 38.294 33.4083 38.3334 33.1214 38.3679C32.8199 38.4023 32.1505 38.486 31.1134 38.6214C31.0766 38.6263 31.0471 38.6116 31.03 38.5746C31.0177 38.55 31.0275 38.5205 31.0521 38.5057C31.312 38.3408 31.5155 38.1315 31.665 37.8755C31.665 37.873 31.665 37.873 31.6626 37.8706C31.6626 37.8656 31.6626 37.8656 31.6601 37.8681Z"/>
</svg>
