<svg width="683" height="151" viewBox="0 0 683 151" fill="none" xmlns="http://www.w3.org/2000/svg">
<path d="M332.55 77.6808C332.45 77.8508 332.36 77.9408 332.36 78.0408C332.34 93.1408 332.32 108.241 332.31 123.341C332.31 123.611 332.36 123.871 332.4 124.221C334.63 124.571 336.83 124.191 339.09 124.461C339.14 124.811 339.21 125.121 339.22 125.431C339.23 125.761 339.2 126.091 339.18 126.501C338.88 126.581 338.58 126.681 338.27 126.731C338 126.771 337.72 126.741 337.44 126.741C329.83 126.741 322.23 126.741 314.62 126.741C314.08 126.741 313.53 126.711 312.97 126.691C312.62 125.941 312.7 125.261 312.88 124.491C315.13 124.161 317.39 124.531 319.69 124.271C319.76 123.941 319.85 123.631 319.88 123.321C319.91 122.941 319.89 122.551 319.89 122.161C319.89 91.0208 319.89 59.8808 319.89 28.7408C319.89 28.0408 319.99 27.3108 319.71 26.5108C318.57 26.3608 317.42 26.4608 316.28 26.4308C315.19 26.4108 314.09 26.4108 312.96 26.4008C312.62 25.6408 312.7 24.9608 312.86 24.1908C313.19 24.1308 313.5 24.0508 313.82 24.0208C314.15 23.9908 314.48 24.0108 314.81 24.0108C326.82 24.0108 338.84 23.9808 350.85 24.0208C355.05 24.0308 359.21 24.5108 363.25 25.7108C366.14 26.5708 368.81 27.8408 371.1 29.8108C374.57 32.8008 376.34 36.6908 376.9 41.1708C377.07 42.5308 377.11 43.9208 377.12 45.2908C377.15 49.2608 377.13 53.2308 377.13 57.1908C377.13 59.1808 376.92 61.1508 376.55 63.1008C376.14 65.2408 375.35 67.2308 374.24 69.0808C372.52 71.9408 369.93 73.7508 366.88 74.9408C364.77 75.7708 362.57 76.2808 360.33 76.6308C360.02 76.6808 359.71 76.7408 359.43 76.7908C359.36 77.2008 359.62 77.2208 359.81 77.2808C361.98 77.9508 364.04 78.8408 365.98 80.0408C370.99 83.1408 374.04 87.5908 375.25 93.3408C375.67 95.3408 375.82 97.3808 375.83 99.4208C375.84 105.701 375.84 111.991 375.83 118.271C375.83 119.491 375.87 120.701 376.22 121.871C376.35 122.291 376.47 122.721 376.66 123.111C377.32 124.451 378.33 125.261 379.89 125.291C381.48 125.311 382.65 124.641 383.39 123.251C383.86 122.361 384.1 121.401 384.18 120.401C384.25 119.521 384.31 118.651 384.38 117.741C385 117.321 385.63 117.471 386.38 117.601C386.43 117.931 386.5 118.241 386.51 118.551C386.55 120.211 386.37 121.851 385.87 123.441C385.13 125.771 383.64 127.331 381.26 127.981C377.76 128.921 374.28 128.851 370.87 127.591C368.45 126.701 366.84 124.981 365.91 122.591C365.24 120.881 364.87 119.101 364.71 117.291C364.57 115.811 364.51 114.321 364.49 112.841C364.43 109.261 364.46 105.681 364.35 102.101C364.24 98.5508 363.55 95.0908 362.31 91.7608C361.16 88.6808 359.49 85.9208 357.09 83.6308C354.22 80.8908 350.79 79.2308 346.96 78.3308C344.75 77.8108 342.51 77.5708 340.24 77.5408C337.98 77.5108 335.72 77.5308 333.46 77.5408C333.13 77.5708 332.82 77.6408 332.55 77.6808ZM332.46 74.9908C332.73 75.0508 332.89 75.1108 333.05 75.1108C338.17 75.0908 343.3 75.1008 348.42 75.0208C350.52 74.9908 352.57 74.5108 354.58 73.8808C358.75 72.5708 361.66 69.9508 363.03 65.7408C363.41 64.5908 363.78 63.4308 364.01 62.2408C365.19 56.1308 365.28 49.9808 364.56 43.8108C364.22 40.9008 363.41 38.0908 362.06 35.4608C360.19 31.8208 357.39 29.2408 353.55 27.7908C351.2 26.9008 348.76 26.4808 346.27 26.4508C341.97 26.4008 337.67 26.4308 333.38 26.4408C333.07 26.4408 332.76 26.5208 332.46 26.5608C332.39 26.8108 332.31 26.9708 332.31 27.1208C332.3 42.8808 332.3 58.6408 332.31 74.4008C332.32 74.5808 332.4 74.7308 332.46 74.9908Z" fill="black"/>
<path d="M482.15 77.7508C482.36 77.6908 482.51 77.7008 482.55 77.6408C494.96 60.7208 507.36 43.7908 519.87 26.7208C519.45 26.6208 519.22 26.5108 518.98 26.5108C516.61 26.5008 514.24 26.5008 511.87 26.5008C511.32 26.5008 510.78 26.5008 510.28 26.5008C509.9 25.4408 509.9 25.4408 510.19 24.2608C510.72 24.0108 511.33 24.1108 511.92 24.1108C517.27 24.1008 522.61 24.1008 527.96 24.1008C530.11 24.1008 532.26 24.1008 534.41 24.1008C534.95 24.1008 535.5 24.1308 536.05 24.1508C536.5 24.8708 536.33 25.5608 536.26 26.2008C535.77 26.6108 535.25 26.4808 534.77 26.4808C531.46 26.4908 528.16 26.4908 524.85 26.4908C524.3 26.4908 523.76 26.4908 523.3 26.4908C522.41 27.4308 494.79 64.8308 493.58 66.7308C493.5 66.8508 493.49 67.0208 493.42 67.2808C493.83 67.3608 494.19 67.4408 494.55 67.4908C497.93 67.9608 501.32 68.3808 504.62 69.3108C508.82 70.5008 512.64 72.3708 515.86 75.3708C518.01 77.3808 519.79 79.6808 521.18 82.2808C523.44 86.5208 524.68 91.0708 525.34 95.7908C525.77 98.9008 525.94 102.041 525.94 105.191C525.93 109.161 525.92 113.131 525.95 117.091C525.96 118.691 525.95 120.291 526.35 121.851C526.44 122.221 526.53 122.611 526.68 122.961C527.3 124.371 528.26 125.321 529.9 125.401C531.64 125.481 532.87 124.701 533.62 123.171C534.11 122.171 534.29 121.081 534.35 119.971C534.39 119.261 534.41 118.561 534.45 117.831C535.16 117.521 535.79 117.581 536.51 117.741C536.56 118.061 536.65 118.371 536.66 118.681C536.7 120.461 536.49 122.201 535.92 123.891C535.25 125.911 533.89 127.261 531.88 127.951C531.52 128.081 531.15 128.211 530.77 128.281C527.81 128.881 524.86 128.871 521.94 128.031C518.83 127.141 516.83 125.121 515.81 122.081C514.9 119.381 514.6 116.601 514.57 113.781C514.54 110.421 514.52 107.061 514.22 103.711C513.77 98.5808 512.86 93.5508 511.05 88.7208C509.21 83.8008 506.57 79.3808 502.46 75.9908C499.2 73.3008 495.47 71.6308 491.24 71.1408C490.97 71.1108 490.69 71.1408 490.34 71.1408C490.02 71.5508 489.68 71.9708 489.35 72.4208C487.18 75.4108 485.04 78.4208 482.84 81.3808C482.25 82.1808 482.02 82.9908 482.03 83.9708C482.06 94.5508 482.05 105.131 482.05 115.711C482.05 118.131 482.05 120.561 482.05 122.981C482.05 123.361 482.09 123.741 482.11 124.211C482.44 124.291 482.74 124.421 483.04 124.421C484.47 124.441 485.91 124.431 487.34 124.441C487.82 124.441 488.31 124.501 488.8 124.531C489.06 125.271 488.98 125.911 488.9 126.651C488.58 126.721 488.28 126.851 487.98 126.851C486.77 126.871 485.56 126.861 484.34 126.861C477.73 126.861 471.11 126.861 464.5 126.861C463.9 126.861 463.31 126.831 462.71 126.821C462.35 126.031 462.44 125.351 462.6 124.611C463.75 124.281 464.91 124.481 466.05 124.441C467.15 124.411 468.24 124.431 469.41 124.431C469.5 124.031 469.6 123.721 469.62 123.421C469.65 122.931 469.63 122.431 469.63 121.931C469.63 90.9008 469.63 59.8708 469.62 28.8508C469.62 28.1408 469.75 27.4208 469.44 26.6808C468.33 26.3308 467.17 26.5508 466.03 26.5208C464.94 26.4808 463.84 26.5108 462.79 26.5108C462.44 25.5108 462.44 25.5108 462.63 24.3408C463.17 23.9708 463.79 24.1208 464.38 24.1208C471.93 24.1108 479.48 24.1108 487.03 24.1108C487.58 24.1108 488.12 24.1308 488.65 24.1408C489.16 24.8708 488.95 25.5708 488.89 26.3408C488.53 26.4008 488.22 26.4908 487.91 26.5008C486.53 26.5208 485.15 26.5008 483.78 26.5108C483.29 26.5108 482.81 26.5608 482.22 26.5808C482.16 26.9408 482.08 27.2508 482.06 27.5608C482.03 27.9408 482.05 28.3308 482.05 28.7208C482.05 44.4808 482.05 60.2408 482.05 76.0108C482.06 76.5708 481.97 77.1708 482.15 77.7508Z" fill="black"/>
<path d="M679.05 126.721C678.66 126.771 678.34 126.831 678.02 126.841C670.91 127.041 617.66 126.921 616.05 126.711C615.75 125.841 615.75 125.841 615.92 124.581C616.26 124.531 616.63 124.441 617 124.431C618.43 124.411 619.87 124.431 621.3 124.421C621.79 124.421 622.27 124.371 622.85 124.341C622.9 123.841 622.97 123.421 622.97 123.001C622.98 120.241 622.979 117.491 622.979 114.731C622.979 86.1308 622.979 57.5308 622.979 28.9308C622.979 28.2208 622.979 27.5108 622.979 26.7308C622.579 26.6408 622.28 26.5208 621.97 26.5108C620.54 26.4908 619.1 26.5008 617.67 26.5008C617.12 26.5008 616.58 26.4908 616.03 26.4808C615.64 25.7208 615.74 25.0408 615.92 24.2508C616.26 24.2008 616.57 24.1408 616.88 24.1208C617.26 24.1008 617.649 24.1108 618.039 24.1108C637.659 24.1108 657.28 24.1108 676.9 24.1108C677.55 24.1108 678.22 24.0308 678.96 24.2608C679.04 24.6608 679.16 25.0808 679.2 25.5008C679.65 29.9408 680.09 34.3808 680.52 38.8208C681.07 44.3608 681.61 49.8908 682.15 55.4308C682.23 56.2908 682.61 57.1308 682.39 58.1008C681.08 58.3408 679.79 58.2908 678.39 58.1208C678.34 57.3708 678.28 56.6708 678.25 55.9608C678.02 50.5608 676.81 45.3808 674.75 40.4008C673.11 36.4308 670.77 32.9208 667.5 30.0708C666.08 28.8308 664.5 27.8408 662.84 26.9508C662.19 26.6008 661.51 26.4808 660.78 26.4808C652.79 26.4908 644.8 26.4908 636.81 26.4908C636.43 26.4908 636.06 26.5308 635.59 26.5508C635.52 26.9208 635.43 27.2308 635.41 27.5408C635.38 27.9808 635.4 28.4208 635.4 28.8608C635.4 43.2408 635.4 57.6308 635.4 72.0108C635.4 72.6708 635.42 73.3208 635.43 73.8908C635.98 74.4508 636.56 74.2708 637.08 74.2708C641.43 74.2808 645.79 74.2808 650.14 74.2808C651.19 74.2808 652.23 74.2908 653.28 74.2808C653.66 74.2808 654.04 74.2408 654.37 74.2208C654.87 73.7808 654.71 73.2508 654.71 72.7808C654.72 68.5908 654.71 64.4008 654.72 60.2208C654.72 59.6808 654.769 59.1508 654.789 58.6508C656.089 58.3708 659.05 58.3408 660.89 58.5608C660.94 58.8408 661.01 59.1408 661.06 59.4508C661.08 59.6108 661.07 59.7808 661.07 59.9508C661.07 70.2608 661.07 80.5608 661.07 90.8708C661.07 91.3508 661.009 91.8308 660.979 92.2708C659.619 92.5408 656.51 92.5608 654.96 92.3308C654.57 91.9208 654.739 91.4008 654.729 90.9308C654.719 86.8508 654.72 82.7708 654.72 78.7008C654.72 78.1008 654.72 77.5008 654.72 76.9808C654.16 76.4508 653.58 76.6108 653.05 76.6108C648.64 76.6008 644.23 76.6008 639.82 76.6008C638.72 76.6008 637.619 76.5908 636.509 76.6108C636.189 76.6108 635.88 76.6808 635.49 76.7308C635.45 77.1808 635.4 77.5508 635.39 77.9208C635.17 88.5708 635.28 122.471 635.56 124.271C635.84 124.311 636.15 124.411 636.47 124.411C644.68 124.421 652.89 124.411 661.1 124.431C661.85 124.431 662.5 124.211 663.14 123.881C666.7 122.041 669.49 119.351 671.74 116.071C673.44 113.601 674.71 110.921 675.67 108.091C677.22 103.521 678.2 98.8508 678.28 94.0108C678.29 93.6908 678.32 93.3608 678.35 92.9708C679.69 92.6108 680.98 92.7908 682.17 92.8408C682.3 92.9608 682.35 92.9908 682.38 93.0408C682.41 93.0808 682.42 93.1408 682.42 93.1908C682.43 93.3008 682.45 93.4108 682.44 93.5208C682.43 93.6808 682.42 93.8508 682.4 94.0108C682.22 95.4308 682.01 96.8508 681.87 98.2708C680.97 107.541 680.09 116.811 679.19 126.071C679.19 126.241 679.13 126.391 679.05 126.721Z" fill="black"/>
<path d="M223.09 124.281C225.58 124.611 227.89 124.241 230.2 124.521C230.56 125.251 230.37 125.941 230.35 126.611C230.1 126.701 229.95 126.811 229.8 126.811C221.15 126.821 212.5 126.831 203.85 126.831C203.64 126.831 203.43 126.741 203.21 126.691C202.88 126.021 203.12 125.371 203.01 124.641C203.46 124.561 203.82 124.441 204.18 124.431C205.78 124.411 207.38 124.431 208.97 124.411C209.45 124.411 209.93 124.351 210.31 124.321C210.44 124.171 210.49 124.141 210.51 124.091C210.54 124.041 210.55 123.991 210.55 123.941C210.57 123.501 210.6 123.061 210.6 122.621C210.59 90.7708 210.58 58.9208 210.57 27.0708C210.57 26.9708 210.51 26.8608 210.44 26.6608C210.18 26.6108 209.87 26.4908 209.56 26.4908C207.91 26.4708 206.25 26.4908 204.6 26.4708C204.12 26.4708 203.64 26.4008 203.11 26.3508C202.99 25.6108 202.94 24.9708 203.11 24.3708C203.65 23.9508 204.22 24.0908 204.76 24.0908C207.63 24.0808 210.49 24.0808 213.36 24.0808C218.37 24.0808 223.39 24.0808 228.4 24.0808C229 24.0808 229.6 24.0108 230.23 24.2308C230.48 24.8908 230.41 25.5408 230.31 26.2808C229.95 26.3408 229.58 26.4508 229.22 26.4608C227.68 26.4808 226.13 26.4608 224.59 26.4708C224.16 26.4708 223.73 26.5208 223.22 26.5508C223.17 26.9408 223.1 27.2508 223.09 27.5708C223.07 27.9508 223.08 28.3408 223.08 28.7308C223.08 59.8608 223.08 91.0008 223.08 122.131C223.09 122.801 223.09 123.461 223.09 124.281Z" fill="black"/>
<path d="M8.48649 59.2029C10.079 61.2245 11.2176 63.477 11.9025 65.9606C12.1913 67.0168 12.315 68.0317 12.2655 68.997C12.1995 70.2925 12.183 71.1506 12.1913 71.5961C12.3233 75.7052 13.0824 79.6245 14.4686 83.3623C14.8729 84.4514 15.3844 85.5158 15.995 86.572C16.2591 87.0175 16.6716 87.5291 16.8779 87.9169C16.9439 88.0407 16.9439 88.1314 16.8862 88.1974C16.8119 88.2799 16.6799 88.2882 16.5974 88.2139C15.8383 87.6033 14.9801 87.1 14.0395 86.6957C13.3959 86.4152 12.7606 86.1924 12.1335 86.0274C11.5064 85.8624 10.8463 85.7468 10.1367 85.6973C10.1285 85.6973 10.1285 85.7056 10.1285 85.7056C10.1285 85.7056 10.1285 85.7138 10.1367 85.7138C12.2738 86.3657 14.254 87.3723 16.0693 88.7173C17.0264 89.4269 17.6865 90.252 18.4044 91.2173C19.5678 92.7851 20.9292 94.1795 22.4887 95.4089C23.289 96.0443 24.1471 96.5806 25.063 97.0344C25.2445 97.1252 25.2363 97.3397 25.0713 97.4552C25.0465 97.4717 25.0218 97.48 24.9888 97.48C23.124 97.3727 21.2923 97.4387 19.4935 97.6862C18.2806 97.8513 17.1502 98.1235 16.0775 98.5113C15.7805 98.6186 15.5 98.7424 15.2277 98.8909C15.2194 98.8992 15.2112 98.9157 15.2194 98.9239C15.2277 98.9322 15.2359 98.9404 15.2524 98.9322C16.6469 98.5608 18.1073 98.3216 19.642 98.2226C23.4623 97.9668 27.2083 98.3876 30.8966 99.485C32.2498 99.8893 33.7515 100.442 35.1129 100.871C39.486 102.241 42.1181 103.074 43.0258 103.363C43.1908 103.413 43.2568 103.512 43.232 103.66C43.2155 103.751 43.133 103.825 43.034 103.842C40.8722 104.147 38.7682 104.98 37.0272 106.218C36.7549 106.416 36.4991 106.622 36.2763 106.845C39.7831 104.766 43.4796 103.982 47.3659 104.477C52.9436 105.195 57.9273 108.446 61.6321 112.571C66.1207 117.58 69.1158 123.892 70.5515 130.501C70.5845 130.641 70.4938 130.782 70.3535 130.815C70.337 130.815 70.3123 130.823 70.2958 130.823H70.2793C70.0895 130.823 69.9162 130.699 69.8419 130.517C68.4475 126.771 66.3847 123.43 63.6536 120.509C57.3085 113.702 47.7207 109.683 38.3886 111.639C37.9761 111.721 37.4892 111.87 36.9199 112.084C35.2202 112.712 33.4792 113.198 31.6887 113.545C30.8141 113.718 29.956 113.809 29.1143 113.817C28.6688 113.825 27.2413 113.693 28.0417 112.901C29.0731 111.878 30.0055 110.228 29.1473 108.792C28.2645 107.315 26.1852 106.573 24.568 106.185C22.8435 105.772 20.9952 105.657 19.2872 105.558C18.4704 105.517 17.7195 105.426 17.0264 105.286C13.891 104.675 10.64 103.256 8.44524 100.896C7.78514 100.186 7.24057 99.3695 6.81151 98.4453C6.70425 98.2143 6.67125 97.9503 6.96004 97.8925C6.99305 97.8843 7.0178 97.8843 7.0508 97.8925C7.7769 98.0328 8.40398 98.041 8.94856 97.9338C11.0939 97.48 10.6235 95.3842 9.88094 93.9567C9.06408 92.3807 7.83466 91.0111 6.50623 89.8147C6.2917 89.6166 5.80488 89.2206 5.04577 88.6265C3.73384 87.5868 2.61169 86.3904 1.67106 85.0372C0.928457 83.9728 0.433383 82.9249 0.169347 81.9101C-0.0534341 81.0354 -0.102942 79.9958 0.309614 79.1872C0.367372 79.0717 0.491148 79.0057 0.614915 79.0222C0.804691 79.0469 0.944959 79.41 1.07698 79.6823C1.53904 80.5981 2.29815 81.6955 3.32129 81.9596C4.31967 82.2154 5.07878 81.1922 5.43358 80.4331C5.82963 79.5915 6.09367 78.6426 6.22569 77.5782C6.50623 75.3752 6.41546 73.1721 5.96165 70.9526C5.81313 70.243 5.6151 69.5416 5.35932 68.8403C5.05403 67.9821 4.80649 67.2891 4.63321 66.761C3.64308 63.7823 2.98299 60.6386 2.98299 57.5115C2.98299 54.9618 3.57707 52.0245 5.45008 50.1679C5.48309 50.1349 5.52434 50.1102 5.57384 50.1102C5.78837 50.0854 5.90389 50.1679 5.9369 50.366C5.94515 50.399 5.94515 50.432 5.92865 50.465C5.80488 50.9023 5.73887 51.3974 5.73062 51.9502C5.71411 54.2853 7.70264 53.947 9.07233 53.1301C9.93045 52.6185 10.7391 51.9832 11.4982 51.2323C13.3959 49.3428 15.0049 46.8922 15.764 44.3179C16.1353 43.072 16.4158 42.1396 16.6221 41.5043C17.0759 40.0933 17.736 38.7814 18.5941 37.5602C18.7427 37.3539 19.2625 36.6361 19.5183 36.5948C19.642 36.5783 19.7658 36.6526 19.8071 36.7763C20.1866 38.0223 20.8467 39.359 21.9936 39.9778C23.19 40.6296 24.5762 40.0025 25.5333 39.1362C26.3997 38.3523 27.1423 37.4117 27.7777 36.3143C29.1803 33.8637 30.0715 31.1986 30.6408 28.3932C30.7316 27.9641 30.8471 27.1968 30.9956 26.1076C31.1524 24.969 31.9032 20.3318 33.0419 19.9605C33.2482 19.8945 33.5039 20.1833 33.6772 20.2823C35.8968 21.5035 38.4381 20.0926 40.0966 18.5826C43.2733 15.6864 45.3361 11.5279 46.5655 7.45181C47.2586 5.14974 47.6381 2.75692 47.7124 0.281575C47.7207 -0.0319683 48.0672 -0.0979771 48.2322 0.157808C48.9418 1.24696 49.1481 2.76517 49.1233 4.0771C49.0738 6.69271 48.4055 9.31657 47.5226 11.7837C46.0457 15.9257 44.0737 19.7873 41.7798 23.6488C41.3013 24.4492 40.7237 25.3155 40.0388 26.2644C38.9002 27.8404 37.6295 29.6226 36.2351 31.6029C36.1526 31.7184 36.0535 31.8174 35.938 31.8834C35.8555 31.9329 35.74 31.9082 35.6988 31.8257C35.6988 31.8174 35.6905 31.8092 35.6905 31.8092C35.6245 31.6606 35.6245 31.5039 35.6575 31.3388C35.905 30.0269 35.8473 28.7232 35.4925 27.4113C35.4925 27.4031 35.4842 27.3948 35.476 27.3948C35.4677 27.3948 35.4595 27.4031 35.4595 27.4113C35.5667 29.6226 35.1707 31.6937 34.2796 33.6327C33.6525 34.9941 32.7283 36.6113 31.6722 38.0058C30.3685 39.7385 26.6638 44.6397 20.5827 52.7258C20.4919 52.8413 20.3764 52.9486 20.2279 53.0476C20.1949 53.0723 20.1536 53.0723 20.1123 53.0476C19.9226 52.9238 19.9061 52.7836 19.9803 52.5525C20.6982 50.3495 20.8715 47.8494 20.2196 45.5968C20.2196 45.5886 20.2031 45.5803 20.1949 45.5803C20.1866 45.5803 20.1784 45.5886 20.1784 45.5968C20.1453 48.2289 19.7493 50.8115 18.9819 53.3364C18.3796 55.3167 17.5793 57.0081 16.4241 58.5511C15.83 59.3432 15.5495 59.7063 15.2607 60.2013C15.1122 60.4489 14.8564 60.9769 14.4768 61.769C13.726 63.345 13.2061 64.9787 12.9091 66.6537C12.8843 66.7775 12.8183 66.8682 12.7111 66.926C12.6781 66.9425 12.6451 66.9425 12.6203 66.926C12.4966 66.8765 12.4305 66.794 12.4305 66.695C12.4388 65.5646 12.0675 64.4012 11.5724 63.279C10.8711 61.703 9.88094 60.3416 8.61027 59.2029C8.60202 59.1947 8.59377 59.1864 8.58552 59.1864L8.503 59.1287C8.49475 59.1204 8.47825 59.1287 8.47 59.1369C8.4865 59.1864 8.48649 59.1947 8.48649 59.2029Z" fill="black"/>
<path d="M142.881 59.2194C142.84 59.2524 142.765 59.3102 142.666 59.3927C140.901 60.9357 139.465 63.4522 139.052 65.8616C139.003 66.1339 138.986 66.4144 138.995 66.7032C139.003 67.025 138.574 67.0745 138.516 66.7197C138.153 64.6074 137.369 62.5446 136.346 60.6056C135.843 59.6567 135.257 58.9719 134.605 58.056C134.193 57.4784 133.772 56.7276 133.351 55.8199C132.798 54.6235 132.328 53.1961 131.94 51.5294C131.486 49.5903 131.255 47.6183 131.239 45.605C131.239 45.5968 131.23 45.5885 131.222 45.5885C131.214 45.5885 131.214 45.5968 131.206 45.5968C130.546 47.8576 130.711 50.3494 131.428 52.569C131.494 52.7835 131.503 52.8908 131.362 53.0393C131.313 53.0888 131.239 53.0971 131.189 53.0641C131.049 52.9733 130.933 52.866 130.843 52.7423C130.62 52.4452 126.89 47.5028 119.654 37.8985C119.142 37.2219 118.647 36.4545 118.169 35.6129C117.624 34.6475 117.212 33.8389 116.939 33.1788C116.189 31.3718 115.867 29.4576 115.966 27.4278C115.966 27.4195 115.958 27.4113 115.949 27.403C115.941 27.403 115.933 27.4113 115.925 27.4195C115.561 28.7397 115.512 30.0929 115.776 31.4791C115.801 31.6194 115.76 31.7596 115.636 31.8999C115.611 31.9329 115.57 31.9412 115.537 31.9247C115.405 31.8586 115.306 31.7844 115.24 31.6936C113.433 29.1358 112.113 27.2875 111.279 26.1406C110.644 25.266 110.074 24.3914 109.563 23.5333C107.352 19.8037 105.437 16.0577 103.993 12.0724C103.012 9.37431 102.236 6.41215 102.294 3.57376C102.318 2.4186 102.558 1.15617 103.177 0.141284C103.243 0.0340193 103.375 -0.0237385 103.49 0.009266C103.622 0.0422705 103.688 0.124781 103.696 0.256799C103.762 2.37734 104.035 4.35762 104.505 6.21412C105.413 9.76211 106.898 13.1698 109.051 16.0825C110.355 17.8482 112.014 19.5067 114.052 20.3648C115.355 20.9176 116.939 20.9259 118.095 20.0265C118.532 19.68 119.027 20.6701 119.151 20.9672C119.324 21.3797 119.489 21.8583 119.646 22.3946C119.959 23.5002 120.207 24.6637 120.38 25.8848C120.553 27.0895 120.677 27.8899 120.751 28.3024C121.098 30.1177 121.626 31.8917 122.319 33.6326C123.07 35.5139 124.077 37.3292 125.471 38.7731C126.849 40.2005 128.846 41.0339 130.372 39.2104C130.966 38.5008 131.321 37.684 131.618 36.7763C131.651 36.6773 131.742 36.6031 131.857 36.5948C131.94 36.5948 132.023 36.6278 132.105 36.7103C132.41 37.0239 132.683 37.3539 132.922 37.7087C133.714 38.8556 134.333 40.1098 134.778 41.463C134.935 41.9415 135.166 42.6841 135.463 43.7073C135.736 44.6479 136 45.3823 136.239 45.9186C137.146 47.9401 138.475 49.8214 140.076 51.3808C141.115 52.3957 142.592 53.5509 144.036 53.7324C146 53.9799 145.827 51.6284 145.497 50.4567C145.431 50.2339 145.686 50.0442 145.901 50.1184C145.983 50.1514 146.082 50.2339 146.206 50.3659C147.823 52.2472 148.409 54.7556 148.451 57.2226C148.508 60.6386 147.741 64.0958 146.611 67.3138C146.132 68.6752 145.736 69.6736 145.488 70.8865C145.051 72.9741 144.944 75.0863 145.167 77.1986C145.266 78.1558 145.472 79.0551 145.785 79.905C146.355 81.448 147.658 82.9249 149.243 81.2747C149.771 80.7301 150.208 80.0783 150.546 79.3192C150.645 79.1047 150.769 78.9479 151.017 79.0551C151.041 79.0634 151.066 79.0881 151.083 79.1129C151.487 79.7647 151.495 80.7879 151.347 81.5305C151.182 82.3556 150.876 83.1642 150.431 83.9563C149.391 85.8128 147.906 87.4301 146.239 88.742C145.629 89.2205 145.233 89.5423 145.051 89.6991C143.863 90.7305 142.848 91.8774 142.023 93.1316C141.561 93.8412 141.231 94.5508 141.049 95.2604C140.422 97.7192 142.46 98.272 144.374 97.876C144.399 97.8677 144.416 97.8677 144.44 97.876C144.63 97.9007 144.721 98.008 144.713 98.1895C144.713 98.2225 144.705 98.2473 144.696 98.2803C142.972 102.332 138.425 104.477 134.349 105.294C133.797 105.401 133.277 105.475 132.773 105.508C132.245 105.541 131.453 105.591 130.405 105.665C128.945 105.764 127.608 105.979 126.379 106.3C124.671 106.754 122.088 107.835 121.956 109.881C121.882 111.07 122.765 112.299 123.582 113.083C123.606 113.108 123.623 113.141 123.631 113.174C123.837 113.9 122.03 113.809 121.709 113.792C121.032 113.743 120.397 113.66 119.811 113.553C117.781 113.165 115.817 112.596 113.903 111.853C113.721 111.779 113.235 111.672 112.443 111.523C107.088 110.517 101.452 111.548 96.5591 113.974C89.6694 117.39 84.2897 123.322 81.5998 130.534C81.5503 130.674 81.4348 130.782 81.2698 130.864C81.2368 130.881 81.2038 130.881 81.179 130.872C80.9645 130.815 80.882 130.683 80.9232 130.484C81.8556 126.186 83.4151 122.143 85.6099 118.372C89.4466 111.779 95.7258 105.847 103.482 104.576C107.533 103.916 111.584 104.691 115.091 106.812C115.099 106.82 115.108 106.82 115.116 106.812C115.124 106.804 115.124 106.795 115.116 106.787C114.951 106.622 114.753 106.465 114.538 106.309C112.74 105.013 110.693 104.188 108.408 103.842C108.135 103.8 108.185 103.454 108.408 103.379C112.261 102.158 114.893 101.333 116.304 100.896C117.839 100.417 119.951 99.6252 121.676 99.1797C126.362 97.975 131.536 97.7192 136.189 98.9321C136.206 98.9321 136.222 98.9239 136.222 98.9156C136.222 98.8991 136.222 98.8909 136.206 98.8826C135.769 98.6516 135.298 98.4618 134.803 98.3133C132.146 97.5129 129.382 97.3397 126.494 97.4799C126.222 97.4964 126.181 97.1499 126.395 97.0426C127.311 96.5888 128.161 96.0525 128.961 95.4254C130.62 94.1217 132.072 92.6035 133.318 90.8708C133.764 90.2519 134.358 89.5506 135.009 89.0225C136.627 87.7023 138.714 86.5884 140.645 85.9366C140.868 85.8623 141.107 85.8128 141.322 85.7138C141.322 85.7138 141.33 85.7138 141.338 85.7138C140.925 85.7221 140.538 85.7633 140.175 85.8376C138.739 86.1264 137.386 86.6214 136.132 87.3475C135.645 87.6281 135.166 88.0324 134.82 88.2469C134.729 88.2964 134.613 88.2717 134.564 88.1809C134.539 88.1479 134.531 88.0984 134.539 88.0571C134.556 87.9664 134.589 87.8756 134.655 87.7848C135.216 87.0175 135.694 86.2419 136.082 85.4415C137.46 82.6114 138.293 79.5832 138.821 76.39C139.25 73.8074 139.366 71.2578 139.184 68.7495C139.16 68.4029 139.193 67.9409 139.275 67.3715C139.721 64.4671 141.115 61.571 142.947 59.2524C142.955 59.2359 142.955 59.2194 142.939 59.2112C142.906 59.2112 142.898 59.2112 142.881 59.2194Z" fill="black"/>
<path d="M113.614 36.9744C115.108 37.5849 116.519 38.5008 117.864 39.4992C121.329 42.0818 124.44 45.242 127.163 48.6497C128.392 50.1844 129.506 51.7934 130.504 53.4684C130.562 53.5591 130.562 53.6499 130.521 53.7489C130.372 54.079 130.125 53.9222 129.885 53.7572C128.153 52.5443 126.288 51.6201 124.283 50.9848C123.268 50.663 122.228 50.4815 121.172 50.4402C121.156 50.4402 121.148 50.4485 121.148 50.465C121.148 50.4732 121.156 50.4897 121.164 50.4897C121.758 50.696 122.204 50.8528 122.484 50.96C126.073 52.272 129.184 54.1367 131.8 56.5708C136.396 60.8284 138.978 66.7857 138.764 73.0648C138.409 83.3045 131.453 92.0837 123.087 97.3149C122.88 97.4469 122.715 97.5955 122.484 97.4057C122.303 97.2654 122.294 97.1086 122.451 96.9354C123.738 95.4997 124.522 93.6679 125.05 91.8032C125.867 88.9318 126.131 86.0439 125.834 83.1395C125.71 81.9018 125.446 80.7466 125.05 79.674C124.885 79.2284 124.687 78.8159 124.456 78.4528C124.448 78.4446 124.431 78.4363 124.423 78.4446C124.415 78.4528 124.407 78.4611 124.415 78.4693C125.273 81.1344 125.578 84.0636 125.149 86.8112C124.671 89.9054 123.359 92.6778 121.23 95.1119C116.873 100.087 110.058 102.513 103.672 103.346C103.383 103.388 103.111 103.429 102.855 103.322C102.756 103.28 102.706 103.173 102.747 103.074C102.747 103.066 102.756 103.058 102.764 103.041C103.68 101.548 104.323 99.9553 104.711 98.2473C104.711 98.2473 104.711 98.2473 104.711 98.239L104.67 98.2143C104.662 98.206 104.645 98.2143 104.637 98.2225C104.637 98.2225 104.637 98.2225 104.637 98.2308C104.365 99.0889 103.919 100.03 103.292 101.061C102.706 102.01 102.03 102.818 101.246 103.487C100.858 103.809 100.396 104.048 99.8843 104.262C97.6153 105.211 95.47 106.548 93.4402 108.264C89.6117 111.515 86.4928 115.599 84.1742 120.039C82.2764 123.677 80.9727 127.349 80.2714 131.046C80.2631 131.079 80.2549 131.103 80.2384 131.136C80.1559 131.26 80.0404 131.301 79.8836 131.244C79.8011 131.211 79.7433 131.128 79.7433 131.037C79.8423 125.765 80.6179 120.649 82.0701 115.698C82.722 113.487 83.5718 111.259 84.6032 109.131C85.7997 106.655 87.3344 104.271 89.2981 102.365C90.1975 101.498 91.2371 100.723 92.3593 100.203C92.5986 100.096 92.8049 99.9965 92.9781 99.9058C93.0606 99.8645 93.1514 99.8975 93.1927 99.9718C93.2009 99.9883 93.2092 100.005 93.2092 100.021C93.2834 100.459 93.2834 100.896 93.5805 101.308C94.3478 102.398 96.0641 101.473 96.8644 100.846C98.8117 99.3117 100.099 97.3067 100.924 94.9468C101.155 94.2868 101.279 93.4039 101.444 92.8428C101.741 91.7867 102.698 89.1628 103.886 88.874C104.018 88.841 104.15 88.907 104.2 89.0308C104.893 90.6645 106.097 91.9599 108.028 91.5721C108.721 91.4319 109.414 91.1101 110.099 90.5985C112.17 89.0638 113.68 86.6792 114.769 84.2864C115.958 81.6708 116.675 78.9231 116.939 76.0352C116.972 75.6309 116.989 75.0369 116.964 74.2365C116.923 72.512 117.047 70.7958 117.327 69.0713C117.451 68.3287 117.781 66.6454 118.482 66.3319C118.565 66.2906 118.672 66.3237 118.722 66.3979C119.473 67.5283 120.223 68.5597 121.255 69.3766C121.832 69.8386 122.699 70.2842 123.417 69.9707C124.803 69.3766 124.629 66.3319 124.464 65.2097C123.961 61.9093 122.748 58.9059 120.826 56.216C120.413 55.6384 119.902 55.0939 119.291 54.574C119.085 54.4008 118.606 54.0872 117.855 53.6499C116.081 52.602 114.448 51.2983 112.962 49.7554C112.575 49.3511 112.08 48.7487 111.824 48.2784C111.485 47.6513 111.353 47.2965 111.469 46.6612C111.51 46.4467 111.642 46.4302 111.832 46.4632C113.251 46.7024 115.413 46.5292 115.149 44.4664C115.091 44.0126 114.967 43.6 114.778 43.2205C113.755 41.1742 111.939 39.5075 110.025 38.2368C109.777 38.0718 109.282 37.7582 108.54 37.3044C108.259 37.1311 107.896 36.8341 107.451 36.4133C106.568 35.5799 105.817 34.7631 105.314 33.7152C105.198 33.4676 104.951 32.89 105.091 32.692C105.165 32.5848 105.305 32.56 105.404 32.6343C105.974 33.0221 106.584 33.2696 107.236 33.3851C108.086 33.5336 108.804 33.1706 108.911 32.2547C109.043 31.1078 108.391 29.8041 107.723 28.8552C107.426 28.4262 107.005 27.9311 106.46 27.37C106.345 27.2545 105.949 26.9327 105.264 26.4047C104.356 25.7116 103.54 24.8699 102.822 23.8798C102.475 23.4095 102.211 22.9144 102.021 22.3863C101.906 22.0728 101.774 21.5035 101.955 21.2064C102.013 21.1074 102.145 21.0744 102.244 21.1322C102.285 21.1569 102.409 21.2394 102.624 21.388C103.35 21.883 104.579 22.3286 104.86 21.0414C104.934 20.7031 104.934 20.3236 104.876 19.9028C104.81 19.4242 104.662 18.8631 104.447 18.2195C104.191 17.4604 103.878 16.6518 103.498 15.8019C102.962 14.589 102.731 13.9784 102.277 12.8975C101.419 10.8348 100.957 8.49143 100.817 6.27188C100.726 4.86093 100.784 3.37573 101.213 2.02254C101.32 1.6925 101.848 0.463078 102.285 0.54559C102.409 0.570343 102.492 0.644604 102.533 0.776622C102.541 0.809627 102.541 0.84263 102.533 0.875635C102.203 1.77501 102.038 2.72389 102.03 3.73053C102.021 5.02596 102.145 6.32138 102.401 7.61681C102.78 9.54758 103.3 11.4288 103.952 13.2523C105.487 17.5347 107.574 21.4952 110.207 25.1505C110.297 25.2742 110.289 25.398 110.182 25.5135C110.099 25.6043 109.967 25.629 109.868 25.5713C109.208 25.2 108.441 24.9029 107.55 24.6637C107.459 24.6389 107.376 24.6307 107.302 24.6307C107.294 24.6307 107.286 24.6389 107.286 24.6472C107.286 24.6554 107.286 24.6554 107.294 24.6637C108.54 25.2825 109.637 26.1489 110.743 27.073C111.642 27.8238 112.344 28.6242 112.962 29.4906C113.309 29.9774 113.499 30.2497 113.532 30.2909C117.888 36.2153 120.364 39.5652 120.941 40.3491C120.999 40.4233 121.049 40.5223 121.09 40.6379C121.098 40.6709 121.09 40.7121 121.065 40.7451C120.867 40.9349 120.669 40.8854 120.471 40.7121C118.953 39.4249 117.203 38.2698 115.438 37.5189C114.943 37.3044 114.357 37.1146 113.68 36.9413C113.672 36.9413 113.664 36.9414 113.655 36.9496L113.647 36.9744C113.606 36.9661 113.606 36.9744 113.614 36.9744Z" fill="black"/>
<path d="M37.8275 36.9414C37.8275 36.9331 37.8193 36.9249 37.811 36.9249C37.1344 37.0982 36.5486 37.2879 36.0535 37.5025C34.2878 38.2533 32.5386 39.4002 31.0203 40.6956C30.8223 40.8689 30.6243 40.9184 30.4263 40.7287C30.4015 40.7039 30.385 40.6626 30.4015 40.6214C30.4428 40.5059 30.4923 40.4069 30.55 40.3326C31.1276 39.5487 33.5947 36.1988 37.9596 30.2745C37.9926 30.2332 38.1823 29.9692 38.5289 29.4741C39.1477 28.6077 39.8491 27.7991 40.7484 27.0565C41.8541 26.1406 42.9432 25.266 44.1974 24.6472C44.2057 24.6389 44.2057 24.6307 44.2057 24.6224C44.2057 24.6142 44.1974 24.6142 44.1892 24.6142C44.1149 24.6142 44.0324 24.6224 43.9416 24.6472C43.0505 24.8865 42.2831 25.1918 41.6231 25.5548C41.524 25.6126 41.392 25.5878 41.3095 25.4971C41.2022 25.3815 41.2022 25.2578 41.2848 25.134C43.9169 21.487 45.9962 17.5182 47.5391 13.2441C48.191 11.4206 48.7108 9.54761 49.0903 7.60859C49.3461 6.31316 49.4699 5.01773 49.4616 3.7223C49.4534 2.71567 49.2884 1.76678 48.9583 0.86741C48.9501 0.834405 48.9418 0.801402 48.9583 0.768397C48.9913 0.636379 49.0738 0.553867 49.2059 0.537365C49.6432 0.463105 50.1795 1.68427 50.2785 2.01432C50.7076 3.36751 50.7653 4.85271 50.6746 6.26365C50.526 8.48321 50.0722 10.8265 49.2141 12.8893C48.7603 13.9702 48.5293 14.5808 48.0012 15.7937C47.6216 16.6436 47.3081 17.4522 47.0523 18.2113C46.8295 18.8631 46.6893 19.4242 46.6232 19.8945C46.5655 20.3153 46.5655 20.6949 46.6397 21.0332C46.912 22.3204 48.1414 21.8748 48.8758 21.3797C49.0903 21.2312 49.2141 21.1487 49.2554 21.124C49.3544 21.0662 49.4781 21.0909 49.5442 21.19C49.7257 21.487 49.5854 22.0563 49.4781 22.3699C49.2884 22.8979 49.0243 23.393 48.6778 23.8633C47.9517 24.8452 47.1431 25.6868 46.2354 26.3882C45.5506 26.9163 45.1545 27.238 45.039 27.3536C44.4945 27.9229 44.0736 28.418 43.7766 28.8388C43.1083 29.7876 42.4564 31.0913 42.5884 32.2382C42.6875 33.1541 43.4136 33.5172 44.2634 33.3686C44.9153 33.2531 45.5258 33.0056 46.0952 32.6178C46.2024 32.5435 46.3427 32.5765 46.4087 32.6755C46.5407 32.8736 46.3015 33.4511 46.1859 33.6987C45.6826 34.7466 44.94 35.5717 44.0489 36.3968C43.6033 36.8176 43.2403 37.1147 42.9597 37.2879C42.2171 37.75 41.7221 38.0553 41.4745 38.2203C39.5603 39.4827 37.745 41.1577 36.7219 43.204C36.5321 43.5835 36.4083 43.9961 36.3506 44.4499C36.0865 46.5127 38.2483 46.686 39.6675 46.4467C39.8573 46.4137 39.9976 46.4302 40.0306 46.6447C40.1461 47.2801 40.0141 47.6349 39.6758 48.2619C39.42 48.7323 38.9249 49.3346 38.5371 49.7389C37.0519 51.2901 35.4182 52.5855 33.6442 53.6334C32.8934 54.079 32.4148 54.3843 32.2085 54.5576C31.5979 55.0774 31.0864 55.622 30.6738 56.1995C28.7513 58.8894 27.5384 61.8928 27.0351 65.1933C26.8618 66.3154 26.6885 69.3601 28.0829 69.9542C28.8008 70.2595 29.6672 69.8222 30.2447 69.3601C31.2761 68.5432 32.027 67.5118 32.7778 66.3814C32.8273 66.2989 32.9346 66.2742 33.0171 66.3154C33.7267 66.6372 34.0568 68.3122 34.1723 69.0548C34.4528 70.7793 34.5766 72.4955 34.5353 74.22C34.5188 75.0121 34.5271 75.6145 34.5601 76.0188C34.8241 78.8984 35.542 81.6543 36.7301 84.2699C37.811 86.6627 39.321 89.0391 41.4003 90.582C42.0851 91.0936 42.7782 91.4154 43.4713 91.5557C45.4103 91.9435 46.615 90.648 47.2998 89.0143C47.3493 88.8905 47.4814 88.8245 47.6134 88.8575C48.8015 89.1546 49.7587 91.7702 50.0557 92.8263C50.2125 93.3957 50.3445 94.2785 50.5755 94.9304C51.4007 97.2902 52.6878 99.2952 54.6351 100.83C55.4272 101.457 57.1434 102.381 57.9191 101.292C58.2078 100.879 58.2161 100.442 58.2903 100.005C58.3069 99.9141 58.3894 99.8563 58.4719 99.8728C58.4884 99.8728 58.5049 99.8811 58.5214 99.8893C58.6947 99.9801 58.9009 100.079 59.1402 100.186C60.2706 100.698 61.3103 101.474 62.2014 102.348C64.1652 104.254 65.6916 106.639 66.8963 109.114C67.9277 111.243 68.7775 113.471 69.4294 115.682C70.8816 120.633 71.6572 125.748 71.7562 131.021C71.7562 131.112 71.6985 131.194 71.6159 131.227C71.4674 131.285 71.3437 131.244 71.2611 131.12C71.2446 131.095 71.2281 131.062 71.2281 131.029C70.5268 127.333 69.2231 123.661 67.3253 120.022C65.0068 115.583 61.8878 111.499 58.0593 108.248C56.0295 106.523 53.8842 105.195 51.6152 104.246C51.1036 104.031 50.6416 103.792 50.2538 103.47C49.4699 102.81 48.7933 102.002 48.2075 101.044C47.5804 100.013 47.1266 99.0724 46.8625 98.2143C46.8625 98.1978 46.846 98.1896 46.8295 98.1978C46.8295 98.1978 46.8295 98.1978 46.8213 98.1978L46.78 98.2226C46.78 98.2226 46.78 98.2226 46.78 98.2308C47.1596 99.9388 47.8114 101.531 48.7273 103.025C48.785 103.116 48.752 103.231 48.6613 103.289C48.653 103.297 48.6448 103.297 48.6283 103.305C48.3642 103.413 48.1002 103.371 47.8114 103.33C41.425 102.488 34.6096 100.071 30.253 95.0954C28.1242 92.6613 26.8123 89.8972 26.3337 86.7948C25.9046 84.0471 26.2017 81.118 27.0681 78.4529C27.0681 78.4364 27.0681 78.4281 27.0515 78.4198C27.0433 78.4198 27.0268 78.4199 27.0268 78.4281C26.7958 78.7912 26.5977 79.2037 26.4327 79.6493C26.0367 80.7219 25.7726 81.8771 25.6489 83.1147C25.3601 86.0191 25.6159 88.907 26.4327 91.7784C26.9608 93.6432 27.7529 95.4749 29.0401 96.9106C29.1968 97.0839 29.1804 97.2407 29.0071 97.381C28.7678 97.5625 28.611 97.414 28.4047 97.2902C20.0463 92.0672 13.0906 83.2798 12.7276 73.0484C12.5048 66.7692 15.0874 60.8202 19.6833 56.5626C22.2989 54.1368 25.4096 52.2637 28.9988 50.9518C29.2876 50.8445 29.7249 50.6878 30.319 50.4815C30.3355 50.4815 30.3438 50.465 30.3355 50.4485C30.3355 50.4402 30.319 50.432 30.3107 50.432C29.2546 50.4732 28.215 50.6465 27.2001 50.9766C25.2033 51.6119 23.3385 52.536 21.5975 53.7489C21.3583 53.914 21.1107 54.0707 20.9622 53.7407C20.921 53.6417 20.921 53.5509 20.9787 53.4602C21.9771 51.7852 23.091 50.1845 24.3204 48.6415C27.0433 45.2338 30.154 42.0736 33.6195 39.491C34.9561 38.4926 36.3753 37.5767 37.8688 36.9661C37.877 36.9661 37.877 36.9579 37.877 36.9496L37.8275 36.9414ZM27.0515 78.4033V78.3951H27.0433C27.0351 78.4033 27.0268 78.4116 27.0268 78.4198C27.0268 78.4198 27.0268 78.4281 27.0351 78.4281C27.0433 78.4199 27.0515 78.4198 27.0515 78.4033Z" fill="black"/>
<path d="M75.725 24.9442C75.7333 24.9442 75.7415 24.9442 75.7415 24.9525C75.89 25.0432 76.0303 25.1835 76.1623 25.3485C76.2283 25.431 76.5584 25.8436 77.1442 26.5697C77.1772 26.6027 77.1855 26.6522 77.1855 26.6935L76.4841 45.3905C76.4841 45.473 76.4099 45.5391 76.3273 45.5391C76.2861 45.5391 76.0881 45.5391 75.725 45.5391C75.362 45.5391 75.1639 45.5391 75.1227 45.5391C75.0402 45.5391 74.9659 45.473 74.9659 45.3905L74.2563 26.6935C74.2563 26.6439 74.2728 26.6027 74.2976 26.5697C74.8834 25.8436 75.2135 25.4393 75.2795 25.3485C75.4197 25.1752 75.56 25.0432 75.7003 24.9525C75.7085 24.9442 75.7168 24.9442 75.725 24.9442Z" fill="black"/>
<path d="M73.522 45.572C73.456 45.572 73.4064 45.5225 73.3982 45.4648L70.7826 28.0631C70.7743 27.9971 70.7826 27.9311 70.8156 27.8733L71.847 26.0911C71.9047 25.9921 72.0285 25.9591 72.1275 26.0168L73.7777 26.9657C73.8603 27.0152 73.918 27.106 73.9263 27.205C74.0995 30.621 74.4131 36.6608 74.8586 45.341C74.8669 45.4895 74.8009 45.572 74.6524 45.572C74.2563 45.572 73.885 45.572 73.522 45.572Z" fill="black"/>
<path d="M77.9198 45.5803C77.565 45.5803 77.1855 45.5803 76.7977 45.5803C76.6492 45.5803 76.5831 45.506 76.5914 45.3492C77.037 36.669 77.3505 30.621 77.5238 27.205C77.532 27.106 77.5815 27.0152 77.6723 26.9657L79.3225 26.0168C79.4215 25.9591 79.5453 25.9921 79.6031 26.0911L80.6344 27.8733C80.6674 27.9311 80.684 27.9971 80.6675 28.0631L78.0518 45.473C78.0353 45.5308 77.9776 45.572 77.9198 45.5803Z" fill="black"/>
<path d="M71.8387 45.6546L68.3732 29.4576C68.365 29.4329 68.365 29.3999 68.3732 29.3669L68.9261 27.5104C68.9508 27.4196 69.0498 27.3701 69.1406 27.3948C69.1571 27.3948 69.1654 27.4031 69.1819 27.4113L70.5928 28.2282C70.6423 28.253 70.6671 28.3025 70.6753 28.352L73.1589 45.4483C73.1754 45.5391 73.1094 45.6298 73.0104 45.6464L72.0285 45.7866C71.9377 45.8031 71.8552 45.7454 71.8387 45.6546Z" fill="black"/>
<path d="M78.2746 45.473L80.7665 28.3602C80.783 28.2776 80.8324 28.1951 80.9067 28.1621L82.2847 27.4443C82.3672 27.403 82.4662 27.436 82.5074 27.5185C82.5157 27.5268 82.5157 27.535 82.5157 27.5433L83.0438 29.2843C83.0685 29.3668 83.0685 29.4493 83.052 29.5318L79.603 45.6298C79.5865 45.7205 79.4958 45.7866 79.3968 45.7701L78.3901 45.6215C78.3159 45.6298 78.2664 45.5555 78.2746 45.473Z" fill="black"/>
<path d="M70.6836 46.0506C70.6093 46.0671 70.5433 46.0258 70.5268 45.9598L66.1207 31.5946C66.0877 31.4956 66.0794 31.3966 66.096 31.2976L66.3105 29.5731C66.3187 29.4741 66.4095 29.3998 66.5085 29.4163L68.0845 29.6061C68.0927 29.6061 68.101 29.6143 68.1175 29.6143C68.1752 29.6556 68.2165 29.7628 68.2577 29.9361C68.4723 30.9428 69.6192 36.1905 71.6737 45.671C71.6902 45.7618 71.6407 45.8443 71.5499 45.8608L70.6836 46.0506Z" fill="black"/>
<path d="M80.7582 46.0589L79.9001 45.8773C79.8093 45.8608 79.7598 45.7701 79.7763 45.6876C81.8391 36.207 82.9778 30.9593 83.1923 29.9526C83.2336 29.7794 83.2748 29.6721 83.3326 29.6309C83.3408 29.6226 83.3491 29.6226 83.3656 29.6226L84.9415 29.4328C85.0405 29.4246 85.1313 29.4906 85.1396 29.5896L85.3541 31.3141C85.3706 31.4131 85.3541 31.5121 85.3293 31.6111L80.9232 45.9764C80.8985 46.0341 80.8242 46.0671 80.7582 46.0589Z" fill="black"/>
<path d="M64.9655 33.8142C65.048 33.7977 65.1883 33.8224 65.3863 33.8802C65.6586 33.9627 66.0629 34.0782 66.5993 34.2432C66.6735 34.268 66.7313 34.3175 66.7478 34.3917L70.3205 46.0423C70.3453 46.1084 70.304 46.1826 70.2297 46.2074L69.5036 46.4301C69.4211 46.4549 69.3304 46.4136 69.2974 46.3394L64.553 35.7944C64.5447 35.7697 64.5365 35.7367 64.5447 35.7037L64.883 33.8967C64.8995 33.8554 64.9243 33.8224 64.9655 33.8142Z" fill="black"/>
<path d="M86.5505 33.8885L86.8888 35.6955C86.8971 35.7285 86.8888 35.7532 86.8806 35.7862L82.1362 46.3394C82.1032 46.4219 82.0124 46.4549 81.9299 46.4302L81.2038 46.2074C81.1378 46.1827 81.0965 46.1166 81.113 46.0424L84.6858 34.3835C84.7105 34.3093 84.7683 34.2515 84.8343 34.235C85.3706 34.07 85.7749 33.9545 86.0472 33.872C86.2452 33.8142 86.3855 33.7977 86.468 33.8059C86.5175 33.8224 86.5505 33.8555 86.5505 33.8885Z" fill="black"/>
<path d="M69.1406 46.5705L68.695 46.884C68.596 46.95 68.464 46.9253 68.398 46.8345L64.5035 41.265C64.4622 41.2155 64.454 41.1412 64.4705 41.0835L64.7923 40.0108C64.8253 39.9035 64.9325 39.8458 65.0398 39.8623L65.9804 40.0356C66.0464 40.0521 66.1042 40.0933 66.1289 40.1511L69.2066 46.2982C69.2561 46.3972 69.2314 46.5127 69.1406 46.5705Z" fill="black"/>
<path d="M86.5092 39.8623C86.567 39.854 86.6165 39.887 86.633 39.9448L86.9548 41.0917C86.9713 41.1577 86.963 41.2237 86.9218 41.2815L83.0768 46.785C82.9942 46.9087 82.821 46.9418 82.6972 46.8592L82.3342 46.62C82.2269 46.5457 82.1857 46.4054 82.2434 46.2817L85.3293 40.1098C85.3541 40.0686 85.3953 40.0356 85.4448 40.0273L86.5092 39.8623Z" fill="black"/>
<path d="M75.725 45.77C75.7415 45.77 75.7497 45.77 75.7497 45.77C76.6079 46.2238 77.2515 47.2717 77.5403 48.1711C77.5485 48.1959 77.5733 48.2124 77.598 48.2041C77.6063 48.2041 77.6228 48.1876 77.6228 48.1793C78.0353 47.2717 78.7119 46.6281 79.6525 46.2403C79.7516 46.1991 79.8588 46.2238 79.9331 46.2981C80.5024 46.8592 80.7417 47.6843 80.9232 48.4351C80.9315 48.4681 80.9645 48.4846 80.9975 48.4764C81.0057 48.4764 81.014 48.4681 81.0222 48.4599C81.5586 47.9483 82.1774 47.5935 82.8787 47.379C83.3656 47.2305 83.4481 47.4863 83.4893 47.8988C83.5636 48.5919 83.5306 49.2933 83.3903 50.0029C83.3821 50.0359 83.3573 50.0606 83.3325 50.0771C82.5157 50.3824 81.7648 50.8362 81.0552 51.4385C81.0222 51.4633 80.9727 51.4633 80.948 51.4303C80.9397 51.422 80.9315 51.4055 80.9315 51.389C80.8077 50.5144 80.5272 49.5655 79.9578 48.8724C79.9248 48.8312 79.8753 48.8064 79.8258 48.8147C79.6773 48.8229 79.5205 48.8724 79.3555 48.9467C78.6624 49.2602 78.0353 49.6976 77.466 50.2586C77.4165 50.2999 77.3505 50.2999 77.301 50.2586C77.2845 50.2421 77.2762 50.2256 77.2762 50.2091C77.0039 49.351 76.5419 48.6414 75.8818 48.0638C75.824 48.0143 75.7663 47.9896 75.7168 47.9896C75.6673 47.9896 75.6095 48.0143 75.5517 48.0638C74.8916 48.6332 74.4296 49.351 74.1573 50.2091C74.1408 50.2669 74.0748 50.3081 74.0088 50.2834C73.9923 50.2751 73.9758 50.2669 73.9593 50.2586C73.3899 49.6976 72.7546 49.2602 72.0698 48.9467C71.9047 48.8724 71.7397 48.8229 71.5994 48.8147C71.5499 48.8147 71.5004 48.8312 71.4674 48.8724C70.9063 49.5655 70.6176 50.5144 70.4938 51.389C70.4855 51.4303 70.4525 51.4633 70.4113 51.4551C70.3948 51.4551 70.3865 51.4468 70.37 51.4385C69.6687 50.8362 68.9096 50.3824 68.0927 50.0771C68.0597 50.0689 68.0349 50.0359 68.0349 50.0029C67.8947 49.2933 67.8699 48.5919 67.9359 47.8988C67.9772 47.478 68.0597 47.2305 68.5465 47.379C69.2479 47.5935 69.8667 47.9483 70.403 48.4599C70.4278 48.4846 70.4608 48.4846 70.4855 48.4599C70.4938 48.4516 70.4938 48.4434 70.502 48.4351C70.6836 47.6843 70.9311 46.8592 71.4922 46.2981C71.5664 46.2238 71.6737 46.1991 71.7727 46.2403C72.7134 46.6199 73.3899 47.2717 73.8025 48.1793C73.8107 48.2041 73.8437 48.2124 73.8685 48.2041C73.8767 48.1959 73.885 48.1876 73.8932 48.1793C74.182 47.28 74.8256 46.2321 75.6838 45.7783C75.7003 45.77 75.7085 45.77 75.725 45.77Z" fill="black"/>
<path d="M75.725 48.6249C75.7663 48.6249 75.8158 48.6579 75.8735 48.7157C76.4511 49.3923 76.8637 50.1596 77.1112 51.0343C77.1277 51.0838 77.1772 51.1085 77.2185 51.092C77.235 51.0838 77.2515 51.0755 77.2597 51.0673C77.9033 50.3577 78.6789 49.7883 79.5783 49.3758C79.636 49.351 79.7021 49.3675 79.7433 49.417C80.2879 50.1431 80.5767 51.1663 80.6509 52.0409C80.6509 52.0657 80.6757 52.0904 80.7004 52.0822C80.7087 52.0822 80.717 52.0822 80.7252 52.0739C81.8309 51.2901 82.9448 50.3907 84.3474 50.3329C84.397 50.3329 84.4382 50.3659 84.4382 50.4154C84.5372 51.2736 84.2319 52.2059 83.9184 53.0475C83.6874 53.6746 83.3573 54.244 82.9282 54.739C82.9035 54.772 82.854 54.772 82.821 54.7473C82.8045 54.7308 82.7962 54.706 82.7962 54.6813C82.887 53.9717 82.9365 53.3198 82.7385 52.6185C82.7137 52.536 82.6395 52.4782 82.5487 52.47C81.3605 52.4617 80.1394 53.0558 79.2152 53.7819C79.174 53.8149 79.1162 53.8067 79.0832 53.7654C79.0667 53.7489 79.0585 53.7241 79.0667 53.6994C79.141 53.0228 79.009 52.3379 78.6789 51.6449C78.6459 51.5788 78.5799 51.5458 78.5139 51.5623C77.3587 51.8099 76.5006 52.503 75.7828 53.4188C75.7745 53.4271 75.758 53.4354 75.7333 53.4354C75.7085 53.4354 75.692 53.4271 75.6837 53.4188C74.9659 52.503 74.1078 51.8099 72.9526 51.5623C72.8866 51.5458 72.8123 51.5788 72.7876 51.6449C72.4575 52.3379 72.3255 53.0228 72.3998 53.6994C72.408 53.7489 72.3668 53.7984 72.3173 53.8067C72.2925 53.8067 72.2678 53.7984 72.2513 53.7902C71.3354 53.0641 70.106 52.4782 68.9178 52.4782C68.8271 52.4782 68.7528 52.536 68.728 52.6267C68.53 53.3281 68.5795 53.9799 68.6703 54.6895C68.6785 54.7308 68.6455 54.7638 68.6043 54.772C68.5795 54.772 68.5548 54.7638 68.5383 54.7473C68.1092 54.244 67.7792 53.6829 67.5481 53.0558C67.2346 52.2059 66.9293 51.2818 67.0283 50.4237C67.0366 50.3742 67.0778 50.3412 67.1191 50.3412C68.5135 50.3907 69.6357 51.2983 70.7413 52.0822C70.7661 52.0987 70.7908 52.0904 70.8073 52.0739C70.8156 52.0657 70.8156 52.0574 70.8156 52.0492C70.8981 51.1828 71.1786 50.1597 71.7232 49.4253C71.7645 49.3758 71.8305 49.3593 71.8882 49.384C72.7876 49.7966 73.5549 50.3577 74.2068 51.0755C74.2398 51.1085 74.2976 51.1168 74.3306 51.0838C74.3388 51.0755 74.3553 51.059 74.3553 51.0425C74.6029 50.1762 75.0154 49.4005 75.593 48.724C75.626 48.6497 75.6755 48.6249 75.725 48.6249Z" fill="black"/>
<path d="M75.725 54.31C75.7498 54.31 75.758 54.3018 75.7663 54.2935C76.3769 53.3941 77.2515 52.6185 78.3076 52.338C78.3736 52.3215 78.4479 52.3627 78.4644 52.4288C78.6707 53.2209 78.5717 54.145 78.3984 54.9453C78.3984 54.9618 78.4066 54.9784 78.4231 54.9866C78.4314 54.9866 78.4479 54.9866 78.4562 54.9784C79.3803 53.98 80.7747 53.2209 82.1609 53.1549C82.2187 53.1549 82.2764 53.1879 82.2929 53.2456C82.524 54.0377 82.3342 54.9618 82.0866 55.7457C82.0784 55.7705 82.0866 55.7952 82.1114 55.7952C82.1279 55.8035 82.1444 55.7952 82.1526 55.787C82.8127 55.1681 83.5553 54.6896 84.3639 54.3595C84.7848 54.1862 85.2056 54.1285 85.6346 54.1862C85.6759 54.1945 85.7172 54.2275 85.7254 54.2688C85.7502 54.4503 85.7501 54.6648 85.7171 54.9123C85.5439 56.249 85.0158 57.4207 84.1247 58.4191C84.0504 58.5016 83.9762 58.5593 83.8936 58.6006C83.8524 58.6171 83.8029 58.6006 83.7781 58.5593C83.7699 58.5428 83.7699 58.5346 83.7699 58.5181C83.7946 58.2871 83.8029 58.089 83.8111 57.9323C83.8194 57.6022 83.6791 56.3315 83.2088 56.3398C82.3919 56.3563 81.7071 56.6451 81.146 57.2144C81.0965 57.2639 81.0223 57.2639 80.981 57.2144C80.9562 57.1897 80.948 57.1649 80.948 57.1319C80.9315 56.7111 80.7005 55.4734 80.1229 55.4817C79.2152 55.4982 78.2499 56.1583 77.7053 56.8679C77.6723 56.9174 77.598 56.9256 77.5568 56.8844C77.5403 56.8761 77.532 56.8596 77.5238 56.8514C77.1442 56.1253 76.6327 55.5147 75.9808 55.0361C75.8818 54.9618 75.791 54.9206 75.7333 54.9206C75.6673 54.9206 75.5848 54.9618 75.4857 55.0361C74.8339 55.5229 74.3141 56.1253 73.9428 56.8514C73.918 56.9009 73.852 56.9256 73.8025 56.9009C73.786 56.8926 73.7777 56.8844 73.7695 56.8679C73.2167 56.1583 72.2513 55.4982 71.3519 55.4817C70.7826 55.4734 70.5433 56.7111 70.5268 57.1319C70.5268 57.1979 70.469 57.2474 70.403 57.2474C70.37 57.2474 70.3453 57.2309 70.3205 57.2144C69.7594 56.6451 69.0663 56.3563 68.2577 56.3398C67.7874 56.3315 67.6389 57.594 67.6554 57.9323C67.6637 58.0973 67.6719 58.2871 67.6967 58.5181C67.6967 58.5676 67.6637 58.6089 67.6224 58.6089C67.6059 58.6089 67.5894 58.6089 67.5812 58.6006C67.4986 58.5676 67.4244 58.5016 67.3501 58.4191C66.459 57.4207 65.9309 56.2573 65.7576 54.9123C65.7246 54.6648 65.7246 54.4503 65.7494 54.2688C65.7576 54.2275 65.7907 54.1862 65.8402 54.1862C66.2692 54.1285 66.6983 54.1945 67.1108 54.3595C67.9277 54.6896 68.662 55.1681 69.3221 55.787C69.3386 55.8035 69.3634 55.8035 69.3799 55.787C69.3881 55.7787 69.3964 55.7622 69.3881 55.7457C69.1406 54.9618 68.9508 54.0377 69.1819 53.2456C69.1984 53.1879 69.2479 53.1549 69.3139 53.1549C70.7083 53.2209 72.0945 53.9882 73.0186 54.9784C73.0351 54.9949 73.0516 54.9949 73.0681 54.9784C73.0764 54.9701 73.0764 54.9618 73.0764 54.9453C72.9031 54.1367 72.8041 53.2209 73.0104 52.4288C73.0269 52.3627 73.1012 52.3215 73.1672 52.338C74.2233 52.6268 75.0979 53.3941 75.7085 54.2935C75.6838 54.31 75.7003 54.31 75.725 54.31Z" fill="black"/>
<path d="M75.725 55.6714C76.3768 55.6714 77.0864 57.5857 77.2267 58.0972C77.235 58.122 77.2597 58.1302 77.2845 58.1302C77.2927 58.1302 77.301 58.122 77.3092 58.1137C77.9033 57.2474 78.91 56.3562 79.9744 56.183C80.0651 56.1665 80.1476 56.2077 80.1971 56.2902C80.5107 56.843 80.3456 57.9487 80.1724 58.5593C80.1641 58.584 80.1806 58.6088 80.2054 58.617C80.2219 58.6253 80.2384 58.617 80.2466 58.6005C80.9232 57.8249 81.7731 57.2886 82.7797 56.9833C82.887 56.9503 82.9943 56.9998 83.0438 57.0988C83.4151 57.9074 83.2253 58.9636 82.9365 59.7392C82.9283 59.7557 82.9365 59.7805 82.9613 59.7887C82.9778 59.797 82.9943 59.7887 83.0025 59.7804C83.7534 59.0048 85.3293 57.9735 86.4762 58.2375C86.534 58.254 86.5752 58.2952 86.5835 58.353C86.6165 58.5923 86.6165 58.7903 86.5835 58.9636C86.336 60.259 85.7171 61.7442 84.7022 62.6931C84.6775 62.7179 84.6362 62.7179 84.6115 62.6849C84.595 62.6684 84.5867 62.6436 84.595 62.6271C84.7765 61.967 84.9663 61.1584 84.826 60.5066C84.8178 60.4653 84.7765 60.4323 84.7353 60.424C84.595 60.4158 84.4382 60.424 84.2567 60.457C83.5636 60.5891 82.8953 60.8696 82.2682 61.2904C82.2022 61.3399 82.1031 61.3152 82.0619 61.2492C82.0536 61.2409 82.0536 61.2326 82.0454 61.2244C82.0371 61.2079 82.0371 61.1584 82.0454 61.0841C82.0949 60.5313 82.0124 60.0115 81.7814 59.5412C81.7484 59.4669 81.6658 59.4339 81.5916 59.4504C80.7582 59.6402 80.0404 60.061 79.4298 60.7128C79.3803 60.7623 79.3308 60.8036 79.2813 60.8283C79.24 60.8531 79.1822 60.8283 79.1575 60.7871C79.1492 60.7788 79.1492 60.7706 79.1492 60.7623C79.0585 60.0032 78.943 59.3184 78.5057 58.7243C78.4396 58.6418 78.3324 58.5923 78.2251 58.617C78.0518 58.65 77.8538 58.7243 77.6475 58.8481C76.8059 59.3349 76.2201 60.1683 75.8405 61.0841C75.8075 61.1584 75.7745 61.1996 75.7415 61.1996C75.7003 61.1996 75.6673 61.1584 75.6425 61.0841C75.263 60.1683 74.6771 59.3349 73.8355 58.8481C73.6292 58.7326 73.4394 58.65 73.2579 58.617C73.1507 58.6005 73.0434 58.6418 72.9774 58.7243C72.5318 59.3184 72.4246 60.0032 72.3338 60.7623C72.3255 60.8118 72.2843 60.8449 72.2348 60.8366C72.2265 60.8366 72.2183 60.8366 72.21 60.8283C72.1605 60.8036 72.111 60.7623 72.0615 60.7128C71.4509 60.0527 70.7331 59.6319 69.8997 59.4504C69.8255 59.4339 69.7429 59.4752 69.7099 59.5412C69.4789 60.0115 69.3881 60.5313 69.4459 61.0841C69.4541 61.1584 69.4541 61.2079 69.4459 61.2244C69.4129 61.2987 69.3221 61.3317 69.2479 61.2987C69.2396 61.2987 69.2314 61.2904 69.2231 61.2822C68.596 60.8531 67.9359 60.5808 67.2346 60.4488C67.0531 60.4158 66.8963 60.4075 66.756 60.4158C66.7065 60.4158 66.6735 60.4488 66.6653 60.4983C66.525 61.1501 66.723 61.967 66.8963 62.6188C66.9045 62.6518 66.8798 62.6931 66.8468 62.7014C66.822 62.7096 66.8055 62.7014 66.789 62.6849C65.7659 61.736 65.1471 60.2508 64.9078 58.9553C64.8748 58.7821 64.8748 58.5758 64.9078 58.3448C64.916 58.287 64.9573 58.2457 65.015 58.2292C66.1537 57.9652 67.7297 58.9966 68.4888 59.7722C68.5053 59.7887 68.53 59.7887 68.5465 59.7722C68.5548 59.764 68.563 59.7474 68.5548 59.7309C68.266 58.9471 68.0762 57.8909 68.4475 57.0906C68.497 56.9916 68.6043 56.9421 68.7115 56.9751C69.7182 57.2804 70.5598 57.8167 71.2446 58.5923C71.2611 58.6088 71.2859 58.6088 71.3106 58.5923C71.3189 58.584 71.3272 58.5675 71.3272 58.551C71.1621 57.9404 70.9889 56.8348 71.3024 56.282C71.3437 56.1995 71.4344 56.1582 71.5252 56.1747C72.5896 56.3397 73.6045 57.2391 74.1903 58.1055C74.2068 58.122 74.2316 58.1302 74.2481 58.1137C74.2563 58.1055 74.2646 58.0972 74.2646 58.089C74.3636 57.5857 75.0649 55.6714 75.725 55.6714Z" fill="black"/>
<path d="M63.6454 88.2139C64.9573 88.5357 66.1124 89.1711 67.0943 90.1117C69.0251 91.9517 70.139 94.6086 70.436 97.2407C70.4443 97.3397 70.3783 97.4387 70.2793 97.4469C70.2628 97.4469 70.2463 97.4469 70.238 97.4469C70.1885 97.4387 70.139 97.4057 70.0895 97.3314C69.6274 96.7373 69.0664 96.3248 68.3898 96.0938C68.299 96.0608 68.2165 96.0525 68.1422 96.0525C68.134 96.0525 68.1257 96.0607 68.1257 96.0773C68.1257 96.0855 68.1257 96.0855 68.134 96.0938C70.6506 97.4222 71.4592 100.335 70.9394 102.992C70.9311 103.058 70.8816 103.107 70.8156 103.115C70.5433 103.181 70.469 103.041 70.4525 102.769C70.304 100.137 67.8204 98.6681 65.5184 98.1565C64.9078 98.0163 64.487 97.9173 64.2642 97.843C62.713 97.3232 60.774 95.7885 60.3449 94.0805C60.2871 93.8412 60.2789 93.6102 60.3366 93.3791C60.3614 93.2884 60.4522 93.2306 60.5512 93.2554C60.5842 93.2636 60.6089 93.2801 60.6337 93.2966C61.1783 93.8164 61.6403 94.2042 62.3994 94.394C62.9853 94.5425 63.7279 94.4683 64.1404 93.9897C64.6932 93.3461 64.4705 92.4385 64.0167 91.8114C63.4968 91.0853 62.8037 90.648 61.9291 90.483C61.3845 90.384 60.4604 90.4912 59.8498 90.4087C58.2161 90.2024 56.3018 89.4433 55.7985 87.7271C55.7655 87.6281 55.8068 87.5208 55.8975 87.4713C55.9223 87.4548 55.9553 87.4548 56.0048 87.4548C56.0543 87.4548 56.0873 87.4631 56.1121 87.4713C56.4834 87.5951 56.8299 87.6693 57.1517 87.7106C58.2244 87.8344 59.462 87.5043 59.8333 86.3987C60.1881 85.326 59.561 84.1461 58.8102 83.3622C57.9933 82.5124 57.0114 82.0008 55.8563 81.8358C55.8068 81.8275 55.6583 81.8028 55.419 81.7533C53.5707 81.4067 51.8792 80.7384 50.3198 79.7483C49.7422 79.3769 49.2389 78.9314 48.8263 78.4116C48.7025 78.263 48.389 77.6607 48.8923 77.6525C48.9171 77.6525 48.9418 77.6525 48.9666 77.6607C49.5029 77.867 50.0227 77.9165 50.5343 77.834C51.2274 77.7102 51.7802 77.2069 51.8462 76.4973C51.9452 75.4907 51.3429 74.5335 50.5591 73.9312C48.9336 72.677 47.3824 71.3073 45.8807 69.8964C44.2057 68.3204 42.6297 66.6207 41.1527 64.7889C39.9398 63.279 36.8457 59.0544 38.4464 57.1071C38.6444 56.8678 38.9084 56.7358 39.189 56.5708C39.2137 56.5543 39.2385 56.5461 39.2715 56.5378C39.453 56.513 39.552 56.5873 39.5685 56.7523C39.5685 56.7853 39.5685 56.8183 39.5603 56.8513C38.7682 59.1617 40.3441 61.835 41.7468 63.6008C44.6347 67.223 48.6448 70.0037 52.7456 72.0747C53.513 72.4625 54.3381 72.9081 54.8579 73.2794C57.2095 74.9708 59.3135 76.9594 61.17 79.2532C61.2443 79.3439 61.269 79.4265 61.2525 79.5007C61.236 79.5915 61.1453 79.6492 61.0462 79.6245C61.0297 79.6245 61.0132 79.6162 60.9967 79.608C60.1139 79.1212 59.198 78.7994 58.2574 78.6426C57.7045 78.5518 57.1435 78.5023 56.6731 78.6096C57.9273 78.7086 59.1072 79.0717 60.2129 79.6987C63.7444 81.6873 66.1454 85.4498 67.4821 89.2041C67.5234 89.3278 67.5316 89.4351 67.4904 89.5176C67.4491 89.6166 67.3336 89.6579 67.2346 89.6166C67.2263 89.6084 67.2098 89.6084 67.2016 89.6001C66.1289 88.8575 64.9408 88.3954 63.6454 88.1974C63.6371 88.1974 63.6371 88.1974 63.6288 88.2057C63.6371 88.2057 63.6371 88.2139 63.6454 88.2139Z" fill="black"/>
<path d="M87.7964 88.2139C87.8047 88.2139 87.8047 88.2057 87.8047 88.1974C87.8047 88.1892 87.7964 88.1892 87.7882 88.1892C86.4928 88.3872 85.3128 88.8575 84.232 89.5919C84.1412 89.6496 84.0174 89.6331 83.9596 89.5424C83.9514 89.5341 83.9432 89.5176 83.9432 89.5093C83.9102 89.4268 83.9101 89.3196 83.9514 89.1958C85.2881 85.4415 87.6892 81.679 91.2206 79.6905C92.3263 79.0634 93.5062 78.7004 94.7604 78.6014C94.2901 78.4941 93.729 78.5353 93.1762 78.6344C92.2355 78.7911 91.3197 79.1129 90.4368 79.5997C90.3543 79.6492 90.247 79.6162 90.2058 79.542C90.1975 79.5255 90.1892 79.509 90.1892 79.4925C90.1727 79.4182 90.1975 79.3357 90.2718 79.2449C92.1283 76.9511 94.2323 74.9626 96.5839 73.2711C97.1037 72.8998 97.9206 72.4542 98.6962 72.0664C102.789 69.9872 106.807 67.2148 109.695 63.5925C111.098 61.835 112.674 59.1534 111.881 56.8431C111.873 56.8101 111.865 56.7771 111.873 56.7441C111.89 56.5791 111.989 56.5048 112.17 56.5296C112.203 56.5296 112.228 56.5461 112.253 56.5626C112.533 56.7276 112.797 56.8679 112.995 57.0989C114.596 59.0462 111.502 63.2707 110.289 64.7807C108.82 66.6124 107.244 68.3122 105.561 69.8881C104.059 71.2991 102.508 72.6688 100.883 73.923C100.099 74.5253 99.4965 75.4824 99.5956 76.4891C99.6698 77.1987 100.214 77.702 100.907 77.8257C101.419 77.9165 101.939 77.8587 102.475 77.6525C102.5 77.6442 102.525 77.636 102.549 77.6442C103.053 77.6525 102.739 78.2548 102.615 78.4033C102.203 78.9231 101.708 79.3605 101.122 79.74C99.5708 80.7384 97.8711 81.4067 96.0228 81.745C95.7835 81.7863 95.6433 81.8193 95.5855 81.8275C94.4303 82.0008 93.4485 82.5041 92.6316 83.354C91.8807 84.1379 91.2536 85.3178 91.6084 86.3904C91.9715 87.4961 93.2092 87.8261 94.2901 87.7023C94.6119 87.6611 94.9584 87.5868 95.3297 87.4631C95.3545 87.4548 95.3957 87.4548 95.437 87.4466C95.4782 87.4466 95.5195 87.4548 95.5443 87.4631C95.635 87.5126 95.6763 87.6198 95.6433 87.7189C95.1317 89.4268 93.2257 90.1942 91.5919 90.4005C90.9814 90.4747 90.0572 90.3675 89.5127 90.4747C88.6381 90.6398 87.945 91.0853 87.4251 91.8032C86.9713 92.4302 86.7568 93.3379 87.3013 93.9815C87.7139 94.46 88.4565 94.5343 89.0424 94.3858C89.7932 94.196 90.2635 93.8082 90.8081 93.2884C90.8823 93.2224 90.9896 93.2224 91.0556 93.2884C91.0804 93.3131 91.0886 93.3379 91.0969 93.3709C91.1546 93.5937 91.1547 93.8247 91.0886 94.0722C90.6596 95.7802 88.7206 97.3149 87.1694 97.8348C86.9466 97.909 86.5257 98.0163 85.9152 98.1483C83.6131 98.6599 81.1213 100.129 80.981 102.761C80.9645 103.033 80.8902 103.173 80.6179 103.107C80.5602 103.091 80.5107 103.041 80.4942 102.983C79.9743 100.327 80.783 97.4139 83.2996 96.0855C83.3078 96.0773 83.3078 96.069 83.3078 96.0608C83.3078 96.0525 83.2996 96.0525 83.2913 96.0525C83.217 96.0443 83.1345 96.0608 83.0438 96.0938C82.3672 96.3248 81.7979 96.7374 81.3441 97.3314C81.2945 97.3974 81.245 97.4387 81.1955 97.447C81.0965 97.4635 81.0057 97.3892 80.9975 97.2902C80.9975 97.2737 80.9975 97.2572 80.9975 97.2407C81.2945 94.6086 82.4002 91.9599 84.3392 90.1117C85.3293 89.1711 86.4845 88.5357 87.7964 88.2139Z" fill="black"/>
<path d="M69.1819 88.643C68.9921 89.1793 68.9343 89.8394 68.8848 90.4004C68.8766 90.4912 68.7941 90.5572 68.7033 90.549C68.695 90.549 68.6785 90.549 68.6703 90.5407C68.5383 90.4995 68.4475 90.4087 68.398 90.2684C67.8039 88.3954 66.954 86.6462 65.8979 84.9795C64.883 83.3787 64.5942 81.6542 64.5777 79.872C64.5777 79.8638 64.5695 79.8555 64.5612 79.8555C64.553 79.8555 64.5447 79.8638 64.5447 79.872C64.4127 80.6559 64.4209 81.448 64.5695 82.2648C64.586 82.3721 64.5282 82.4711 64.4292 82.4876C64.4292 82.4876 64.4292 82.4876 64.421 82.4876C64.2807 82.5124 64.0909 82.2896 64.0001 82.1823C63.5463 81.613 62.3417 80.0865 60.3779 77.5947C60.1221 77.2646 59.7756 76.8603 59.3383 76.3735C58.8679 75.8454 58.5296 75.4329 58.3234 75.1358C57.4817 73.9229 56.9702 72.5945 56.7804 71.1506C56.7804 71.1423 56.7721 71.134 56.7721 71.134L56.7556 71.1423C56.7556 71.1505 56.7474 71.1671 56.7474 71.1753C56.7061 71.9344 56.8134 72.7018 57.0609 73.4774C57.193 73.8982 57.358 74.3272 57.325 74.4015C57.292 74.4758 57.2012 74.5088 57.1269 74.4758C57.1104 74.4675 57.1022 74.4593 57.0857 74.451C56.3843 73.8074 55.6252 73.1968 54.8084 72.6193C54.4288 72.347 53.876 72.0334 53.1581 71.6621C49.9732 70.0366 46.8213 67.9326 44.1066 65.4738C43.0918 64.5579 42.1841 63.576 41.3755 62.5116C40.4019 61.2409 39.5273 59.665 39.5025 58.056C39.4943 57.6682 39.585 57.2391 39.7666 56.7523C39.7831 56.7111 39.8078 56.6781 39.8408 56.6616C40.2039 56.4223 40.2864 56.8843 40.3029 57.1566C40.3029 57.1979 40.3111 57.2391 40.3194 57.2804C40.7484 59.2772 42.0191 61.1502 43.3723 62.6354C45.3031 64.7559 47.6051 66.5464 50.229 67.6438C51.8875 68.3369 55.386 69.1373 55.518 66.2494C55.5262 66.0431 55.6417 65.9358 55.8563 65.9276C56.6154 65.9193 57.292 66.5464 57.7458 67.124C58.6699 68.2874 59.3548 69.6736 59.8333 71.1175C60.1799 72.1819 60.7079 73.1226 61.4505 73.9312C61.9044 74.4262 62.3747 74.7728 62.8532 74.9708C63.8764 75.3999 64.3632 74.5913 64.2477 73.7001C64.2312 73.5846 64.3137 73.4856 64.421 73.4691C64.4457 73.4691 64.4622 73.4691 64.487 73.4691C64.8253 73.5351 65.2213 74.0549 65.4276 74.352C66.294 75.6392 66.9541 77.3472 67.3336 78.9149C67.5069 79.641 67.5976 80.1938 67.5811 80.5568C67.5646 81.2499 67.5481 81.6872 67.5399 81.8523C67.5069 82.4298 67.6389 82.9167 67.9277 83.3127C68.4805 84.0636 69.2974 84.0306 69.7182 83.1642C69.9575 82.6691 69.9492 82.1246 69.8337 81.58C69.8172 81.481 69.875 81.382 69.974 81.3655C70.0482 81.349 70.1225 81.3737 70.205 81.4397C72.4163 83.2137 72.6803 87.0835 72.2265 89.6331C72.1605 89.9961 72.1358 90.3262 72.144 90.6315C72.177 91.6959 72.3255 92.7025 72.6061 93.6514C72.7628 94.1877 72.9031 94.691 73.0269 95.1531C73.2002 95.838 73.2662 96.7703 73.2084 97.9667C73.1589 99.0806 72.9526 100.153 72.5978 101.193C72.3751 101.837 72.1358 102.348 71.8717 102.711C71.814 102.785 71.748 102.818 71.649 102.802C71.5252 102.777 71.4427 102.67 71.4592 102.554C71.5334 102.167 71.5582 101.729 71.5252 101.242C71.3767 99.1136 70.9641 96.9683 70.2875 94.8066C70.1472 94.3692 69.941 93.8412 69.6769 93.2306C69.3551 92.5045 69.1654 91.7124 69.0993 90.8543C69.0828 90.1694 69.0993 89.4351 69.1819 88.643C69.1984 88.643 69.1901 88.643 69.1819 88.643C69.1901 88.643 69.1901 88.643 69.1819 88.643Z" fill="black"/>
<path d="M82.2599 88.643C82.2599 88.6347 82.2517 88.6347 82.2599 88.643C82.2517 88.643 82.2517 88.6347 82.2599 88.643C82.3424 89.4351 82.3672 90.1694 82.3177 90.8543C82.2517 91.7124 82.0619 92.5045 81.7401 93.2306C81.4678 93.8412 81.2615 94.3693 81.1295 94.8066C80.4447 96.9601 80.0321 99.1054 79.8918 101.234C79.8588 101.721 79.8836 102.158 79.9578 102.546C79.9826 102.662 79.9001 102.769 79.7763 102.794C79.6855 102.81 79.6113 102.777 79.5535 102.703C79.2895 102.332 79.0502 101.828 78.8274 101.185C78.4726 100.145 78.2664 99.0724 78.2169 97.9585C78.1673 96.7621 78.2251 95.8215 78.3984 95.1449C78.5221 94.6828 78.6541 94.1795 78.8192 93.6432C79.0997 92.6943 79.2482 91.6876 79.2813 90.6232C79.2895 90.318 79.2647 89.9879 79.1987 89.6249C78.7449 87.0753 79.0089 83.2055 81.2203 81.4315C81.3028 81.3655 81.377 81.3407 81.4513 81.3572C81.5503 81.382 81.6163 81.4727 81.5916 81.5718C81.4843 82.1163 81.4678 82.6609 81.7071 83.156C82.1196 84.0306 82.9447 84.0553 83.4976 83.3045C83.7864 82.9084 83.9184 82.4216 83.8854 81.844C83.8771 81.679 83.8606 81.2417 83.8441 80.5486C83.8359 80.1856 83.9184 79.6327 84.0917 78.9066C84.4712 77.3472 85.1313 75.6392 85.9977 74.3438C86.1957 74.0467 86.6 73.5269 86.9383 73.4609C87.0456 73.4361 87.1528 73.5104 87.1776 73.6177C87.1858 73.6424 87.1858 73.6589 87.1776 73.6837C87.0621 74.5748 87.5489 75.3834 88.572 74.9543C89.0506 74.7563 89.5209 74.4098 89.9747 73.9147C90.7173 73.1061 91.2371 72.1655 91.5919 71.1011C92.0705 69.6571 92.7553 68.2709 93.6795 67.1075C94.1415 66.5299 94.8099 65.9028 95.569 65.9111C95.7835 65.9111 95.8908 66.0184 95.9073 66.2329C96.0393 69.129 99.5378 68.3287 101.196 67.6273C103.812 66.5299 106.122 64.7394 108.045 62.6189C109.398 61.1337 110.677 59.2524 111.098 57.2639C111.106 57.2227 111.114 57.1814 111.114 57.1401C111.131 56.8679 111.213 56.414 111.576 56.6451C111.609 56.6698 111.634 56.7028 111.65 56.7358C111.832 57.2227 111.923 57.66 111.914 58.0395C111.89 59.6485 111.015 61.2244 110.041 62.4951C109.233 63.5513 108.317 64.5414 107.31 65.449C104.596 67.8996 101.444 70.0037 98.2589 71.6291C97.541 71.9922 96.9882 72.314 96.6086 72.5863C95.7918 73.1638 95.0327 73.7744 94.3313 74.418C94.2736 74.4758 94.1745 74.4675 94.1168 74.4098C94.1085 74.4015 94.1003 74.385 94.092 74.3685C94.059 74.2942 94.2241 73.8734 94.3561 73.4444C94.6036 72.6688 94.7026 71.9014 94.6696 71.1423C94.6696 71.1258 94.6696 71.1176 94.6614 71.1093C94.6614 71.1011 94.6531 71.0928 94.6449 71.1011C94.6366 71.1093 94.6284 71.1093 94.6366 71.1176C94.4468 72.5615 93.927 73.8899 93.0936 75.1029C92.8874 75.3999 92.5491 75.8125 92.0787 76.3405C91.6497 76.8273 91.3032 77.2399 91.0391 77.5617C89.0754 80.0535 87.8624 81.58 87.4169 82.1493C87.3344 82.2566 87.1363 82.4794 86.996 82.4546C86.897 82.4381 86.8393 82.3391 86.8558 82.2401V82.2318C87.0126 81.415 87.0208 80.6229 86.8805 79.839C86.8805 79.8308 86.8723 79.8225 86.864 79.8225C86.8558 79.8225 86.8475 79.8308 86.8475 79.839C86.831 81.6213 86.5422 83.3457 85.5273 84.9382C84.4712 86.5967 83.6213 88.3542 83.0273 90.2272C82.986 90.3675 82.8952 90.4582 82.755 90.4995C82.6642 90.5242 82.5735 90.4747 82.5487 90.384C82.5487 90.3757 82.5404 90.3592 82.5404 90.351C82.5074 89.8394 82.4497 89.1793 82.2599 88.643Z" fill="black"/>
<path d="M75.725 62.2806C75.7498 62.2806 75.7745 62.2558 75.791 62.2063C76.1788 61.1584 76.9792 59.6485 78.0023 59.2442C78.0766 59.2194 78.1508 59.2359 78.2086 59.2937C78.2829 59.3844 78.3406 59.5082 78.3819 59.665C78.5634 60.4406 78.6294 61.2327 78.5964 62.0331C78.5964 62.0578 78.6129 62.0826 78.6459 62.0908C78.6624 62.0908 78.6789 62.0826 78.6872 62.0743C79.3555 61.307 80.2632 60.4488 81.212 60.094C81.2698 60.0693 81.344 60.1023 81.3605 60.1683C81.3605 60.1765 81.3605 60.1765 81.3605 60.1848C81.4266 60.4571 81.4431 60.7541 81.4183 61.0759C81.3771 61.538 81.278 62.1321 81.1213 62.6601C81.113 62.6766 81.1295 62.7014 81.146 62.7014C81.1543 62.7014 81.1708 62.7014 81.179 62.6931C81.8226 62.0908 83.4233 60.7211 84.3144 60.8696C84.3805 60.8779 84.4217 60.9357 84.4217 61.0017C84.3557 61.9753 83.9844 62.8582 83.5058 63.741C83.4976 63.7575 83.5058 63.7823 83.5223 63.7905C83.5306 63.7988 83.5471 63.7988 83.5636 63.7905C83.9101 63.51 84.2567 63.2707 84.6032 63.0562C85.2138 62.6931 86.3277 62.1898 86.9961 62.5281C87.0703 62.5694 87.0951 62.6519 87.0621 62.7261C87.0621 62.7261 87.0621 62.7344 87.0538 62.7344C86.1875 64.1206 84.694 65.0447 83.1593 65.5315C83.085 65.5563 83.0025 65.5563 82.9365 65.5233C82.4249 65.3253 81.8804 65.2592 81.2945 65.3253C81.2533 65.3253 81.2203 65.3005 81.2203 65.2592C81.2203 65.2427 81.2203 65.2262 81.2368 65.2097C81.5091 64.8714 81.6741 64.4836 81.7401 64.0216C81.7483 63.9473 81.7071 63.8731 81.6411 63.8401C81.5751 63.8071 81.4761 63.7905 81.3523 63.7905C80.4199 63.7575 79.4958 64.1701 78.6872 64.6652C78.6294 64.6982 78.5634 64.6817 78.5304 64.6239C78.5222 64.6074 78.5139 64.5909 78.5139 64.5744C78.4314 63.741 78.0931 62.8417 77.4743 62.2393C77.433 62.1981 77.367 62.1898 77.3175 62.2063C76.5666 62.5199 76.0138 63.4357 75.8323 64.1866C75.8158 64.2609 75.7828 64.3021 75.725 64.3021C75.6755 64.3021 75.6425 64.2609 75.626 64.1866C75.4445 63.4357 74.8999 62.5199 74.1408 62.2063C74.0913 62.1816 74.0253 62.1981 73.984 62.2393C73.3734 62.8334 73.0351 63.7328 72.9526 64.5744C72.9444 64.6404 72.8866 64.6817 72.8289 64.6817C72.8124 64.6817 72.7959 64.6734 72.7794 64.6652C71.9708 64.1701 71.0549 63.7658 70.1142 63.7905C69.9905 63.7905 69.8915 63.8153 69.8254 63.8401C69.7594 63.8731 69.7182 63.9473 69.7264 64.0216C69.7924 64.4754 69.9575 64.8714 70.2298 65.2097C70.2545 65.2427 70.2463 65.284 70.2215 65.3088C70.205 65.317 70.1885 65.3253 70.172 65.3253C69.5862 65.2592 69.0333 65.3253 68.53 65.5233C68.4558 65.548 68.3815 65.5563 68.3072 65.5315C66.7725 65.0365 65.2791 64.1123 64.4127 62.7344C64.3714 62.6601 64.3879 62.5694 64.4622 62.5281L64.4705 62.5199C65.1306 62.1816 66.2527 62.6849 66.8633 63.0479C67.2098 63.2542 67.5564 63.5018 67.9029 63.7823C67.9194 63.7905 67.9442 63.7905 67.9524 63.774C67.9607 63.7658 67.9607 63.7493 67.9524 63.7328C67.4739 62.8499 67.1026 61.967 67.0366 60.9934C67.0283 60.9274 67.0778 60.8696 67.1438 60.8614C68.035 60.7046 69.6357 62.0743 70.2793 62.6849C70.2958 62.7014 70.3205 62.7014 70.3288 62.6849C70.337 62.6766 70.337 62.6601 70.337 62.6519C70.1803 62.1321 70.0812 61.5297 70.04 61.0677C70.0152 60.7459 70.0317 60.4488 70.0977 60.1765C70.1142 60.1105 70.1802 60.0693 70.238 60.0858C70.2463 60.0858 70.2463 60.0858 70.2545 60.0858C71.2034 60.4406 72.1193 61.2987 72.7794 62.0661C72.7959 62.0908 72.8289 62.0908 72.8536 62.0743C72.8619 62.0661 72.8701 62.0496 72.8701 62.0331C72.8371 61.2327 72.9031 60.4406 73.0847 59.665C73.1177 59.5 73.1754 59.3762 73.2579 59.2937C73.3074 59.2359 73.3899 59.2194 73.4642 59.2442C74.4956 59.6567 75.2959 61.1584 75.6755 62.2063C75.6755 62.2558 75.692 62.2806 75.725 62.2806Z" fill="black"/>
<path d="M75.725 65.0777C75.7415 65.0777 75.758 65.0612 75.7663 65.0282C76.0056 64.1866 76.4346 63.0562 77.268 62.6849C77.3588 62.6436 77.4578 62.6766 77.5155 62.7591C78.0106 63.543 78.2251 64.3764 78.1674 65.2675C78.1674 65.2922 78.1839 65.3088 78.2086 65.317C78.2169 65.317 78.2251 65.317 78.2334 65.3087C79.0255 64.7889 80.3126 64.1536 81.278 64.2196C81.3358 64.2196 81.3853 64.2774 81.377 64.3351C81.377 64.3516 81.3771 64.3599 81.3688 64.3681C81.146 64.8797 80.8242 65.3087 80.3869 65.647C80.3704 65.6635 80.3704 65.6883 80.3787 65.7048C80.3869 65.7131 80.4034 65.7213 80.4199 65.7213C81.7401 65.4985 82.986 65.6883 84.1659 66.2989C84.2237 66.3319 84.2484 66.3979 84.2154 66.4557C84.2072 66.4722 84.1907 66.4969 84.1659 66.5052C83.5801 66.8517 82.9448 67.0497 82.2517 67.0992C80.0651 67.256 77.7878 66.6702 75.791 65.8203C75.7828 65.8203 75.758 65.8121 75.7168 65.8121C75.6755 65.8121 75.6508 65.8121 75.6425 65.8203C73.6375 66.6702 71.3684 67.256 69.1819 67.0992C68.4888 67.0497 67.8452 66.8517 67.2676 66.5052C67.2098 66.4722 67.1933 66.3979 67.2263 66.3401C67.2346 66.3236 67.2511 66.3071 67.2759 66.2906C68.4558 65.68 69.7017 65.482 71.0219 65.7131C71.0466 65.7131 71.0631 65.7048 71.0714 65.68C71.0714 65.6635 71.0714 65.6553 71.0549 65.6388C70.6258 65.2922 70.2958 64.8632 70.073 64.3599C70.0482 64.3021 70.073 64.2361 70.1308 64.2196C70.139 64.2113 70.1555 64.2113 70.1637 64.2113C71.1374 64.1536 72.4163 64.7807 73.2084 65.3005C73.2332 65.317 73.2579 65.3088 73.2744 65.284C73.2827 65.2757 73.2827 65.2675 73.2827 65.2592C73.2249 64.3764 73.4395 63.5348 73.9345 62.7509C73.984 62.6684 74.0913 62.6354 74.182 62.6766C75.0072 63.0479 75.4362 64.1866 75.6838 65.02C75.692 65.0612 75.7003 65.0777 75.725 65.0777Z" fill="black"/>
<path d="M61.8301 64.3351C61.9044 64.2526 62.0199 64.2444 62.1024 64.3104C62.1106 64.3104 62.1106 64.3186 62.1189 64.3269C63.2163 65.482 64.1982 66.3071 65.2213 67.0497C66.6818 68.0976 68.2165 68.9227 69.8172 69.5168C70.5598 69.7891 71.3437 69.9624 72.1688 70.0201C72.3008 70.0284 72.3585 70.1027 72.3585 70.2264C72.3585 70.2594 72.342 70.2924 72.3255 70.3172C72.21 70.441 72.0038 70.5977 71.8552 70.7958C71.5169 71.2496 71.2529 71.8436 71.0714 72.5697C71.0631 72.611 71.0384 72.6523 71.0054 72.6853C70.9311 72.7595 70.7991 72.7595 70.7248 72.6853C70.7166 72.677 70.7083 72.6688 70.7001 72.6523C70.5433 72.4212 70.4113 72.2397 70.2958 72.0994C69.5119 71.1588 68.6373 70.2924 67.6554 69.5003C67.2181 69.1455 65.8814 68.1059 63.6206 66.3649C63.1915 66.0348 62.6057 65.4655 61.8466 64.6487C61.7558 64.5579 61.7558 64.4259 61.8301 64.3351Z" fill="black"/>
<path d="M89.6199 64.3268C89.7025 64.4176 89.6942 64.5496 89.6199 64.6404C88.8608 65.4573 88.275 66.0266 87.8459 66.3566C85.5851 68.0976 84.2402 69.1373 83.8111 69.4921C82.8293 70.2924 81.9464 71.1588 81.1625 72.0994C81.047 72.2397 80.9067 72.4212 80.7582 72.6522C80.7004 72.743 80.5767 72.7678 80.4859 72.71C80.4777 72.7018 80.4612 72.6935 80.4529 72.6852C80.4199 72.6522 80.3952 72.611 80.3869 72.5697C80.1971 71.8436 79.9413 71.2496 79.5948 70.7875C79.4463 70.5895 79.24 70.4327 79.1245 70.3089C79.0997 70.2842 79.0915 70.2512 79.0915 70.2182C79.0832 70.0861 79.1493 70.0201 79.2813 70.0119C80.0981 69.9541 80.882 69.7808 81.6328 69.5086C83.2418 68.9145 84.7765 68.0894 86.237 67.0415C87.2601 66.2989 88.2502 65.4738 89.3476 64.3186C89.4219 64.2443 89.5374 64.2361 89.6199 64.3103C89.6117 64.3103 89.6117 64.3186 89.6199 64.3268Z" fill="black"/>
<path d="M75.725 66.3319C75.8158 66.3319 75.8735 66.3732 75.9065 66.4557C76.3686 67.8089 77.2927 68.6587 78.6789 68.997C78.7532 69.0135 78.8027 69.096 78.7862 69.1703C78.7862 69.1868 78.7779 69.1951 78.7697 69.2116C78.4891 69.6819 78.3324 70.1934 78.2994 70.7545C78.2251 71.9344 78.4314 73.0731 78.9182 74.1457C78.9265 74.1622 78.9265 74.187 78.9182 74.2035C78.6707 74.6821 78.5056 75.1854 78.4066 75.7217C78.2168 76.7778 78.1673 77.8505 78.2416 78.9479C78.3076 79.872 78.4396 80.7879 78.8357 81.547C78.8522 81.58 78.8439 81.613 78.8274 81.6378C78.4891 82.0833 78.2498 82.5866 78.1096 83.1395C77.796 84.3689 77.6558 85.7221 77.6888 87.199C77.7053 87.9499 77.796 88.9565 78.1426 89.6991C78.1673 89.7486 78.1673 89.8064 78.1426 89.8642C77.9033 90.3675 77.7135 90.8873 77.5898 91.4236C77.2185 93.0243 77.1524 94.592 77.4 96.135C77.4742 96.5971 77.5897 97.0096 77.7383 97.3644C77.763 97.4222 77.763 97.4882 77.7383 97.546C77.5485 97.9585 77.4495 98.4206 77.4247 98.9321C77.3505 100.475 77.5155 102.018 77.9116 103.553C78.0601 104.147 78.2499 104.65 78.4561 105.071C78.5386 105.236 78.5964 105.352 78.6211 105.418C78.6376 105.459 78.6376 105.5 78.6211 105.541C77.8703 107.81 77.5237 110.137 77.5815 112.514C77.6145 113.751 77.7713 114.906 78.0683 115.979C78.2086 116.482 78.3819 116.928 78.6047 117.332C78.6212 117.365 78.6212 117.406 78.6047 117.439C78.3076 118.001 78.1013 118.636 77.9693 119.345C77.5732 121.532 77.6145 123.776 78.0766 126.087C78.2416 126.92 78.4974 127.654 78.8274 128.29C78.8522 128.331 78.8522 128.38 78.8274 128.43C78.8027 128.488 78.7532 128.562 78.6789 128.653C78.6707 128.669 78.6541 128.677 78.6459 128.694C78.3324 129.263 78.1096 129.882 77.9776 130.567C77.466 133.207 77.7218 136.153 78.5716 138.752C78.5881 138.802 78.5881 138.859 78.5634 138.909C78.4231 139.198 78.3158 139.486 78.2251 139.767C77.5155 142.102 77.3835 144.627 77.697 147.102C77.796 147.886 77.9941 148.67 78.2828 149.437C78.3076 149.512 78.2746 149.594 78.2086 149.627C77.3752 150.04 76.5749 150.436 75.791 150.815C75.7828 150.824 75.758 150.824 75.7168 150.824C75.6755 150.824 75.6507 150.824 75.6425 150.815C74.8669 150.436 74.0583 150.04 73.2249 149.627C73.1506 149.594 73.1259 149.512 73.1506 149.437C73.4394 148.67 73.6292 147.894 73.7365 147.102C74.0583 144.635 73.9263 142.102 73.2084 139.767C73.1259 139.486 73.0104 139.198 72.8701 138.909C72.8453 138.859 72.8453 138.802 72.8618 138.752C73.7117 136.153 73.9757 133.199 73.4559 130.567C73.3239 129.89 73.1011 129.263 72.7876 128.694C72.7793 128.677 72.7711 128.669 72.7546 128.653C72.6886 128.57 72.6391 128.496 72.6061 128.43C72.5896 128.389 72.5896 128.339 72.6061 128.29C72.9361 127.663 73.1836 126.928 73.3569 126.087C73.819 123.785 73.8602 121.532 73.4642 119.345C73.3404 118.636 73.1259 118.001 72.8289 117.439C72.8124 117.406 72.8124 117.365 72.8289 117.332C73.0516 116.928 73.2249 116.482 73.3652 115.979C73.6622 114.906 73.819 113.751 73.852 112.514C73.9097 110.137 73.5632 107.81 72.8123 105.541C72.7958 105.5 72.8041 105.459 72.8123 105.418C72.8371 105.352 72.8949 105.236 72.9774 105.071C73.1919 104.65 73.3734 104.147 73.5302 103.553C73.9263 102.018 74.083 100.475 74.017 98.9321C73.9923 98.4206 73.885 97.9585 73.7035 97.546C73.6787 97.4882 73.6787 97.4222 73.7035 97.3644C73.852 97.0096 73.9675 96.5971 74.0418 96.135C74.2893 94.592 74.2233 93.0243 73.852 91.4236C73.7282 90.8873 73.5467 90.3675 73.2992 89.8642C73.2744 89.8146 73.2744 89.7569 73.2992 89.6991C73.654 88.9483 73.7365 87.9499 73.753 87.199C73.786 85.7221 73.6457 84.3689 73.3322 83.1395C73.1919 82.5866 72.9526 82.0833 72.6143 81.6378C72.5978 81.613 72.5896 81.58 72.6061 81.547C73.0021 80.7879 73.1341 79.872 73.2001 78.9479C73.2827 77.8505 73.2249 76.7778 73.0351 75.7217C72.9361 75.1854 72.7711 74.6821 72.5236 74.2035C72.5153 74.187 72.5153 74.1622 72.5236 74.1457C73.0021 73.0648 73.2084 71.9344 73.1424 70.7545C73.1094 70.1934 72.9526 69.6736 72.6721 69.2116C72.6308 69.1455 72.6556 69.0548 72.7216 69.0135C72.7298 69.0053 72.7463 68.997 72.7628 68.997C74.149 68.6587 75.0732 67.8171 75.5352 66.4557C75.5682 66.3732 75.6342 66.3319 75.725 66.3319Z" fill="black"/>
<path d="M32.1755 132.506C33.4049 131.516 34.7664 130.946 36.3093 130.575C37.7945 130.22 39.3292 129.989 40.9217 129.89C44.9318 129.635 48.9006 129.923 52.8199 130.773C53.579 130.938 54.1813 131.095 54.6186 131.244C54.8991 131.343 54.8084 131.64 54.5773 131.681C54.0328 131.78 53.5212 131.937 53.0344 132.159C51.3594 132.935 49.8164 134.123 48.8841 135.724C48.8676 135.749 48.8593 135.782 48.8593 135.823C48.8593 135.831 48.8676 135.839 48.8758 135.839C48.8841 135.839 48.8841 135.839 48.8923 135.831C50.5178 133.752 52.6383 132.564 55.2539 132.275C59.0742 131.854 62.9935 133.57 66.0299 135.749C66.1124 135.806 66.1454 135.872 66.1454 135.963C66.1454 136.046 66.0712 136.12 65.9887 136.12C65.9722 136.12 65.9639 136.12 65.9474 136.112C65.0233 135.872 64.1487 135.947 63.3318 136.326C63.3153 136.334 63.307 136.351 63.3153 136.367C63.3235 136.384 63.3318 136.384 63.3483 136.384C64.2642 136.268 65.1636 136.351 66.0464 136.632C69.2314 137.638 71.4674 140.683 72.5978 143.686C72.6308 143.777 72.5896 143.884 72.4906 143.917H72.4823C72.3833 143.95 72.276 143.909 72.2265 143.818C71.2199 141.962 69.6934 140.229 67.7957 139.272C66.4755 138.612 64.7427 138.406 63.2905 138.975C62.2096 139.396 61.1122 139.676 59.9901 139.701C59.8168 139.701 59.4538 139.651 59.2805 139.569C59.1815 139.519 59.132 139.404 59.1732 139.297C59.3135 138.934 59.3465 138.562 59.2887 138.166C59.0165 136.483 56.8547 136.252 55.518 136.434C53.7027 136.689 52.0773 137.374 50.6333 138.496C50.2372 138.802 49.965 139.123 49.6432 139.437C48.6613 140.394 47.5886 141.211 46.417 141.879C44.7255 142.845 41.9283 143.893 40.1214 142.556C40.0223 142.482 39.8573 142.317 39.9151 142.185C40.0306 141.912 40.1626 142.077 40.3606 142.028C41.7468 141.698 43.265 140.939 44.0159 139.717C45.0638 138.026 44.0159 136.45 42.4564 135.666C41.7221 135.295 40.9712 135.064 40.1956 134.965C39.8408 134.915 39.4283 134.866 38.9497 134.816C38.6692 134.783 38.3804 134.767 38.0751 134.775C36.5074 134.792 34.9726 135.006 33.4709 135.419C33.1904 135.493 32.6706 135.683 31.9032 135.98C31.4082 136.169 30.8141 136.359 30.1127 136.549C28.5368 136.978 26.9855 137.069 25.4756 136.838C24.4112 136.673 23.124 136.112 22.6702 135.056C22.5877 134.866 22.662 134.627 22.9095 134.668C23.7924 134.8 24.6092 134.792 25.3601 134.651C26.4575 134.437 27.4806 133.636 26.9525 132.374C26.507 131.293 25.5251 130.517 24.502 129.923C24.1802 129.734 23.6603 129.511 22.9342 129.247C19.18 127.877 15.6402 125.88 12.5791 123.372C9.89745 121.169 6.49797 117.34 7.29833 113.561C7.34784 113.33 7.39735 113.05 7.61188 112.992C7.71089 112.967 7.80166 113 7.87592 113.091C7.90067 113.116 7.90892 113.149 7.91717 113.182C7.95017 113.495 7.98318 113.743 8.02444 113.916C9.6169 120.699 16.3333 124.585 22.4557 126.524C27.0351 127.976 31.9197 128.694 36.6889 128.859C37.4067 128.884 37.9596 128.917 38.3391 128.958C38.5454 128.983 38.6032 129.098 38.5206 129.305C38.4794 129.404 38.3804 129.47 38.2153 129.503C36.3093 129.874 34.5766 130.6 33.0089 131.681C32.6541 131.928 32.357 132.201 32.126 132.498C32.126 132.506 32.126 132.506 32.126 132.514C32.1673 132.506 32.1755 132.506 32.1755 132.506Z" fill="black"/>
<path d="M102.599 135.856C102.541 135.683 102.459 135.526 102.36 135.377C101.205 133.727 99.4718 132.465 97.5988 131.846C97.3925 131.78 97.1697 131.73 96.9387 131.697C96.7902 131.681 96.6912 131.607 96.6499 131.483C96.6251 131.409 96.6664 131.318 96.7407 131.285C96.8314 131.244 97.0047 131.169 97.1202 131.136C100.974 130.121 105.033 129.692 109.043 129.808C110.363 129.849 111.667 129.956 112.971 130.146C115.248 130.476 117.426 131.037 119.2 132.44C119.208 132.448 119.217 132.448 119.225 132.44C119.233 132.432 119.233 132.424 119.225 132.415C118.977 132.168 118.845 132.027 118.821 132.011C117.261 130.757 115.207 129.899 113.259 129.511C113.086 129.478 112.872 129.412 112.839 129.23C112.781 128.9 113.383 128.9 113.532 128.9C119.819 128.727 126.131 127.844 131.932 125.418C137.146 123.24 142.287 119.428 143.442 113.537C143.459 113.438 143.475 113.33 143.475 113.198C143.475 113.066 143.591 112.976 143.731 112.976C143.747 112.976 143.764 112.976 143.78 112.984C144.193 113.083 144.234 114.56 144.209 114.981C144.119 116.928 143.013 118.883 141.775 120.385C140.925 121.425 139.977 122.382 138.929 123.257C135.884 125.806 132.262 127.819 128.549 129.197C127.748 129.494 127.179 129.742 126.849 129.94C126.247 130.295 125.719 130.699 125.265 131.153C124.497 131.92 123.846 133.15 124.77 134.041C125.661 134.899 127.385 134.825 128.516 134.668C128.623 134.651 128.697 134.684 128.747 134.759C128.895 135.006 128.475 135.542 128.285 135.732C127.501 136.508 126.379 136.821 125.29 136.92C124.258 137.019 123.194 136.953 122.105 136.731C121.247 136.557 120.405 136.31 119.572 135.996C118.755 135.683 118.177 135.485 117.831 135.386C116.288 134.973 114.728 134.767 113.16 134.767C112.938 134.767 112.616 134.792 112.22 134.841C111.84 134.891 111.527 134.924 111.279 134.957C110.669 135.031 110.05 135.196 109.423 135.443C107.781 136.095 106.304 137.671 107.277 139.528C107.97 140.848 109.571 141.673 111.007 142.02C111.065 142.036 111.172 142.036 111.32 142.028C111.353 142.028 111.386 142.036 111.411 142.061C111.725 142.341 111.155 142.68 110.924 142.795C109.926 143.323 108.655 143.257 107.591 142.96C105.371 142.341 103.276 140.972 101.691 139.346C101.295 138.942 101.007 138.67 100.833 138.538C99.1995 137.267 97.1697 136.442 95.1069 136.392C93.366 136.351 91.6002 137.234 92.2438 139.313C92.2768 139.412 92.2273 139.528 92.1283 139.569C91.9963 139.635 91.8395 139.668 91.6745 139.685C90.4781 139.767 89.2486 139.412 88.1265 138.975C86.666 138.406 84.958 138.612 83.5883 139.297C81.6906 140.246 80.2136 141.954 79.1988 143.81C79.1492 143.901 79.042 143.95 78.9347 143.926H78.9265C78.8357 143.901 78.7779 143.81 78.8027 143.719C78.8027 143.711 78.8027 143.711 78.811 143.703C80.1559 140.122 83.0685 136.5 87.2189 136.343C87.4911 136.335 87.8294 136.409 88.0852 136.392C88.1017 136.392 88.11 136.376 88.11 136.368C88.11 136.359 88.1017 136.351 88.0935 136.351C87.2189 135.955 86.3442 135.889 85.4779 136.137C85.3871 136.161 85.2881 136.104 85.2716 136.013C85.2633 135.972 85.2633 135.922 85.2881 135.881C85.3046 135.839 85.3459 135.806 85.4119 135.757C88.143 133.826 91.2702 132.374 94.6531 132.234C97.772 132.11 100.668 133.372 102.549 135.881C102.558 135.889 102.566 135.889 102.574 135.889C102.599 135.881 102.607 135.864 102.599 135.856Z" fill="black"/>
<path d="M44.8823 126.928C45.3856 127.786 46.0704 128.496 46.945 129.041C47.0276 129.09 47.0523 129.189 47.0193 129.272C46.9615 129.387 46.8708 129.445 46.7388 129.428C43.2485 128.975 40.9877 128.686 39.9811 128.578C39.0157 128.471 38.2813 128.331 37.778 128.166C36.1773 127.646 34.5271 126.615 33.5369 125.253C33.5287 125.245 33.5204 125.245 33.5122 125.253C33.5039 125.253 33.5039 125.262 33.5039 125.27C33.8092 126.227 34.3621 126.953 35.1707 127.44C35.2532 127.489 35.2862 127.597 35.2449 127.696C35.2284 127.737 35.1789 127.77 35.1047 127.795C35.0139 127.819 34.9561 127.836 34.9314 127.836C33.4379 127.869 31.9692 127.646 30.5418 127.143C27.5796 126.111 25.1125 124.387 23.1405 121.961C23.1323 121.953 23.1323 121.953 23.124 121.961C23.124 121.961 23.1158 121.969 23.124 121.969C23.1405 122.011 23.1488 122.035 23.157 122.044C24.2132 123.752 25.8139 125.344 27.6209 126.524C27.7199 126.59 27.7612 126.714 27.7116 126.821C27.6539 126.969 27.5384 127.035 27.3569 127.011C23.9821 126.507 20.7394 125.509 17.6205 124.032C13.4784 122.06 8.9238 118.446 8.32972 113.545C8.32147 113.462 8.32972 113.372 8.35447 113.281C8.42873 113.058 8.74228 113.116 8.80829 113.289C8.99806 113.776 9.10533 114.056 9.14659 114.122C9.59215 114.956 10.1532 115.74 10.8463 116.474C12.3315 118.042 14.056 119.288 16.0115 120.228C16.8944 120.649 18.3796 121.078 19.3697 120.748C20.5167 120.369 19.5183 118.826 19.0975 118.289C18.7179 117.811 18.2971 117.365 17.8185 116.953C17.0017 116.251 18.8004 116.169 19.081 116.185C20.0133 116.251 20.9045 116.499 21.7543 116.936C22.5217 117.332 23.19 117.761 23.7594 118.223C24.0729 118.471 24.601 118.958 25.3601 119.667C25.8139 120.096 26.3089 120.682 26.6885 121.029C27.2991 121.581 27.9922 122.002 28.7678 122.275C29.2216 122.44 30.649 122.745 30.4923 121.771C30.385 121.128 29.8157 120.509 29.3124 120.08C29.2876 120.063 29.2711 120.039 29.2629 120.014C29.1969 119.874 29.2216 119.758 29.3289 119.675C29.6094 119.461 30.4593 119.618 30.8471 119.708C32.0682 119.989 33.2069 120.517 34.3291 121.144C35.542 121.821 36.5899 122.638 37.4727 123.578C37.9101 124.049 38.2318 124.346 38.4381 124.486C39.0735 124.907 39.9151 125.295 40.6412 125.187C41.7633 125.03 41.4415 123.958 40.9877 123.339C40.7154 122.976 40.4101 122.662 40.0636 122.398C39.9811 122.332 39.9646 122.217 40.0306 122.134C40.0388 122.118 40.0553 122.11 40.0718 122.093C40.6494 121.656 41.524 121.747 42.1594 121.945C43.8674 122.489 45.4351 123.628 46.714 124.907C48.224 126.433 50.3858 127.308 52.4816 127.531C53.5542 127.646 55.5592 127.415 55.1632 125.864C55.0559 125.427 54.7919 125.014 54.3876 124.618C54.2556 124.494 54.1895 124.395 54.1895 124.321C54.1895 124.189 54.2556 124.09 54.3876 124.032C56.9207 122.951 59.8746 124.148 62.0199 125.608C63.2245 126.425 64.3384 127.374 65.3698 128.455C67.4986 130.691 69.2974 133.265 70.7743 136.178C71.4757 137.564 72.144 139.206 72.7876 141.104C72.8784 141.376 72.8124 141.557 72.5813 141.632C72.4741 141.665 72.3586 141.615 72.309 141.516C72.0368 140.98 71.6902 140.46 71.2529 139.965C69.4872 137.968 67.4574 136.269 65.1718 134.858C64.718 134.577 64.2559 134.23 63.7856 133.818C62.5975 132.778 61.5578 131.664 60.6667 130.476C60.2541 129.923 59.8828 129.354 59.5775 128.76C59.5775 128.752 59.5693 128.752 59.561 128.76V128.768C59.5693 128.884 59.594 128.983 59.627 129.074C60.0726 130.253 60.7575 131.384 61.6733 132.473C61.8053 132.63 61.8053 132.762 61.6733 132.877C61.5991 132.943 61.4835 132.952 61.3845 132.894C61.137 132.762 60.7987 132.506 60.4687 132.333C59.7178 131.937 58.8432 131.574 57.853 131.252C55.2869 130.41 52.7208 129.915 50.1547 129.767C49.5441 129.734 49.1481 129.692 48.9666 129.643C47.7702 129.321 46.5985 128.512 45.6826 127.687C45.4846 127.506 45.2206 127.25 44.8905 126.912C44.8905 126.912 44.8823 126.912 44.874 126.912C44.8823 126.92 44.8823 126.92 44.8823 126.928Z" fill="black"/>
<path d="M106.543 126.92C106.213 127.258 105.949 127.514 105.751 127.696C104.835 128.529 103.663 129.329 102.467 129.651C102.285 129.701 101.889 129.742 101.279 129.775C98.7127 129.915 96.1466 130.41 93.5805 131.26C92.5903 131.59 91.7157 131.953 90.9648 132.341C90.6348 132.514 90.2965 132.77 90.049 132.902C89.95 132.96 89.8345 132.952 89.7602 132.886C89.6282 132.77 89.6282 132.63 89.7602 132.481C90.6761 131.392 91.3609 130.262 91.8065 129.082C91.8395 128.991 91.8642 128.892 91.8725 128.777C91.8725 128.768 91.8642 128.768 91.8642 128.768H91.856C91.5424 129.362 91.1794 129.932 90.7668 130.485C89.8675 131.673 88.8278 132.787 87.6479 133.826C87.1776 134.239 86.7155 134.585 86.2617 134.866C83.9762 136.277 81.9464 137.977 80.1806 139.973C79.7433 140.468 79.3885 140.988 79.1245 141.525C79.075 141.624 78.9595 141.673 78.8522 141.64C78.6212 141.566 78.5551 141.393 78.6459 141.112C79.2895 139.214 79.9578 137.572 80.6592 136.186C82.1361 133.265 83.9349 130.691 86.0637 128.463C87.0951 127.382 88.209 126.433 89.4137 125.616C91.559 124.156 94.5211 122.951 97.046 124.04C97.178 124.098 97.244 124.197 97.244 124.329C97.244 124.395 97.178 124.494 97.046 124.626C96.6417 125.022 96.3859 125.435 96.2703 125.872C95.8743 127.423 97.8876 127.654 98.952 127.539C101.048 127.316 103.201 126.441 104.72 124.915C105.998 123.628 107.574 122.497 109.274 121.953C109.909 121.747 110.784 121.664 111.362 122.101C111.444 122.167 111.461 122.283 111.403 122.365C111.395 122.382 111.378 122.39 111.362 122.407C111.015 122.671 110.71 122.976 110.438 123.347C109.984 123.966 109.662 125.039 110.784 125.196C111.51 125.295 112.36 124.907 112.987 124.494C113.193 124.362 113.515 124.057 113.953 123.587C114.835 122.646 115.883 121.829 117.096 121.153C118.218 120.525 119.357 119.997 120.578 119.717C120.966 119.626 121.824 119.469 122.096 119.684C122.204 119.766 122.228 119.882 122.162 120.022C122.154 120.047 122.129 120.072 122.113 120.088C121.61 120.517 121.032 121.128 120.933 121.78C120.776 122.753 122.195 122.448 122.657 122.283C123.433 122.011 124.126 121.598 124.737 121.037C125.125 120.69 125.62 120.105 126.065 119.676C126.824 118.958 127.352 118.479 127.666 118.232C128.235 117.77 128.904 117.34 129.671 116.944C130.521 116.507 131.412 116.251 132.344 116.194C132.625 116.177 134.415 116.26 133.607 116.961C133.128 117.373 132.707 117.819 132.328 118.298C131.907 118.834 130.909 120.377 132.056 120.756C133.046 121.087 134.539 120.657 135.414 120.237C137.369 119.304 139.085 118.05 140.579 116.482C141.272 115.756 141.833 114.972 142.279 114.139C142.32 114.065 142.427 113.793 142.617 113.306C142.683 113.132 142.997 113.083 143.071 113.297C143.104 113.388 143.112 113.471 143.096 113.561C142.501 118.463 137.947 122.077 133.805 124.049C130.686 125.534 127.443 126.524 124.068 127.027C123.895 127.052 123.771 126.994 123.722 126.838C123.681 126.722 123.722 126.598 123.813 126.541C125.62 125.361 127.22 123.776 128.276 122.06C128.285 122.052 128.293 122.027 128.309 121.986C128.309 121.978 128.309 121.978 128.301 121.969C128.293 121.969 128.293 121.969 128.293 121.969C126.321 124.387 123.862 126.12 120.892 127.151C119.464 127.646 118.004 127.877 116.502 127.844C116.477 127.844 116.42 127.828 116.329 127.803C116.255 127.778 116.205 127.745 116.189 127.704C116.147 127.613 116.18 127.506 116.263 127.448C117.071 126.953 117.633 126.235 117.93 125.278C117.93 125.27 117.93 125.262 117.921 125.262C117.913 125.262 117.905 125.262 117.905 125.27C116.915 126.631 115.264 127.663 113.664 128.182C113.16 128.348 112.426 128.48 111.461 128.595C110.446 128.711 108.193 128.991 104.703 129.445C104.579 129.461 104.48 129.412 104.422 129.288C104.381 129.206 104.414 129.107 104.497 129.057C105.371 128.504 106.056 127.803 106.56 126.945C106.56 126.937 106.56 126.937 106.551 126.928C106.551 126.912 106.551 126.912 106.543 126.92Z" fill="black"/>
</svg>
