<svg viewBox="0 0 21 15" fill="none"
    xmlns="http://www.w3.org/2000/svg">
    <path d="M0.562502 7.84803C0.479166 7.62349 0.479166 7.3765 0.562502 7.15197C1.37416 5.18365 2.75191 3.50069 4.52107 2.31644C6.29024 1.1322 8.37115 0.5 10.5 0.5C12.6288 0.5 14.7098 1.1322 16.4789 2.31644C18.2481 3.50069 19.6258 5.18365 20.4375 7.15197C20.5208 7.3765 20.5208 7.62349 20.4375 7.84803C19.6258 9.81635 18.2481 11.4993 16.4789 12.6836C14.7098 13.8678 12.6288 14.5 10.5 14.5C8.37115 14.5 6.29024 13.8678 4.52107 12.6836C2.75191 11.4993 1.37416 9.81635 0.562502 7.84803Z" stroke="currentColor" stroke-linecap="round" stroke-linejoin="round" stroke-width="1.5" />
    <path d="M10.5 10.5003C12.1568 10.5003 13.4998 9.157 13.4998 7.5C13.4998 5.843 12.1568 4.49974 10.5 4.49974C8.84323 4.49974 7.50015 5.843 7.50015 7.5C7.50015 9.157 8.84323 10.5003 10.5 10.5003Z" stroke="currentColor" stroke-linecap="round" stroke-linejoin="round" stroke-width="1.5" />
</svg>
