<svg viewBox="0 0 21 15" xmlns="http://www.w3.org/2000/svg">
    <path
        d="M20.4375 14.5L0.562502 0.500046M0.562502 7.84808C0.479166 7.62354 0.479166 7.37655 0.562502 7.15202C1.37416 5.1837 2.75191 3.50073 4.52107 2.31649C6.29024 1.13224 8.37115 0.500046 10.5 0.500046C12.6288 0.500046 14.7098 1.13224 16.4789 2.31649C18.2481 3.50073 19.6258 5.1837 20.4375 7.15202C20.5208 7.37655 20.5208 7.62354 20.4375 7.84808C19.6258 9.8164 18.2481 11.4994 16.4789 12.6836C14.7098 13.8679 12.6288 14.5 10.5 14.5C8.37115 14.5 6.29024 13.8679 4.52107 12.6836C2.75191 11.4994 1.37416 9.8164 0.562502 7.84808ZM13.4998 7.50005C13.4998 9.15705 12.1568 10.5003 10.5 10.5003C8.84323 10.5003 7.50015 9.15705 7.50015 7.50005C7.50015 5.84305 8.84323 4.49978 10.5 4.49978C12.1568 4.49978 13.4998 5.84305 13.4998 7.50005Z"
        stroke="currentColor"
        fill="none"
        stroke-linecap="round"
        stroke-linejoin="round"
    />
</svg>