<svg width="24" height="24" viewBox="0 0 24 24" stroke="currentColor" stroke-width="2" stroke-linecap="round" stroke-linejoin="round" fill="none"
    xmlns="http://www.w3.org/2000/svg">
    <path d="M21 17.6955V11.5849C21 10.9964 20.9995 10.702 20.9264 10.4281C20.8616 10.1854 20.7553 9.95577 20.6114 9.74823C20.449 9.51404 20.2232 9.31984 19.7709 8.9323L14.3708 4.30639C13.5309 3.58686 13.1109 3.22727 12.6383 3.09043C12.2218 2.96986 11.7779 2.96986 11.3615 3.09043C10.8892 3.22717 10.4698 3.58641 9.63116 4.30486L4.22937 8.9323C3.77697 9.31984 3.5513 9.51404 3.38892 9.74823C3.24502 9.95577 3.13787 10.1854 3.07309 10.4281C3 10.702 3 10.9964 3 11.5849V17.6955C3 18.7218 3 19.2348 3.17127 19.6396C3.39963 20.1794 3.83736 20.6087 4.38867 20.8323C4.80216 21 5.32634 21 6.37471 21C7.42308 21 7.94784 21 8.36133 20.8323C8.91264 20.6087 9.35025 20.1795 9.57861 19.6397C9.74988 19.2349 9.75 18.7217 9.75 17.6954V16.5939C9.75 15.3774 10.7574 14.3911 12 14.3911C13.2426 14.3911 14.25 15.3774 14.25 16.5939V17.6954C14.25 18.7217 14.25 19.2349 14.4213 19.6397C14.6496 20.1795 15.0874 20.6087 15.6387 20.8323C16.0522 21 16.5763 21 17.6247 21C18.6731 21 19.1978 21 19.6113 20.8323C20.1626 20.6087 20.6003 20.1794 20.8286 19.6396C20.9999 19.2348 21 18.7218 21 17.6955Z"/>
</svg>
