<svg width="12" height="6" viewBox="0 0 12 6" fill="none" xmlns="http://www.w3.org/2000/svg">
<path d="M11.1913 0.279313C10.9958 0.100415 10.7314 0 10.4557 0C10.18 0 9.91553 0.100415 9.72002 0.279313L5.97391 3.67957L2.27997 0.279313C2.08446 0.100415 1.81999 0 1.54432 0C1.26864 0 1.00417 0.100415 0.808661 0.279313C0.710857 0.368606 0.633227 0.474841 0.580251 0.59189C0.527275 0.708939 0.5 0.834485 0.5 0.961285C0.5 1.08809 0.527275 1.21363 0.580251 1.33068C0.633227 1.44773 0.710857 1.55396 0.808661 1.64326L5.23304 5.71588C5.33004 5.80591 5.44545 5.87736 5.57261 5.92613C5.69977 5.97489 5.83616 6 5.97391 6C6.11166 6 6.24805 5.97489 6.37521 5.92613C6.50237 5.87736 6.61778 5.80591 6.71479 5.71588L11.1913 1.64326C11.2891 1.55396 11.3668 1.44773 11.4197 1.33068C11.4727 1.21363 11.5 1.08809 11.5 0.961285C11.5 0.834485 11.4727 0.708939 11.4197 0.59189C11.3668 0.474841 11.2891 0.368606 11.1913 0.279313Z" fill="#DFE1E6"/>
</svg>
