<svg width="24" height="24" stroke="currentColor" stroke-width="2" stroke-linecap="round" stroke-linejoin="round" viewBox="0 0 24 24" fill="none" xmlns="http://www.w3.org/2000/svg">
<path d="M14.8125 4.56764C16.3249 4.56764 17.9762 4.56764 19.0001 4.56764C19.5524 4.56764 20 5.01535 20 5.56764V20C20 20.5523 19.5523 21 19 21H5C4.44772 21 4 20.5523 4 20V5.56764C4 5.01535 4.4467 4.56764 4.99899 4.56764C5.96679 4.56764 7.49166 4.56764 8.90625 4.56764M14.8125 4.56764C11.4375 7.64863 8.90625 4.56764 8.90625 4.56764M14.8125 4.56764L13.1036 3.12312C12.3418 2.47915 11.222 2.49499 10.4787 3.16026L8.90625 4.56764M10 10.5H16.8211M10.1789 14H17M10.1789 17.5H17M7.17892 14H7.5M7.17892 17.5H7.5M7 10.5H7.32108"/>
</svg>
