<svg viewBox="0 0 24 24" stroke="currentColor" stroke-width="1.9" stroke-linecap="round" stroke-linejoin="round" fill="none" xmlns="http://www.w3.org/2000/svg">
<path d="M18 17.625H6.19691M18 7.5H15M18 10.5H14M18 14.5H6.19691M6.2002 10.5H10.5V6H6.2002V10.5ZM3 16.2003V7.80029C3 6.12014 3 5.27943 3.21799 4.6377C3.40973 4.07321 3.71547 3.6146 4.0918 3.32698C4.51962 3 5.08009 3 6.2002 3H17.8002C18.9203 3 19.4796 3 19.9074 3.32698C20.2837 3.6146 20.5905 4.07321 20.7822 4.6377C21 5.2788 21 6.11849 21 7.79537V16.2046C21 17.8815 21 18.72 20.7822 19.3611C20.5905 19.9256 20.2837 20.3857 19.9074 20.6733C19.48 21 18.921 21 17.8031 21H12H6.19691C6.12926 21 6.06366 21 6 20.9999C5.01173 20.9988 4.49334 20.9802 4.0918 20.6733C3.71547 20.3857 3.40973 19.9256 3.21799 19.3611C3 18.7194 3 17.8805 3 16.2003Z" />
</svg>
